<?xml version="1.0" encoding="UTF-8" standalone="no"?><svg xmlns="http://www.w3.org/2000/svg" xmlns:xlink="http://www.w3.org/1999/xlink" contentScriptType="application/ecmascript" contentStyleType="text/css" height="355px" preserveAspectRatio="none" style="width:367px;height:355px;" version="1.1" viewBox="0 0 367 355" width="367px" zoomAndPan="magnify"><defs><filter height="300%" id="fl0yokohlyl1i" width="300%" x="-1" y="-1"><feGaussianBlur result="blurOut" stdDeviation="2.0"/><feColorMatrix in="blurOut" result="blurOut2" type="matrix" values="0 0 0 0 0 0 0 0 0 0 0 0 0 0 0 0 0 0 .4 0"/><feOffset dx="4.0" dy="4.0" in="blurOut2" result="blurOut3"/><feBlend in="SourceGraphic" in2="blurOut3" mode="normal"/></filter></defs><g><!--cluster java.util--><polygon fill="#FFFFFF" filter="url(#fl0yokohlyl1i)" points="22,24,88,24,95,46.2969,345,46.2969,345,343,22,343,22,24" style="stroke: #000000; stroke-width: 2.0;"/><line style="stroke: #000000; stroke-width: 2.0;" x1="22" x2="95" y1="46.2969" y2="46.2969"/><text fill="#000000" font-family="sans-serif" font-size="14" font-weight="bold" lengthAdjust="spacingAndGlyphs" textLength="60" x="26" y="38.9951">java.util</text><!--class List--><rect fill="#FEFECE" filter="url(#fl0yokohlyl1i)" height="32" id="List" style="stroke: #A80036; stroke-width: 1.5;" width="65" x="140.5" y="59"/><ellipse cx="155.5" cy="75" fill="#B4A7E5" rx="11" ry="11" style="stroke: #A80036; stroke-width: 1.0;"/><path d="M156.4531,71.7813 L156.4531,78.2969 L158.1719,78.2969 C158.625,78.2969 158.7656,78.3281 158.9375,78.4531 C159.1719,78.625 159.2813,78.875 159.2813,79.1563 C159.2813,79.7188 158.9219,80 158.1719,80 L153.0313,80 C152.625,80 152.4219,79.9531 152.2656,79.8281 C152.0469,79.6719 151.9063,79.4063 151.9063,79.1563 C151.9063,78.8594 152.0625,78.5781 152.3125,78.4219 C152.4688,78.3125 152.5938,78.2969 153.0313,78.2969 L154.75,78.2969 L154.75,71.7813 L153.0313,71.7813 C152.6094,71.7813 152.4219,71.75 152.2656,71.6406 C152.0469,71.4688 151.9063,71.2188 151.9063,70.9375 C151.9063,70.6563 152.0625,70.3594 152.3125,70.2031 C152.4688,70.1094 152.5938,70.0938 153.0313,70.0938 L158.1719,70.0938 C158.625,70.0938 158.7656,70.125 158.9375,70.2344 C159.1719,70.4063 159.2813,70.6719 159.2813,70.9375 C159.2813,71.2344 159.1406,71.5156 158.875,71.6719 C158.75,71.75 158.5625,71.7813 158.1719,71.7813 Z "/><text fill="#000000" font-family="sans-serif" font-size="12" font-style="italic" lengthAdjust="spacingAndGlyphs" textLength="21" x="169.5" y="79.1543">List</text><rect fill="#FFFFFF" height="15.9688" style="stroke: #000000; stroke-width: 1.0; stroke-dasharray: 2.0,2.0;" width="10" x="198.5" y="56"/><text fill="#000000" font-family="sans-serif" font-size="12" font-style="italic" lengthAdjust="spacingAndGlyphs" textLength="8" x="199.5" y="68.1387">E</text><!--class LinkedList--><rect fill="#FEFECE" filter="url(#fl0yokohlyl1i)" height="65.6094" id="LinkedList" style="stroke: #A80036; stroke-width: 1.5;" width="105" x="38.5" y="152"/><ellipse cx="53.5" cy="168" fill="#ADD1B2" rx="11" ry="11" style="stroke: #A80036; stroke-width: 1.0;"/><path d="M55.8438,163.6719 L56.0156,163.75 C56.2344,163.4375 56.4375,163.3438 56.7344,163.3438 C57.0313,163.3438 57.3125,163.4844 57.4688,163.75 C57.5625,163.9063 57.5781,164.0313 57.5781,164.4688 L57.5781,165.8906 C57.5781,166.3125 57.5469,166.5 57.4375,166.6563 C57.2656,166.875 57,167.0156 56.7344,167.0156 C56.5156,167.0156 56.2813,166.9063 56.1406,166.7656 C56,166.6406 55.9688,166.5156 55.9063,166.1094 C55.8125,165.7031 55.6406,165.4844 55.1563,165.2031 C54.6875,164.9531 54.0781,164.7969 53.5,164.7969 C51.7656,164.7969 50.5156,166.1094 50.5156,167.8906 L50.5156,168.9844 C50.5156,170.6875 51.8125,171.7813 53.8594,171.7813 C54.625,171.7813 55.3125,171.6563 55.7344,171.3906 C55.9219,171.2969 55.9219,171.2969 56.375,170.8125 C56.5625,170.625 56.7656,170.5469 56.9844,170.5469 C57.4531,170.5469 57.8438,170.9375 57.8438,171.3906 C57.8438,171.7813 57.5156,172.2344 56.9375,172.6406 C56.1875,173.1875 55.0313,173.4844 53.8125,173.4844 C50.9219,173.4844 48.8125,171.5938 48.8125,169.0156 L48.8125,167.8906 C48.8125,165.1719 50.8125,163.0938 53.4375,163.0938 C54.3125,163.0938 54.9063,163.2344 55.8438,163.6719 Z "/><text fill="#000000" font-family="sans-serif" font-size="12" lengthAdjust="spacingAndGlyphs" textLength="61" x="67.5" y="172.1543">LinkedList</text><rect fill="#FFFFFF" height="15.9688" style="stroke: #000000; stroke-width: 1.0; stroke-dasharray: 2.0,2.0;" width="10" x="136.5" y="149"/><text fill="#000000" font-family="sans-serif" font-size="12" font-style="italic" lengthAdjust="spacingAndGlyphs" textLength="8" x="137.5" y="161.1387">E</text><line style="stroke: #A80036; stroke-width: 1.5;" x1="39.5" x2="142.5" y1="184" y2="184"/><rect fill="none" height="6" style="stroke: #C82930; stroke-width: 1.0;" width="6" x="46.5" y="192.9023"/><text fill="#000000" font-family="sans-serif" font-size="11" lengthAdjust="spacingAndGlyphs" textLength="40" x="58.5" y="198.2104">item: E</text><rect fill="none" height="6" style="stroke: #C82930; stroke-width: 1.0;" width="6" x="46.5" y="205.707"/><text fill="#000000" font-family="sans-serif" font-size="11" lengthAdjust="spacingAndGlyphs" textLength="44" x="58.5" y="211.0151">size: int</text><!--class ArrayList--><rect fill="#FEFECE" filter="url(#fl0yokohlyl1i)" height="65.6094" id="ArrayList" style="stroke: #A80036; stroke-width: 1.5;" width="150" x="179" y="152"/><ellipse cx="217.85" cy="168" fill="#ADD1B2" rx="11" ry="11" style="stroke: #A80036; stroke-width: 1.0;"/><path d="M220.1938,163.6719 L220.3656,163.75 C220.5844,163.4375 220.7875,163.3438 221.0844,163.3438 C221.3813,163.3438 221.6625,163.4844 221.8188,163.75 C221.9125,163.9063 221.9281,164.0313 221.9281,164.4688 L221.9281,165.8906 C221.9281,166.3125 221.8969,166.5 221.7875,166.6563 C221.6156,166.875 221.35,167.0156 221.0844,167.0156 C220.8656,167.0156 220.6313,166.9063 220.4906,166.7656 C220.35,166.6406 220.3188,166.5156 220.2563,166.1094 C220.1625,165.7031 219.9906,165.4844 219.5063,165.2031 C219.0375,164.9531 218.4281,164.7969 217.85,164.7969 C216.1156,164.7969 214.8656,166.1094 214.8656,167.8906 L214.8656,168.9844 C214.8656,170.6875 216.1625,171.7813 218.2094,171.7813 C218.975,171.7813 219.6625,171.6563 220.0844,171.3906 C220.2719,171.2969 220.2719,171.2969 220.725,170.8125 C220.9125,170.625 221.1156,170.5469 221.3344,170.5469 C221.8031,170.5469 222.1938,170.9375 222.1938,171.3906 C222.1938,171.7813 221.8656,172.2344 221.2875,172.6406 C220.5375,173.1875 219.3813,173.4844 218.1625,173.4844 C215.2719,173.4844 213.1625,171.5938 213.1625,169.0156 L213.1625,167.8906 C213.1625,165.1719 215.1625,163.0938 217.7875,163.0938 C218.6625,163.0938 219.2563,163.2344 220.1938,163.6719 Z "/><text fill="#000000" font-family="sans-serif" font-size="12" lengthAdjust="spacingAndGlyphs" textLength="53" x="237.15" y="172.1543">ArrayList</text><rect fill="#FFFFFF" height="15.9688" style="stroke: #000000; stroke-width: 1.0; stroke-dasharray: 2.0,2.0;" width="10" x="322" y="149"/><text fill="#000000" font-family="sans-serif" font-size="12" font-style="italic" lengthAdjust="spacingAndGlyphs" textLength="8" x="323" y="161.1387">E</text><line style="stroke: #A80036; stroke-width: 1.5;" x1="180" x2="328" y1="184" y2="184"/><rect fill="none" height="6" style="stroke: #C82930; stroke-width: 1.0;" width="6" x="187" y="192.9023"/><text fill="#000000" font-family="sans-serif" font-size="11" lengthAdjust="spacingAndGlyphs" textLength="124" x="199" y="198.2104">elementData: Object[]</text><rect fill="none" height="6" style="stroke: #C82930; stroke-width: 1.0;" width="6" x="187" y="205.707"/><text fill="#000000" font-family="sans-serif" font-size="11" lengthAdjust="spacingAndGlyphs" textLength="44" x="199" y="211.0151">size: int</text><!--class Node--><rect fill="#FEFECE" filter="url(#fl0yokohlyl1i)" height="32" id="Node" style="stroke: #A80036; stroke-width: 1.5;" width="77" x="52.5" y="295"/><ellipse cx="67.5" cy="311" fill="#ADD1B2" rx="11" ry="11" style="stroke: #A80036; stroke-width: 1.0;"/><path d="M69.8438,306.6719 L70.0156,306.75 C70.2344,306.4375 70.4375,306.3438 70.7344,306.3438 C71.0313,306.3438 71.3125,306.4844 71.4688,306.75 C71.5625,306.9063 71.5781,307.0313 71.5781,307.4688 L71.5781,308.8906 C71.5781,309.3125 71.5469,309.5 71.4375,309.6563 C71.2656,309.875 71,310.0156 70.7344,310.0156 C70.5156,310.0156 70.2813,309.9063 70.1406,309.7656 C70,309.6406 69.9688,309.5156 69.9063,309.1094 C69.8125,308.7031 69.6406,308.4844 69.1563,308.2031 C68.6875,307.9531 68.0781,307.7969 67.5,307.7969 C65.7656,307.7969 64.5156,309.1094 64.5156,310.8906 L64.5156,311.9844 C64.5156,313.6875 65.8125,314.7813 67.8594,314.7813 C68.625,314.7813 69.3125,314.6563 69.7344,314.3906 C69.9219,314.2969 69.9219,314.2969 70.375,313.8125 C70.5625,313.625 70.7656,313.5469 70.9844,313.5469 C71.4531,313.5469 71.8438,313.9375 71.8438,314.3906 C71.8438,314.7813 71.5156,315.2344 70.9375,315.6406 C70.1875,316.1875 69.0313,316.4844 67.8125,316.4844 C64.9219,316.4844 62.8125,314.5938 62.8125,312.0156 L62.8125,310.8906 C62.8125,308.1719 64.8125,306.0938 67.4375,306.0938 C68.3125,306.0938 68.9063,306.2344 69.8438,306.6719 Z "/><text fill="#000000" font-family="sans-serif" font-size="12" lengthAdjust="spacingAndGlyphs" textLength="33" x="81.5" y="315.1543">Node</text><rect fill="#FFFFFF" height="15.9688" style="stroke: #000000; stroke-width: 1.0; stroke-dasharray: 2.0,2.0;" width="10" x="122.5" y="292"/><text fill="#000000" font-family="sans-serif" font-size="12" font-style="italic" lengthAdjust="spacingAndGlyphs" textLength="8" x="123.5" y="304.1387">E</text><!--link List to LinkedList--><path d="M149.421,107.055 C138.771,121.082 126.194,137.647 115.443,151.807 " fill="none" id="List-LinkedList" style="stroke: #A80036; stroke-width: 1.0; stroke-dasharray: 7.0,7.0;"/><polygon fill="none" points="143.929,102.713,161.598,91.017,155.079,111.179,143.929,102.713" style="stroke: #A80036; stroke-width: 1.0;"/><!--link List to ArrayList--><path d="M196.292,107.055 C206.812,121.082 219.235,137.647 229.855,151.807 " fill="none" id="List-ArrayList" style="stroke: #A80036; stroke-width: 1.0; stroke-dasharray: 7.0,7.0;"/><polygon fill="none" points="190.663,111.217,184.263,91.017,201.863,102.817,190.663,111.217" style="stroke: #A80036; stroke-width: 1.0;"/><!--link LinkedList to Node--><path d="M57.2071,231.72 C52.8928,242.484 51.1495,254.023 55,265 C58.974,276.3291 67.1326,286.9248 74.6794,294.9855 " fill="none" id="LinkedList-Node" style="stroke: #A80036; stroke-width: 1.0;"/><ellipse cx="60.4847" cy="225.2628" fill="#FFFFFF" rx="8" ry="8" style="stroke: #A80036; stroke-width: 1.0;"/><line style="stroke: #A80036; stroke-width: 1.0;" x1="56.8642" x2="64.1053" y1="232.3967" y2="218.129"/><line style="stroke: #A80036; stroke-width: 1.0;" x1="53.3509" x2="67.6186" y1="221.6423" y2="228.8834"/><!--link LinkedList to Node--><path d="M88.7346,218.284 C87.9987,232.595 87.4884,249.636 88,265 C88.2667,273.0114 88.7999,281.8117 89.3438,289.4888 " fill="none" id="LinkedList-Node" style="stroke: #A80036; stroke-width: 1.0;"/><polygon fill="#A80036" points="89.7188,294.6007,93.0493,285.332,89.3528,289.6141,85.0707,285.9176,89.7188,294.6007" style="stroke: #A80036; stroke-width: 1.0;"/><text fill="#000000" font-family="sans-serif" font-size="13" lengthAdjust="spacingAndGlyphs" textLength="24" x="89" y="261.0669">first</text><text fill="#000000" font-family="sans-serif" font-size="13" lengthAdjust="spacingAndGlyphs" textLength="8" x="80.0354" y="284.0709">1</text><!--link LinkedList to Node--><path d="M111.131,218.018 C117.707,232.279 122.333,249.356 118,265 C115.543,273.8708 110.82,282.7486 106.002,290.2463 " fill="none" id="LinkedList-Node" style="stroke: #A80036; stroke-width: 1.0;"/><polygon fill="#A80036" points="103.0097,294.7239,111.3364,289.4641,105.7881,290.5669,104.6853,285.0186,103.0097,294.7239" style="stroke: #A80036; stroke-width: 1.0;"/><text fill="#000000" font-family="sans-serif" font-size="13" lengthAdjust="spacingAndGlyphs" textLength="23" x="120" y="261.0669">last</text><text fill="#000000" font-family="sans-serif" font-size="13" lengthAdjust="spacingAndGlyphs" textLength="8" x="97.6629" y="283.937">1</text><!--link Node to Node--><path d="M129.571,306.0611 C148.123,305.4514 164.5,307.0977 164.5,311 C164.5,314.5365 151.05,316.2201 134.719,316.0509 " fill="none" id="Node-Node" style="stroke: #A80036; stroke-width: 1.0;"/><polygon fill="#A80036" points="129.571,315.9389,138.482,320.1334,134.5698,316.0475,138.6557,312.1353,129.571,315.9389" style="stroke: #A80036; stroke-width: 1.0;"/><text fill="#000000" font-family="sans-serif" font-size="13" lengthAdjust="spacingAndGlyphs" textLength="28" x="170.5" y="315.5669">prev</text><text fill="#000000" font-family="sans-serif" font-size="13" lengthAdjust="spacingAndGlyphs" textLength="8" x="137.42" y="312.5458">1</text><!--link Node to Node--><path d="M129.527,302.7106 C165.198,298.6128 204.5,301.376 204.5,311 C204.5,320.1729 168.796,323.1131 134.563,319.8205 " fill="none" id="Node-Node" style="stroke: #A80036; stroke-width: 1.0;"/><polygon fill="#A80036" points="129.527,319.2894,138.058,324.2111,134.4994,319.8137,138.8968,316.2552,129.527,319.2894" style="stroke: #A80036; stroke-width: 1.0;"/><text fill="#000000" font-family="sans-serif" font-size="13" lengthAdjust="spacingAndGlyphs" textLength="28" x="210.5" y="315.5669">next</text><text fill="#000000" font-family="sans-serif" font-size="13" lengthAdjust="spacingAndGlyphs" textLength="8" x="137.3679" y="334.2797">1</text><!--
@startuml
package "java.util" {
 interface List<E>
 class LinkedList<E> {
  - item: E
  - size: int
 }
 class ArrayList<E> {
  - elementData: Object[]
  - size: int
 }
 class Node<E>
 LinkedList .up.|> List
 ArrayList .up.|> List
 LinkedList +- - Node
 LinkedList - -> "1" Node: first 
 LinkedList - -> "1" Node: last
 Node - -> "1" Node: prev 
 Node - -> "1" Node: next
}
hide empty attributes
hide empty methods
@enduml

PlantUML version 1.2017.16beta5(Unknown compile time)
(GPL source distribution)
Java Runtime: Java(TM) SE Runtime Environment
JVM: Java HotSpot(TM) 64-Bit Server VM
Java Version: 1.7.0_25-b15
Operating System: Linux
Default Encoding: UTF-8
Language: en
Country: US
--></g></svg>