<?xml version="1.0" encoding="UTF-8" standalone="no"?><svg xmlns="http://www.w3.org/2000/svg" xmlns:xlink="http://www.w3.org/1999/xlink" contentScriptType="application/ecmascript" contentStyleType="text/css" height="636px" preserveAspectRatio="none" style="width:561px;height:636px;" version="1.1" viewBox="0 0 561 636" width="561px" zoomAndPan="magnify"><defs><filter height="300%" id="f1cyugvuq1gcqa" width="300%" x="-1" y="-1"><feGaussianBlur result="blurOut" stdDeviation="2.0"/><feColorMatrix in="blurOut" result="blurOut2" type="matrix" values="0 0 0 0 0 0 0 0 0 0 0 0 0 0 0 0 0 0 .4 0"/><feOffset dx="4.0" dy="4.0" in="blurOut2" result="blurOut3"/><feBlend in="SourceGraphic" in2="blurOut3" mode="normal"/></filter></defs><g><!--cluster java.util--><polygon fill="#FFFFFF" filter="url(#f1cyugvuq1gcqa)" points="22,24,88,24,95,46.2969,539,46.2969,539,624,22,624,22,24" style="stroke: #000000; stroke-width: 2.0;"/><line style="stroke: #000000; stroke-width: 2.0;" x1="22" x2="95" y1="46.2969" y2="46.2969"/><text fill="#000000" font-family="sans-serif" font-size="14" font-weight="bold" lengthAdjust="spacingAndGlyphs" textLength="60" x="26" y="38.9951">java.util</text><!--class Iterator--><rect fill="#FEFECE" filter="url(#f1cyugvuq1gcqa)" height="65.6094" id="Iterator" style="stroke: #A80036; stroke-width: 1.5;" width="133" x="287.5" y="59"/><ellipse cx="320.95" cy="75" fill="#B4A7E5" rx="11" ry="11" style="stroke: #A80036; stroke-width: 1.0;"/><path d="M321.9031,71.7813 L321.9031,78.2969 L323.6219,78.2969 C324.075,78.2969 324.2156,78.3281 324.3875,78.4531 C324.6219,78.625 324.7313,78.875 324.7313,79.1563 C324.7313,79.7188 324.3719,80 323.6219,80 L318.4813,80 C318.075,80 317.8719,79.9531 317.7156,79.8281 C317.4969,79.6719 317.3563,79.4063 317.3563,79.1563 C317.3563,78.8594 317.5125,78.5781 317.7625,78.4219 C317.9188,78.3125 318.0438,78.2969 318.4813,78.2969 L320.2,78.2969 L320.2,71.7813 L318.4813,71.7813 C318.0594,71.7813 317.8719,71.75 317.7156,71.6406 C317.4969,71.4688 317.3563,71.2188 317.3563,70.9375 C317.3563,70.6563 317.5125,70.3594 317.7625,70.2031 C317.9188,70.1094 318.0438,70.0938 318.4813,70.0938 L323.6219,70.0938 C324.075,70.0938 324.2156,70.125 324.3875,70.2344 C324.6219,70.4063 324.7313,70.6719 324.7313,70.9375 C324.7313,71.2344 324.5906,71.5156 324.325,71.6719 C324.2,71.75 324.0125,71.7813 323.6219,71.7813 Z "/><text fill="#000000" font-family="sans-serif" font-size="12" font-style="italic" lengthAdjust="spacingAndGlyphs" textLength="48" x="339.05" y="79.1543">Iterator</text><rect fill="#FFFFFF" height="15.9688" style="stroke: #000000; stroke-width: 1.0; stroke-dasharray: 2.0,2.0;" width="10" x="413.5" y="56"/><text fill="#000000" font-family="sans-serif" font-size="12" font-style="italic" lengthAdjust="spacingAndGlyphs" textLength="8" x="414.5" y="68.1387">E</text><line style="stroke: #A80036; stroke-width: 1.5;" x1="288.5" x2="419.5" y1="91" y2="91"/><ellipse cx="298.5" cy="102.9023" fill="#84BE84" rx="3" ry="3" style="stroke: #038048; stroke-width: 1.0;"/><text fill="#000000" font-family="sans-serif" font-size="11" font-style="italic" lengthAdjust="spacingAndGlyphs" textLength="107" x="307.5" y="105.2104">hasNext(): boolean</text><ellipse cx="298.5" cy="115.707" fill="#84BE84" rx="3" ry="3" style="stroke: #038048; stroke-width: 1.0;"/><text fill="#000000" font-family="sans-serif" font-size="11" font-style="italic" lengthAdjust="spacingAndGlyphs" textLength="48" x="307.5" y="118.0151">next(): E</text><!--class Iterable--><rect fill="#FEFECE" filter="url(#f1cyugvuq1gcqa)" height="52.8047" id="Iterable" style="stroke: #A80036; stroke-width: 1.5;" width="126" x="126" y="65.5"/><ellipse cx="155.85" cy="81.5" fill="#B4A7E5" rx="11" ry="11" style="stroke: #A80036; stroke-width: 1.0;"/><path d="M156.8031,78.2813 L156.8031,84.7969 L158.5219,84.7969 C158.975,84.7969 159.1156,84.8281 159.2875,84.9531 C159.5219,85.125 159.6313,85.375 159.6313,85.6563 C159.6313,86.2188 159.2719,86.5 158.5219,86.5 L153.3813,86.5 C152.975,86.5 152.7719,86.4531 152.6156,86.3281 C152.3969,86.1719 152.2563,85.9063 152.2563,85.6563 C152.2563,85.3594 152.4125,85.0781 152.6625,84.9219 C152.8188,84.8125 152.9438,84.7969 153.3813,84.7969 L155.1,84.7969 L155.1,78.2813 L153.3813,78.2813 C152.9594,78.2813 152.7719,78.25 152.6156,78.1406 C152.3969,77.9688 152.2563,77.7188 152.2563,77.4375 C152.2563,77.1563 152.4125,76.8594 152.6625,76.7031 C152.8188,76.6094 152.9438,76.5938 153.3813,76.5938 L158.5219,76.5938 C158.975,76.5938 159.1156,76.625 159.2875,76.7344 C159.5219,76.9063 159.6313,77.1719 159.6313,77.4375 C159.6313,77.7344 159.4906,78.0156 159.225,78.1719 C159.1,78.25 158.9125,78.2813 158.5219,78.2813 Z "/><text fill="#000000" font-family="sans-serif" font-size="12" font-style="italic" lengthAdjust="spacingAndGlyphs" textLength="49" x="173.15" y="85.6543">Iterable</text><rect fill="#FFFFFF" height="15.9688" style="stroke: #000000; stroke-width: 1.0; stroke-dasharray: 2.0,2.0;" width="10" x="245" y="62.5"/><text fill="#000000" font-family="sans-serif" font-size="12" font-style="italic" lengthAdjust="spacingAndGlyphs" textLength="8" x="246" y="74.6387">E</text><line style="stroke: #A80036; stroke-width: 1.5;" x1="127" x2="251" y1="97.5" y2="97.5"/><ellipse cx="137" cy="109.4023" fill="#84BE84" rx="3" ry="3" style="stroke: #038048; stroke-width: 1.0;"/><text fill="#000000" font-family="sans-serif" font-size="11" font-style="italic" lengthAdjust="spacingAndGlyphs" textLength="100" x="146" y="111.7104">iterator(): Iterator</text><!--class Collection--><rect fill="#FEFECE" filter="url(#f1cyugvuq1gcqa)" height="184.0469" id="Collection" style="stroke: #A80036; stroke-width: 1.5;" width="301" x="38.5" y="185"/><ellipse cx="148.25" cy="201" fill="#B4A7E5" rx="11" ry="11" style="stroke: #A80036; stroke-width: 1.0;"/><path d="M149.2031,197.7813 L149.2031,204.2969 L150.9219,204.2969 C151.375,204.2969 151.5156,204.3281 151.6875,204.4531 C151.9219,204.625 152.0313,204.875 152.0313,205.1563 C152.0313,205.7188 151.6719,206 150.9219,206 L145.7813,206 C145.375,206 145.1719,205.9531 145.0156,205.8281 C144.7969,205.6719 144.6563,205.4063 144.6563,205.1563 C144.6563,204.8594 144.8125,204.5781 145.0625,204.4219 C145.2188,204.3125 145.3438,204.2969 145.7813,204.2969 L147.5,204.2969 L147.5,197.7813 L145.7813,197.7813 C145.3594,197.7813 145.1719,197.75 145.0156,197.6406 C144.7969,197.4688 144.6563,197.2188 144.6563,196.9375 C144.6563,196.6563 144.8125,196.3594 145.0625,196.2031 C145.2188,196.1094 145.3438,196.0938 145.7813,196.0938 L150.9219,196.0938 C151.375,196.0938 151.5156,196.125 151.6875,196.2344 C151.9219,196.4063 152.0313,196.6719 152.0313,196.9375 C152.0313,197.2344 151.8906,197.5156 151.625,197.6719 C151.5,197.75 151.3125,197.7813 150.9219,197.7813 Z "/><text fill="#000000" font-family="sans-serif" font-size="12" font-style="italic" lengthAdjust="spacingAndGlyphs" textLength="61" x="168.75" y="205.1543">Collection</text><rect fill="#FFFFFF" height="15.9688" style="stroke: #000000; stroke-width: 1.0; stroke-dasharray: 2.0,2.0;" width="10" x="332.5" y="182"/><text fill="#000000" font-family="sans-serif" font-size="12" font-style="italic" lengthAdjust="spacingAndGlyphs" textLength="8" x="333.5" y="194.1387">E</text><line style="stroke: #A80036; stroke-width: 1.5;" x1="39.5" x2="338.5" y1="217" y2="217"/><ellipse cx="49.5" cy="228.9023" fill="#84BE84" rx="3" ry="3" style="stroke: #038048; stroke-width: 1.0;"/><text fill="#000000" font-family="sans-serif" font-size="11" font-style="italic" lengthAdjust="spacingAndGlyphs" textLength="130" x="58.5" y="231.2104">contains(e: E): boolean</text><ellipse cx="49.5" cy="241.707" fill="#84BE84" rx="3" ry="3" style="stroke: #038048; stroke-width: 1.0;"/><text fill="#000000" font-family="sans-serif" font-size="11" font-style="italic" lengthAdjust="spacingAndGlyphs" textLength="275" x="58.5" y="244.0151">containsAll(c: Collection&lt;? extends E&gt;): boolean</text><ellipse cx="49.5" cy="254.5117" fill="#84BE84" rx="3" ry="3" style="stroke: #038048; stroke-width: 1.0;"/><text fill="#000000" font-family="sans-serif" font-size="11" font-style="italic" lengthAdjust="spacingAndGlyphs" textLength="106" x="58.5" y="256.8198">isEmpty(): boolean</text><ellipse cx="49.5" cy="267.3164" fill="#84BE84" rx="3" ry="3" style="stroke: #038048; stroke-width: 1.0;"/><text fill="#000000" font-family="sans-serif" font-size="11" font-style="italic" lengthAdjust="spacingAndGlyphs" textLength="52" x="58.5" y="269.6245">size(): int</text><line style="stroke: #A80036; stroke-width: 1.0; stroke-dasharray: 1.0,2.0;" x1="39.5" x2="338.5" y1="276.2188" y2="276.2188"/><ellipse cx="49.5" cy="288.1211" fill="#84BE84" rx="3" ry="3" style="stroke: #038048; stroke-width: 1.0;"/><text fill="#000000" font-family="sans-serif" font-size="11" font-style="italic" lengthAdjust="spacingAndGlyphs" textLength="104" x="58.5" y="290.4292">add(e: E): boolean</text><ellipse cx="49.5" cy="300.9258" fill="#84BE84" rx="3" ry="3" style="stroke: #038048; stroke-width: 1.0;"/><text fill="#000000" font-family="sans-serif" font-size="11" font-style="italic" lengthAdjust="spacingAndGlyphs" textLength="249" x="58.5" y="303.2339">addAll(c: Collection&lt;? extends E&gt;): boolean</text><line style="stroke: #A80036; stroke-width: 1.0; stroke-dasharray: 1.0,2.0;" x1="39.5" x2="338.5" y1="309.8281" y2="309.8281"/><ellipse cx="49.5" cy="321.7305" fill="#84BE84" rx="3" ry="3" style="stroke: #038048; stroke-width: 1.0;"/><text fill="#000000" font-family="sans-serif" font-size="11" font-style="italic" lengthAdjust="spacingAndGlyphs" textLength="36" x="58.5" y="324.0386">clear()</text><ellipse cx="49.5" cy="334.5352" fill="#84BE84" rx="3" ry="3" style="stroke: #038048; stroke-width: 1.0;"/><text fill="#000000" font-family="sans-serif" font-size="11" font-style="italic" lengthAdjust="spacingAndGlyphs" textLength="156" x="58.5" y="336.8433">remove(o: Object): boolean</text><ellipse cx="49.5" cy="347.3398" fill="#84BE84" rx="3" ry="3" style="stroke: #038048; stroke-width: 1.0;"/><text fill="#000000" font-family="sans-serif" font-size="11" font-style="italic" lengthAdjust="spacingAndGlyphs" textLength="212" x="58.5" y="349.6479">removeAll(c: Collection&lt;?&gt;): boolean</text><ellipse cx="49.5" cy="360.1445" fill="#84BE84" rx="3" ry="3" style="stroke: #038048; stroke-width: 1.0;"/><text fill="#000000" font-family="sans-serif" font-size="11" font-style="italic" lengthAdjust="spacingAndGlyphs" textLength="201" x="58.5" y="362.4526">retainAll(c: Collection&lt;?&gt;): boolean</text><!--class List--><rect fill="#FEFECE" filter="url(#f1cyugvuq1gcqa)" height="179.2422" id="List" style="stroke: #A80036; stroke-width: 1.5;" width="277" x="38.5" y="429"/><ellipse cx="156.25" cy="445" fill="#B4A7E5" rx="11" ry="11" style="stroke: #A80036; stroke-width: 1.0;"/><path d="M157.2031,441.7813 L157.2031,448.2969 L158.9219,448.2969 C159.375,448.2969 159.5156,448.3281 159.6875,448.4531 C159.9219,448.625 160.0313,448.875 160.0313,449.1563 C160.0313,449.7188 159.6719,450 158.9219,450 L153.7813,450 C153.375,450 153.1719,449.9531 153.0156,449.8281 C152.7969,449.6719 152.6563,449.4063 152.6563,449.1563 C152.6563,448.8594 152.8125,448.5781 153.0625,448.4219 C153.2188,448.3125 153.3438,448.2969 153.7813,448.2969 L155.5,448.2969 L155.5,441.7813 L153.7813,441.7813 C153.3594,441.7813 153.1719,441.75 153.0156,441.6406 C152.7969,441.4688 152.6563,441.2188 152.6563,440.9375 C152.6563,440.6563 152.8125,440.3594 153.0625,440.2031 C153.2188,440.1094 153.3438,440.0938 153.7813,440.0938 L158.9219,440.0938 C159.375,440.0938 159.5156,440.125 159.6875,440.2344 C159.9219,440.4063 160.0313,440.6719 160.0313,440.9375 C160.0313,441.2344 159.8906,441.5156 159.625,441.6719 C159.5,441.75 159.3125,441.7813 158.9219,441.7813 Z "/><text fill="#000000" font-family="sans-serif" font-size="12" font-style="italic" lengthAdjust="spacingAndGlyphs" textLength="21" x="176.75" y="449.1543">List</text><rect fill="#FFFFFF" height="15.9688" style="stroke: #000000; stroke-width: 1.0; stroke-dasharray: 2.0,2.0;" width="10" x="308.5" y="426"/><text fill="#000000" font-family="sans-serif" font-size="12" font-style="italic" lengthAdjust="spacingAndGlyphs" textLength="8" x="309.5" y="438.1387">E</text><line style="stroke: #A80036; stroke-width: 1.5;" x1="39.5" x2="314.5" y1="461" y2="461"/><ellipse cx="49.5" cy="472.9023" fill="#84BE84" rx="3" ry="3" style="stroke: #038048; stroke-width: 1.0;"/><text fill="#000000" font-family="sans-serif" font-size="11" font-style="italic" lengthAdjust="spacingAndGlyphs" textLength="125" x="58.5" y="475.2104">indexOf(o: Object): int</text><ellipse cx="49.5" cy="485.707" fill="#84BE84" rx="3" ry="3" style="stroke: #038048; stroke-width: 1.0;"/><text fill="#000000" font-family="sans-serif" font-size="11" font-style="italic" lengthAdjust="spacingAndGlyphs" textLength="145" x="58.5" y="488.0151">lastIndexOf(o: Object): int</text><line style="stroke: #A80036; stroke-width: 1.0; stroke-dasharray: 1.0,2.0;" x1="39.5" x2="314.5" y1="494.6094" y2="494.6094"/><ellipse cx="49.5" cy="506.5117" fill="#84BE84" rx="3" ry="3" style="stroke: #038048; stroke-width: 1.0;"/><text fill="#000000" font-family="sans-serif" font-size="11" font-style="italic" lengthAdjust="spacingAndGlyphs" textLength="94" x="58.5" y="508.8198">get(index: int): E</text><ellipse cx="49.5" cy="519.3164" fill="#84BE84" rx="3" ry="3" style="stroke: #038048; stroke-width: 1.0;"/><text fill="#000000" font-family="sans-serif" font-size="11" font-style="italic" lengthAdjust="spacingAndGlyphs" textLength="162" x="58.5" y="521.6245">set(index: int, element: E): E</text><line style="stroke: #A80036; stroke-width: 1.0; stroke-dasharray: 1.0,2.0;" x1="39.5" x2="314.5" y1="528.2188" y2="528.2188"/><ellipse cx="49.5" cy="540.1211" fill="#84BE84" rx="3" ry="3" style="stroke: #038048; stroke-width: 1.0;"/><text fill="#000000" font-family="sans-serif" font-size="11" font-style="italic" lengthAdjust="spacingAndGlyphs" textLength="151" x="58.5" y="542.4292">add(index: int, element: E)</text><ellipse cx="49.5" cy="552.9258" fill="#84BE84" rx="3" ry="3" style="stroke: #038048; stroke-width: 1.0;"/><text fill="#000000" font-family="sans-serif" font-size="11" font-style="italic" lengthAdjust="spacingAndGlyphs" textLength="250" x="58.5" y="555.2339">addAll(index: int, c: Collection&lt;?&gt;): boolean</text><ellipse cx="49.5" cy="565.7305" fill="#84BE84" rx="3" ry="3" style="stroke: #038048; stroke-width: 1.0;"/><text fill="#000000" font-family="sans-serif" font-size="11" font-style="italic" lengthAdjust="spacingAndGlyphs" textLength="120" x="58.5" y="568.0386">remove(index: int): E</text><line style="stroke: #A80036; stroke-width: 1.0; stroke-dasharray: 1.0,2.0;" x1="39.5" x2="314.5" y1="574.6328" y2="574.6328"/><ellipse cx="49.5" cy="586.5352" fill="#84BE84" rx="3" ry="3" style="stroke: #038048; stroke-width: 1.0;"/><text fill="#000000" font-family="sans-serif" font-size="11" font-style="italic" lengthAdjust="spacingAndGlyphs" textLength="183" x="58.5" y="588.8433">sort(c: Comparator&lt;? super E&gt;)</text><ellipse cx="49.5" cy="599.3398" fill="#84BE84" rx="3" ry="3" style="stroke: #038048; stroke-width: 1.0;"/><text fill="#000000" font-family="sans-serif" font-size="11" font-style="italic" lengthAdjust="spacingAndGlyphs" textLength="251" x="58.5" y="601.6479">subList(fromIndex: int, toIndex: int): List&lt;E&gt;</text><!--class Comparator--><rect fill="#FEFECE" filter="url(#f1cyugvuq1gcqa)" height="52.8047" id="Comparator" style="stroke: #A80036; stroke-width: 1.5;" width="172" x="351" y="492"/><ellipse cx="390.75" cy="508" fill="#B4A7E5" rx="11" ry="11" style="stroke: #A80036; stroke-width: 1.0;"/><path d="M391.7031,504.7813 L391.7031,511.2969 L393.4219,511.2969 C393.875,511.2969 394.0156,511.3281 394.1875,511.4531 C394.4219,511.625 394.5313,511.875 394.5313,512.1563 C394.5313,512.7188 394.1719,513 393.4219,513 L388.2813,513 C387.875,513 387.6719,512.9531 387.5156,512.8281 C387.2969,512.6719 387.1563,512.4063 387.1563,512.1563 C387.1563,511.8594 387.3125,511.5781 387.5625,511.4219 C387.7188,511.3125 387.8438,511.2969 388.2813,511.2969 L390,511.2969 L390,504.7813 L388.2813,504.7813 C387.8594,504.7813 387.6719,504.75 387.5156,504.6406 C387.2969,504.4688 387.1563,504.2188 387.1563,503.9375 C387.1563,503.6563 387.3125,503.3594 387.5625,503.2031 C387.7188,503.1094 387.8438,503.0938 388.2813,503.0938 L393.4219,503.0938 C393.875,503.0938 394.0156,503.125 394.1875,503.2344 C394.4219,503.4063 394.5313,503.6719 394.5313,503.9375 C394.5313,504.2344 394.3906,504.5156 394.125,504.6719 C394,504.75 393.8125,504.7813 393.4219,504.7813 Z "/><text fill="#000000" font-family="sans-serif" font-size="12" font-style="italic" lengthAdjust="spacingAndGlyphs" textLength="74" x="410.25" y="512.1543">Comparator</text><rect fill="#FFFFFF" height="15.9688" style="stroke: #000000; stroke-width: 1.0; stroke-dasharray: 2.0,2.0;" width="9" x="517" y="489"/><text fill="#000000" font-family="sans-serif" font-size="12" font-style="italic" lengthAdjust="spacingAndGlyphs" textLength="7" x="518" y="501.1387">T</text><line style="stroke: #A80036; stroke-width: 1.5;" x1="352" x2="522" y1="524" y2="524"/><ellipse cx="362" cy="535.9023" fill="#84BE84" rx="3" ry="3" style="stroke: #038048; stroke-width: 1.0;"/><text fill="#000000" font-family="sans-serif" font-size="11" font-style="italic" lengthAdjust="spacingAndGlyphs" textLength="146" x="371" y="538.2104">compare(o1: T, o2: T): int</text><!--link List to Comparator--><path d="M315.633,518.5 C325.591,518.5 335.55,518.5 345.508,518.5 " fill="none" id="List-Comparator" style="stroke: #A80036; stroke-width: 1.0; stroke-dasharray: 7.0,7.0;"/><polygon fill="#A80036" points="350.716,518.5,341.716,514.5,345.716,518.5,341.716,522.5,350.716,518.5" style="stroke: #A80036; stroke-width: 1.0;"/><!--link Iterable to Iterator--><path d="M252.164,92 C262.101,92 272.037,92 281.974,92 " fill="none" id="Iterable-Iterator" style="stroke: #A80036; stroke-width: 1.0; stroke-dasharray: 7.0,7.0;"/><polygon fill="#A80036" points="287.17,92,278.17,88,282.17,92,278.17,96,287.17,92" style="stroke: #A80036; stroke-width: 1.0;"/><!--link Collection to List--><path d="M183.427,389.225 C182.761,402.529 182.087,415.974 181.439,428.899 " fill="none" id="Collection-List" style="stroke: #A80036; stroke-width: 1.0;"/><polygon fill="none" points="176.437,388.853,184.429,369.228,190.419,389.553,176.437,388.853" style="stroke: #A80036; stroke-width: 1.0;"/><!--link Iterable to Collection--><path d="M189,138.926 C189,152.882 189,168.739 189,184.591 " fill="none" id="Iterable-Collection" style="stroke: #A80036; stroke-width: 1.0;"/><polygon fill="none" points="182,138.831,189,118.831,196,138.831,182,138.831" style="stroke: #A80036; stroke-width: 1.0;"/><!--
@startuml
package "java.util" {
 interface Iterator<E> {
  {abstract} + hasNext(): boolean
  {abstract} + next(): E
 }
 interface Iterable<E> {
  {abstract} + iterator(): Iterator
 }
 interface Collection<E> {
  {abstract} + contains(e: E): boolean
  {abstract} + containsAll(c: Collection<? extends E>): boolean
  {abstract} + isEmpty(): boolean
  {abstract} + size(): int
....
  {abstract} + add(e: E): boolean
  {abstract} + addAll(c: Collection<? extends E>): boolean
....
  {abstract} + clear()
  {abstract} + remove(o: Object): boolean
  {abstract} + removeAll(c: Collection<?>): boolean
  {abstract} + retainAll(c: Collection<?>): boolean
 }
 interface List<E> {
  {abstract} + indexOf(o: Object): int
  {abstract} + lastIndexOf(o: Object): int
....
  {abstract} + get(index: int): E
  {abstract} + set(index: int, element: E): E
....
  {abstract} + add(index: int, element: E)
  {abstract} + addAll(index: int, c: Collection<?>): boolean
  {abstract} + remove(index: int): E
....
  {abstract} + sort(c: Comparator<? super E>)
  {abstract} + subList(fromIndex: int, toIndex: int): List<E>
 }
 interface Comparator<T> {
  {abstract} + compare(o1: T, o2: T): int
 }
 List .right.> Comparator
 Iterable .right.> Iterator
 List -up-|> Collection
 Collection -up-|> Iterable
}
hide empty attributes
hide empty methods
@enduml

PlantUML version 1.2017.16beta5(Unknown compile time)
(GPL source distribution)
Java Runtime: Java(TM) SE Runtime Environment
JVM: Java HotSpot(TM) 64-Bit Server VM
Java Version: 1.7.0_25-b15
Operating System: Linux
Default Encoding: UTF-8
Language: en
Country: US
--></g></svg>