<?xml version="1.0" encoding="UTF-8" standalone="no"?><svg xmlns="http://www.w3.org/2000/svg" xmlns:xlink="http://www.w3.org/1999/xlink" contentScriptType="application/ecmascript" contentStyleType="text/css" preserveAspectRatio="true" version="1.1" viewBox="0 0 533 373" zoomAndPan="magnify"><defs><filter height="300%" id="f1c5bp91lcrjst" width="300%" x="-1" y="-1"><feGaussianBlur result="blurOut" stdDeviation="2.0"/><feColorMatrix in="blurOut" result="blurOut2" type="matrix" values="0 0 0 0 0 0 0 0 0 0 0 0 0 0 0 0 0 0 .4 0"/><feOffset dx="4.0" dy="4.0" in="blurOut2" result="blurOut3"/><feBlend in="SourceGraphic" in2="blurOut3" mode="normal"/></filter></defs><g><!--cluster java.util--><polygon fill="#FFFFFF" filter="url(#f1c5bp91lcrjst)" points="22,24,88,24,95,46.2969,511,46.2969,511,361,22,361,22,24" style="stroke: #000000; stroke-width: 2.0;"/><line style="stroke: #000000; stroke-width: 2.0;" x1="22" x2="95" y1="46.2969" y2="46.2969"/><text fill="#000000" font-family="sans-serif" font-size="14" font-weight="bold" lengthAdjust="spacingAndGlyphs" textLength="60" x="26" y="38.9951">java.util</text><!--class Map--><rect fill="#FEFECE" filter="url(#f1c5bp91lcrjst)" height="193.6563" id="Map" style="stroke: #A80036; stroke-width: 1.5;" width="271" x="38.5" y="59"/><ellipse cx="144.75" cy="75" fill="#B4A7E5" rx="11" ry="11" style="stroke: #A80036; stroke-width: 1.0;"/><path d="M145.7031,71.7813 L145.7031,78.2969 L147.4219,78.2969 C147.875,78.2969 148.0156,78.3281 148.1875,78.4531 C148.4219,78.625 148.5313,78.875 148.5313,79.1563 C148.5313,79.7188 148.1719,80 147.4219,80 L142.2813,80 C141.875,80 141.6719,79.9531 141.5156,79.8281 C141.2969,79.6719 141.1563,79.4063 141.1563,79.1563 C141.1563,78.8594 141.3125,78.5781 141.5625,78.4219 C141.7188,78.3125 141.8438,78.2969 142.2813,78.2969 L144,78.2969 L144,71.7813 L142.2813,71.7813 C141.8594,71.7813 141.6719,71.75 141.5156,71.6406 C141.2969,71.4688 141.1563,71.2188 141.1563,70.9375 C141.1563,70.6563 141.3125,70.3594 141.5625,70.2031 C141.7188,70.1094 141.8438,70.0938 142.2813,70.0938 L147.4219,70.0938 C147.875,70.0938 148.0156,70.125 148.1875,70.2344 C148.4219,70.4063 148.5313,70.6719 148.5313,70.9375 C148.5313,71.2344 148.3906,71.5156 148.125,71.6719 C148,71.75 147.8125,71.7813 147.4219,71.7813 Z "/><text fill="#000000" font-family="sans-serif" font-size="12" font-style="italic" lengthAdjust="spacingAndGlyphs" textLength="26" x="165.25" y="79.1543">Map</text><rect fill="#FFFFFF" height="15.9688" style="stroke: #000000; stroke-width: 1.0; stroke-dasharray: 2.0,2.0;" width="22" x="290.5" y="56"/><text fill="#000000" font-family="sans-serif" font-size="12" font-style="italic" lengthAdjust="spacingAndGlyphs" textLength="20" x="291.5" y="68.1387">K,V</text><line style="stroke: #A80036; stroke-width: 1.5;" x1="39.5" x2="308.5" y1="91" y2="91"/><ellipse cx="49.5" cy="102.9023" fill="#84BE84" rx="3" ry="3" style="stroke: #038048; stroke-width: 1.0;"/><text fill="#000000" font-family="sans-serif" font-size="11" font-style="italic" lengthAdjust="spacingAndGlyphs" textLength="40" x="58.5" y="105.2104"> clear()</text><ellipse cx="49.5" cy="115.707" fill="#84BE84" rx="3" ry="3" style="stroke: #038048; stroke-width: 1.0;"/><text fill="#000000" font-family="sans-serif" font-size="11" font-style="italic" lengthAdjust="spacingAndGlyphs" textLength="197" x="58.5" y="118.0151"> containsKey(key: Object): boolean</text><ellipse cx="49.5" cy="128.5117" fill="#84BE84" rx="3" ry="3" style="stroke: #038048; stroke-width: 1.0;"/><text fill="#000000" font-family="sans-serif" font-size="11" font-style="italic" lengthAdjust="spacingAndGlyphs" textLength="219" x="58.5" y="130.8198"> containsValue(value: Object): boolean</text><ellipse cx="49.5" cy="141.3164" fill="#84BE84" rx="3" ry="3" style="stroke: #038048; stroke-width: 1.0;"/><text fill="#000000" font-family="sans-serif" font-size="11" font-style="italic" lengthAdjust="spacingAndGlyphs" textLength="202" x="58.5" y="143.6245"> entrySet(): Set&lt;Map.Entry&lt;K, V&gt;&gt;</text><ellipse cx="49.5" cy="154.1211" fill="#84BE84" rx="3" ry="3" style="stroke: #038048; stroke-width: 1.0;"/><text fill="#000000" font-family="sans-serif" font-size="11" font-style="italic" lengthAdjust="spacingAndGlyphs" textLength="110" x="58.5" y="156.4292"> get(key: Object): V</text><ellipse cx="49.5" cy="166.9258" fill="#84BE84" rx="3" ry="3" style="stroke: #038048; stroke-width: 1.0;"/><text fill="#000000" font-family="sans-serif" font-size="11" font-style="italic" lengthAdjust="spacingAndGlyphs" textLength="110" x="58.5" y="169.2339"> isEmpty(): boolean</text><ellipse cx="49.5" cy="179.7305" fill="#84BE84" rx="3" ry="3" style="stroke: #038048; stroke-width: 1.0;"/><text fill="#000000" font-family="sans-serif" font-size="11" font-style="italic" lengthAdjust="spacingAndGlyphs" textLength="101" x="58.5" y="182.0386"> keySet(): Set&lt;K&gt;</text><ellipse cx="49.5" cy="192.5352" fill="#84BE84" rx="3" ry="3" style="stroke: #038048; stroke-width: 1.0;"/><text fill="#000000" font-family="sans-serif" font-size="11" font-style="italic" lengthAdjust="spacingAndGlyphs" textLength="136" x="58.5" y="194.8433"> put(key: K, value: V): V</text><ellipse cx="49.5" cy="205.3398" fill="#84BE84" rx="3" ry="3" style="stroke: #038048; stroke-width: 1.0;"/><text fill="#000000" font-family="sans-serif" font-size="11" font-style="italic" lengthAdjust="spacingAndGlyphs" textLength="245" x="58.5" y="207.6479"> putAll(m: Map&lt;? extends K, ? extends V&gt;)</text><ellipse cx="49.5" cy="218.1445" fill="#84BE84" rx="3" ry="3" style="stroke: #038048; stroke-width: 1.0;"/><text fill="#000000" font-family="sans-serif" font-size="11" font-style="italic" lengthAdjust="spacingAndGlyphs" textLength="136" x="58.5" y="220.4526"> remove(key: Object): V</text><ellipse cx="49.5" cy="230.9492" fill="#84BE84" rx="3" ry="3" style="stroke: #038048; stroke-width: 1.0;"/><text fill="#000000" font-family="sans-serif" font-size="11" font-style="italic" lengthAdjust="spacingAndGlyphs" textLength="56" x="58.5" y="233.2573"> size(): int</text><ellipse cx="49.5" cy="243.7539" fill="#84BE84" rx="3" ry="3" style="stroke: #038048; stroke-width: 1.0;"/><text fill="#000000" font-family="sans-serif" font-size="11" font-style="italic" lengthAdjust="spacingAndGlyphs" textLength="138" x="58.5" y="246.062"> values(): Collection&lt;V&gt;</text><!--class Entry--><rect fill="#FEFECE" filter="url(#f1c5bp91lcrjst)" height="78.4141" id="Entry" style="stroke: #A80036; stroke-width: 1.5;" width="150" x="345" y="117"/><ellipse cx="387.45" cy="133" fill="#B4A7E5" rx="11" ry="11" style="stroke: #A80036; stroke-width: 1.0;"/><path d="M388.4031,129.7813 L388.4031,136.2969 L390.1219,136.2969 C390.575,136.2969 390.7156,136.3281 390.8875,136.4531 C391.1219,136.625 391.2313,136.875 391.2313,137.1563 C391.2313,137.7188 390.8719,138 390.1219,138 L384.9813,138 C384.575,138 384.3719,137.9531 384.2156,137.8281 C383.9969,137.6719 383.8563,137.4063 383.8563,137.1563 C383.8563,136.8594 384.0125,136.5781 384.2625,136.4219 C384.4188,136.3125 384.5438,136.2969 384.9813,136.2969 L386.7,136.2969 L386.7,129.7813 L384.9813,129.7813 C384.5594,129.7813 384.3719,129.75 384.2156,129.6406 C383.9969,129.4688 383.8563,129.2188 383.8563,128.9375 C383.8563,128.6563 384.0125,128.3594 384.2625,128.2031 C384.4188,128.1094 384.5438,128.0938 384.9813,128.0938 L390.1219,128.0938 C390.575,128.0938 390.7156,128.125 390.8875,128.2344 C391.1219,128.4063 391.2313,128.6719 391.2313,128.9375 C391.2313,129.2344 391.0906,129.5156 390.825,129.6719 C390.7,129.75 390.5125,129.7813 390.1219,129.7813 Z "/><text fill="#000000" font-family="sans-serif" font-size="12" font-style="italic" lengthAdjust="spacingAndGlyphs" textLength="33" x="407.55" y="137.1543">Entry</text><rect fill="#FFFFFF" height="15.9688" style="stroke: #000000; stroke-width: 1.0; stroke-dasharray: 2.0,2.0;" width="22" x="476" y="114"/><text fill="#000000" font-family="sans-serif" font-size="12" font-style="italic" lengthAdjust="spacingAndGlyphs" textLength="20" x="477" y="126.1387">K,V</text><line style="stroke: #A80036; stroke-width: 1.5;" x1="346" x2="494" y1="149" y2="149"/><ellipse cx="356" cy="160.9023" fill="#84BE84" rx="3" ry="3" style="stroke: #038048; stroke-width: 1.0;"/><text fill="#000000" font-family="sans-serif" font-size="11" font-style="italic" lengthAdjust="spacingAndGlyphs" textLength="66" x="365" y="163.2104"> getKey(): K</text><ellipse cx="356" cy="173.707" fill="#84BE84" rx="3" ry="3" style="stroke: #038048; stroke-width: 1.0;"/><text fill="#000000" font-family="sans-serif" font-size="11" font-style="italic" lengthAdjust="spacingAndGlyphs" textLength="78" x="365" y="176.0151"> getValue(): V</text><ellipse cx="356" cy="186.5117" fill="#84BE84" rx="3" ry="3" style="stroke: #038048; stroke-width: 1.0;"/><text fill="#000000" font-family="sans-serif" font-size="11" font-style="italic" lengthAdjust="spacingAndGlyphs" textLength="124" x="365" y="188.8198"> setValue(value: V): V</text><!--class HashMap--><rect fill="#FEFECE" filter="url(#f1c5bp91lcrjst)" height="32" id="HashMap" style="stroke: #A80036; stroke-width: 1.5;" width="114" x="117" y="313"/><ellipse cx="132" cy="329" fill="#ADD1B2" rx="11" ry="11" style="stroke: #A80036; stroke-width: 1.0;"/><path d="M134.3438,324.6719 L134.5156,324.75 C134.7344,324.4375 134.9375,324.3438 135.2344,324.3438 C135.5313,324.3438 135.8125,324.4844 135.9688,324.75 C136.0625,324.9063 136.0781,325.0313 136.0781,325.4688 L136.0781,326.8906 C136.0781,327.3125 136.0469,327.5 135.9375,327.6563 C135.7656,327.875 135.5,328.0156 135.2344,328.0156 C135.0156,328.0156 134.7813,327.9063 134.6406,327.7656 C134.5,327.6406 134.4688,327.5156 134.4063,327.1094 C134.3125,326.7031 134.1406,326.4844 133.6563,326.2031 C133.1875,325.9531 132.5781,325.7969 132,325.7969 C130.2656,325.7969 129.0156,327.1094 129.0156,328.8906 L129.0156,329.9844 C129.0156,331.6875 130.3125,332.7813 132.3594,332.7813 C133.125,332.7813 133.8125,332.6563 134.2344,332.3906 C134.4219,332.2969 134.4219,332.2969 134.875,331.8125 C135.0625,331.625 135.2656,331.5469 135.4844,331.5469 C135.9531,331.5469 136.3438,331.9375 136.3438,332.3906 C136.3438,332.7813 136.0156,333.2344 135.4375,333.6406 C134.6875,334.1875 133.5313,334.4844 132.3125,334.4844 C129.4219,334.4844 127.3125,332.5938 127.3125,330.0156 L127.3125,328.8906 C127.3125,326.1719 129.3125,324.0938 131.9375,324.0938 C132.8125,324.0938 133.4063,324.2344 134.3438,324.6719 Z "/><text fill="#000000" font-family="sans-serif" font-size="12" lengthAdjust="spacingAndGlyphs" textLength="58" x="146" y="333.1543">HashMap</text><rect fill="#FFFFFF" height="15.9688" style="stroke: #000000; stroke-width: 1.0; stroke-dasharray: 2.0,2.0;" width="22" x="212" y="310"/><text fill="#000000" font-family="sans-serif" font-size="12" font-style="italic" lengthAdjust="spacingAndGlyphs" textLength="20" x="213" y="322.1387">K,V</text><!--link Map to Entry--><path d="M325.203,156 C331.731,156 338.258,156 344.786,156 " fill="none" id="Map-Entry" style="stroke: #A80036; stroke-width: 1.0;"/><ellipse cx="317.973" cy="156" fill="#FFFFFF" rx="8" ry="8" style="stroke: #A80036; stroke-width: 1.0;"/><line style="stroke: #A80036; stroke-width: 1.0;" x1="325.973" x2="309.973" y1="156" y2="156"/><line style="stroke: #A80036; stroke-width: 1.0;" x1="317.973" x2="317.973" y1="164" y2="148"/><!--link Map to HashMap--><path d="M174,273.668 C174,289.0782 174,302.9231 174,312.7803 " fill="none" id="Map-HashMap" style="stroke: #A80036; stroke-width: 1.0;"/><polygon fill="none" points="167,273.494,174,253.494,181,273.494,167,273.494" style="stroke: #A80036; stroke-width: 1.0;"/><!--
@startuml
package "java.util" {
 interface Map<K,V> {
  + {abstract} clear()
  + {abstract} containsKey(key: Object): boolean
  + {abstract} containsValue(value: Object): boolean
  + {abstract} entrySet(): Set<Map.Entry<K, V>>
  + {abstract} get(key: Object): V
  + {abstract} isEmpty(): boolean
  + {abstract} keySet(): Set<K>
  + {abstract} put(key: K, value: V): V
  + {abstract} putAll(m: Map<? extends K, ? extends V>)
  + {abstract} remove(key: Object): V
  + {abstract} size(): int
  + {abstract} values(): Collection<V>
 }
 interface Entry<K,V> {
  + {abstract} getKey(): K
  + {abstract} getValue(): V
  + {abstract} setValue(value: V): V
 }
 class HashMap<K,V>
}
Map +- Entry
HashMap -up-|> Map
hide empty attributes
hide empty methods
@enduml

PlantUML version 1.2017.16(Sun Sep 03 10:53:37 UTC 2017)
(GPL source distribution)
Java Runtime: Java(TM) SE Runtime Environment
JVM: Java HotSpot(TM) 64-Bit Server VM
Java Version: 1.7.0_25-b15
Operating System: Linux
Default Encoding: UTF-8
Language: en
Country: US
--></g></svg>