<?xml version="1.0" encoding="UTF-8" standalone="no"?><svg xmlns="http://www.w3.org/2000/svg" xmlns:xlink="http://www.w3.org/1999/xlink" contentScriptType="application/ecmascript" contentStyleType="text/css" preserveAspectRatio="true" version="1.1" viewBox="0 0 668 266" zoomAndPan="magnify"><defs><filter height="300%" id="f1wjvllph4yw8w" width="300%" x="-1" y="-1"><feGaussianBlur result="blurOut" stdDeviation="2.0"/><feColorMatrix in="blurOut" result="blurOut2" type="matrix" values="0 0 0 0 0 0 0 0 0 0 0 0 0 0 0 0 0 0 .4 0"/><feOffset dx="4.0" dy="4.0" in="blurOut2" result="blurOut3"/><feBlend in="SourceGraphic" in2="blurOut3" mode="normal"/></filter></defs><g><!--cluster java.lang--><polygon fill="#FFFFFF" filter="url(#f1wjvllph4yw8w)" points="22,30.5,97,30.5,104,52.7969,240,52.7969,240,243.5,22,243.5,22,30.5" style="stroke: #000000; stroke-width: 2.0;"/><line style="stroke: #000000; stroke-width: 2.0;" x1="22" x2="104" y1="52.7969" y2="52.7969"/><text fill="#000000" font-family="sans-serif" font-size="14" font-weight="bold" lengthAdjust="spacingAndGlyphs" textLength="69" x="26" y="45.4951">java.lang</text><!--cluster java.util--><polygon fill="#FFFFFF" filter="url(#f1wjvllph4yw8w)" points="264,24,330,24,337,46.2969,646,46.2969,646,254,264,254,264,24" style="stroke: #000000; stroke-width: 2.0;"/><line style="stroke: #000000; stroke-width: 2.0;" x1="264" x2="337" y1="46.2969" y2="46.2969"/><text fill="#000000" font-family="sans-serif" font-size="14" font-weight="bold" lengthAdjust="spacingAndGlyphs" textLength="60" x="268" y="38.9951">java.util</text><!--class Comparable--><rect fill="#FEFECE" filter="url(#f1wjvllph4yw8w)" height="52.8047" id="Comparable" style="stroke: #A80036; stroke-width: 1.5;" width="142" x="60" y="65.5"/><ellipse cx="85.8" cy="81.5" fill="#B4A7E5" rx="11" ry="11" style="stroke: #A80036; stroke-width: 1.0;"/><path d="M86.7531,78.2813 L86.7531,84.7969 L88.4719,84.7969 C88.925,84.7969 89.0656,84.8281 89.2375,84.9531 C89.4719,85.125 89.5813,85.375 89.5813,85.6563 C89.5813,86.2188 89.2219,86.5 88.4719,86.5 L83.3313,86.5 C82.925,86.5 82.7219,86.4531 82.5656,86.3281 C82.3469,86.1719 82.2063,85.9063 82.2063,85.6563 C82.2063,85.3594 82.3625,85.0781 82.6125,84.9219 C82.7688,84.8125 82.8938,84.7969 83.3313,84.7969 L85.05,84.7969 L85.05,78.2813 L83.3313,78.2813 C82.9094,78.2813 82.7219,78.25 82.5656,78.1406 C82.3469,77.9688 82.2063,77.7188 82.2063,77.4375 C82.2063,77.1563 82.3625,76.8594 82.6125,76.7031 C82.7688,76.6094 82.8938,76.5938 83.3313,76.5938 L88.4719,76.5938 C88.925,76.5938 89.0656,76.625 89.2375,76.7344 C89.4719,76.9063 89.5813,77.1719 89.5813,77.4375 C89.5813,77.7344 89.4406,78.0156 89.175,78.1719 C89.05,78.25 88.8625,78.2813 88.4719,78.2813 Z "/><text fill="#000000" font-family="sans-serif" font-size="12" font-style="italic" lengthAdjust="spacingAndGlyphs" textLength="75" x="102.2" y="85.6543">Comparable</text><rect fill="#FFFFFF" height="15.9688" style="stroke: #000000; stroke-width: 1.0; stroke-dasharray: 2.0,2.0;" width="9" x="196" y="62.5"/><text fill="#000000" font-family="sans-serif" font-size="12" font-style="italic" lengthAdjust="spacingAndGlyphs" textLength="7" x="197" y="74.6387">T</text><line style="stroke: #A80036; stroke-width: 1.5;" x1="61" x2="201" y1="97.5" y2="97.5"/><ellipse cx="71" cy="109.4023" fill="#84BE84" rx="3" ry="3" style="stroke: #038048; stroke-width: 1.0;"/><text fill="#000000" font-family="sans-serif" font-size="11" font-style="italic" lengthAdjust="spacingAndGlyphs" textLength="116" x="80" y="111.7104">compareTo(o: T): int</text><!--class String--><rect fill="#FEFECE" filter="url(#f1wjvllph4yw8w)" height="32" id="String" style="stroke: #A80036; stroke-width: 1.5;" width="69" x="38.5" y="195.5"/><ellipse cx="53.5" cy="211.5" fill="#ADD1B2" rx="11" ry="11" style="stroke: #A80036; stroke-width: 1.0;"/><path d="M55.8438,207.1719 L56.0156,207.25 C56.2344,206.9375 56.4375,206.8438 56.7344,206.8438 C57.0313,206.8438 57.3125,206.9844 57.4688,207.25 C57.5625,207.4063 57.5781,207.5313 57.5781,207.9688 L57.5781,209.3906 C57.5781,209.8125 57.5469,210 57.4375,210.1563 C57.2656,210.375 57,210.5156 56.7344,210.5156 C56.5156,210.5156 56.2813,210.4063 56.1406,210.2656 C56,210.1406 55.9688,210.0156 55.9063,209.6094 C55.8125,209.2031 55.6406,208.9844 55.1563,208.7031 C54.6875,208.4531 54.0781,208.2969 53.5,208.2969 C51.7656,208.2969 50.5156,209.6094 50.5156,211.3906 L50.5156,212.4844 C50.5156,214.1875 51.8125,215.2813 53.8594,215.2813 C54.625,215.2813 55.3125,215.1563 55.7344,214.8906 C55.9219,214.7969 55.9219,214.7969 56.375,214.3125 C56.5625,214.125 56.7656,214.0469 56.9844,214.0469 C57.4531,214.0469 57.8438,214.4375 57.8438,214.8906 C57.8438,215.2813 57.5156,215.7344 56.9375,216.1406 C56.1875,216.6875 55.0313,216.9844 53.8125,216.9844 C50.9219,216.9844 48.8125,215.0938 48.8125,212.5156 L48.8125,211.3906 C48.8125,208.6719 50.8125,206.5938 53.4375,206.5938 C54.3125,206.5938 54.9063,206.7344 55.8438,207.1719 Z "/><text fill="#000000" font-family="sans-serif" font-size="12" lengthAdjust="spacingAndGlyphs" textLength="37" x="67.5" y="215.6543">String</text><!--class Number--><rect fill="#FEFECE" filter="url(#f1wjvllph4yw8w)" height="32" id="Number" style="stroke: #A80036; stroke-width: 1.5;" width="81" x="142.5" y="195.5"/><ellipse cx="157.5" cy="211.5" fill="#ADD1B2" rx="11" ry="11" style="stroke: #A80036; stroke-width: 1.0;"/><path d="M159.8438,207.1719 L160.0156,207.25 C160.2344,206.9375 160.4375,206.8438 160.7344,206.8438 C161.0313,206.8438 161.3125,206.9844 161.4688,207.25 C161.5625,207.4063 161.5781,207.5313 161.5781,207.9688 L161.5781,209.3906 C161.5781,209.8125 161.5469,210 161.4375,210.1563 C161.2656,210.375 161,210.5156 160.7344,210.5156 C160.5156,210.5156 160.2813,210.4063 160.1406,210.2656 C160,210.1406 159.9688,210.0156 159.9063,209.6094 C159.8125,209.2031 159.6406,208.9844 159.1563,208.7031 C158.6875,208.4531 158.0781,208.2969 157.5,208.2969 C155.7656,208.2969 154.5156,209.6094 154.5156,211.3906 L154.5156,212.4844 C154.5156,214.1875 155.8125,215.2813 157.8594,215.2813 C158.625,215.2813 159.3125,215.1563 159.7344,214.8906 C159.9219,214.7969 159.9219,214.7969 160.375,214.3125 C160.5625,214.125 160.7656,214.0469 160.9844,214.0469 C161.4531,214.0469 161.8438,214.4375 161.8438,214.8906 C161.8438,215.2813 161.5156,215.7344 160.9375,216.1406 C160.1875,216.6875 159.0313,216.9844 157.8125,216.9844 C154.9219,216.9844 152.8125,215.0938 152.8125,212.5156 L152.8125,211.3906 C152.8125,208.6719 154.8125,206.5938 157.4375,206.5938 C158.3125,206.5938 158.9063,206.7344 159.8438,207.1719 Z "/><text fill="#000000" font-family="sans-serif" font-size="12" lengthAdjust="spacingAndGlyphs" textLength="49" x="171.5" y="215.6543">Number</text><!--class Collections--><rect fill="#FEFECE" filter="url(#f1wjvllph4yw8w)" height="65.6094" id="Collections" style="stroke: #A80036; stroke-width: 1.5;" width="350" x="280" y="59"/><ellipse cx="416.75" cy="75" fill="#ADD1B2" rx="11" ry="11" style="stroke: #A80036; stroke-width: 1.0;"/><path d="M419.0938,70.6719 L419.2656,70.75 C419.4844,70.4375 419.6875,70.3438 419.9844,70.3438 C420.2813,70.3438 420.5625,70.4844 420.7188,70.75 C420.8125,70.9063 420.8281,71.0313 420.8281,71.4688 L420.8281,72.8906 C420.8281,73.3125 420.7969,73.5 420.6875,73.6563 C420.5156,73.875 420.25,74.0156 419.9844,74.0156 C419.7656,74.0156 419.5313,73.9063 419.3906,73.7656 C419.25,73.6406 419.2188,73.5156 419.1563,73.1094 C419.0625,72.7031 418.8906,72.4844 418.4063,72.2031 C417.9375,71.9531 417.3281,71.7969 416.75,71.7969 C415.0156,71.7969 413.7656,73.1094 413.7656,74.8906 L413.7656,75.9844 C413.7656,77.6875 415.0625,78.7813 417.1094,78.7813 C417.875,78.7813 418.5625,78.6563 418.9844,78.3906 C419.1719,78.2969 419.1719,78.2969 419.625,77.8125 C419.8125,77.625 420.0156,77.5469 420.2344,77.5469 C420.7031,77.5469 421.0938,77.9375 421.0938,78.3906 C421.0938,78.7813 420.7656,79.2344 420.1875,79.6406 C419.4375,80.1875 418.2813,80.4844 417.0625,80.4844 C414.1719,80.4844 412.0625,78.5938 412.0625,76.0156 L412.0625,74.8906 C412.0625,72.1719 414.0625,70.0938 416.6875,70.0938 C417.5625,70.0938 418.1563,70.2344 419.0938,70.6719 Z "/><text fill="#000000" font-family="sans-serif" font-size="12" lengthAdjust="spacingAndGlyphs" textLength="68" x="437.25" y="79.1543">Collections</text><line style="stroke: #A80036; stroke-width: 1.5;" x1="281" x2="629" y1="91" y2="91"/><ellipse cx="291" cy="102.9023" fill="#84BE84" rx="3" ry="3" style="stroke: #038048; stroke-width: 1.0;"/><text fill="#000000" font-family="sans-serif" font-size="11" lengthAdjust="spacingAndGlyphs" text-decoration="underline" textLength="324" x="300" y="105.2104">&lt;T extends Comparable&lt;? super T&gt;&gt; sort(list: List&lt;T&gt;)</text><line style="stroke: #000000; stroke-width: 1.0;" x1="300" x2="624" y1="107.2104" y2="107.2104"/><ellipse cx="291" cy="115.707" fill="#84BE84" rx="3" ry="3" style="stroke: #038048; stroke-width: 1.0;"/><text fill="#000000" font-family="sans-serif" font-size="11" lengthAdjust="spacingAndGlyphs" text-decoration="underline" textLength="292" x="300" y="118.0151">&lt;T&gt; sort(list: List&lt;T&gt;, c: Comparator&lt;? super T&gt;)</text><line style="stroke: #000000; stroke-width: 1.0;" x1="300" x2="592" y1="120.0151" y2="120.0151"/><!--class List--><rect fill="#FEFECE" filter="url(#f1wjvllph4yw8w)" height="32" id="List" style="stroke: #A80036; stroke-width: 1.5;" width="65" x="318.5" y="195.5"/><ellipse cx="333.5" cy="211.5" fill="#B4A7E5" rx="11" ry="11" style="stroke: #A80036; stroke-width: 1.0;"/><path d="M334.4531,208.2813 L334.4531,214.7969 L336.1719,214.7969 C336.625,214.7969 336.7656,214.8281 336.9375,214.9531 C337.1719,215.125 337.2813,215.375 337.2813,215.6563 C337.2813,216.2188 336.9219,216.5 336.1719,216.5 L331.0313,216.5 C330.625,216.5 330.4219,216.4531 330.2656,216.3281 C330.0469,216.1719 329.9063,215.9063 329.9063,215.6563 C329.9063,215.3594 330.0625,215.0781 330.3125,214.9219 C330.4688,214.8125 330.5938,214.7969 331.0313,214.7969 L332.75,214.7969 L332.75,208.2813 L331.0313,208.2813 C330.6094,208.2813 330.4219,208.25 330.2656,208.1406 C330.0469,207.9688 329.9063,207.7188 329.9063,207.4375 C329.9063,207.1563 330.0625,206.8594 330.3125,206.7031 C330.4688,206.6094 330.5938,206.5938 331.0313,206.5938 L336.1719,206.5938 C336.625,206.5938 336.7656,206.625 336.9375,206.7344 C337.1719,206.9063 337.2813,207.1719 337.2813,207.4375 C337.2813,207.7344 337.1406,208.0156 336.875,208.1719 C336.75,208.25 336.5625,208.2813 336.1719,208.2813 Z "/><text fill="#000000" font-family="sans-serif" font-size="12" font-style="italic" lengthAdjust="spacingAndGlyphs" textLength="21" x="347.5" y="215.6543">List</text><rect fill="#FFFFFF" height="15.9688" style="stroke: #000000; stroke-width: 1.0; stroke-dasharray: 2.0,2.0;" width="10" x="376.5" y="192.5"/><text fill="#000000" font-family="sans-serif" font-size="12" font-style="italic" lengthAdjust="spacingAndGlyphs" textLength="8" x="377.5" y="204.6387">E</text><!--class Comparator--><rect fill="#FEFECE" filter="url(#f1wjvllph4yw8w)" height="52.8047" id="Comparator" style="stroke: #A80036; stroke-width: 1.5;" width="172" x="419" y="185"/><ellipse cx="458.75" cy="201" fill="#B4A7E5" rx="11" ry="11" style="stroke: #A80036; stroke-width: 1.0;"/><path d="M459.7031,197.7813 L459.7031,204.2969 L461.4219,204.2969 C461.875,204.2969 462.0156,204.3281 462.1875,204.4531 C462.4219,204.625 462.5313,204.875 462.5313,205.1563 C462.5313,205.7188 462.1719,206 461.4219,206 L456.2813,206 C455.875,206 455.6719,205.9531 455.5156,205.8281 C455.2969,205.6719 455.1563,205.4063 455.1563,205.1563 C455.1563,204.8594 455.3125,204.5781 455.5625,204.4219 C455.7188,204.3125 455.8438,204.2969 456.2813,204.2969 L458,204.2969 L458,197.7813 L456.2813,197.7813 C455.8594,197.7813 455.6719,197.75 455.5156,197.6406 C455.2969,197.4688 455.1563,197.2188 455.1563,196.9375 C455.1563,196.6563 455.3125,196.3594 455.5625,196.2031 C455.7188,196.1094 455.8438,196.0938 456.2813,196.0938 L461.4219,196.0938 C461.875,196.0938 462.0156,196.125 462.1875,196.2344 C462.4219,196.4063 462.5313,196.6719 462.5313,196.9375 C462.5313,197.2344 462.3906,197.5156 462.125,197.6719 C462,197.75 461.8125,197.7813 461.4219,197.7813 Z "/><text fill="#000000" font-family="sans-serif" font-size="12" font-style="italic" lengthAdjust="spacingAndGlyphs" textLength="74" x="478.25" y="205.1543">Comparator</text><rect fill="#FFFFFF" height="15.9688" style="stroke: #000000; stroke-width: 1.0; stroke-dasharray: 2.0,2.0;" width="9" x="585" y="182"/><text fill="#000000" font-family="sans-serif" font-size="12" font-style="italic" lengthAdjust="spacingAndGlyphs" textLength="7" x="586" y="194.1387">T</text><line style="stroke: #A80036; stroke-width: 1.5;" x1="420" x2="590" y1="217" y2="217"/><ellipse cx="430" cy="228.9023" fill="#84BE84" rx="3" ry="3" style="stroke: #038048; stroke-width: 1.0;"/><text fill="#000000" font-family="sans-serif" font-size="11" font-style="italic" lengthAdjust="spacingAndGlyphs" textLength="146" x="439" y="231.2104">compare(o1: T, o2: T): int</text><!--link Comparable to String--><path d="M109.323,136.915 C99.2147,157.393 87.8367,180.4428 80.5523,195.2001 " fill="none" id="Comparable-String" style="stroke: #A80036; stroke-width: 1.0; stroke-dasharray: 7.0,7.0;"/><polygon fill="none" points="103.1421,133.622,118.272,118.786,115.696,139.818,103.1421,133.622" style="stroke: #A80036; stroke-width: 1.0;"/><!--link Comparable to Number--><path d="M150.574,137.23 C159.602,157.629 169.732,180.5185 176.229,195.2001 " fill="none" id="Comparable-Number" style="stroke: #A80036; stroke-width: 1.0; stroke-dasharray: 7.0,7.0;"/><polygon fill="none" points="144.104,139.908,142.412,118.786,156.907,134.242,144.104,139.908" style="stroke: #A80036; stroke-width: 1.0;"/><!--link Collections to List--><path d="M426.582,125.107 C407.795,146.333 383.798,173.4444 367.942,191.3591 " fill="none" id="Collections-List" style="stroke: #A80036; stroke-width: 1.0; stroke-dasharray: 7.0,7.0;"/><polygon fill="#A80036" points="364.49,195.2594,373.4502,191.1711,367.8038,191.5153,367.4596,185.8689,364.49,195.2594" style="stroke: #A80036; stroke-width: 1.0;"/><!--link Collections to Comparator--><path d="M468.663,125.107 C475.957,142.249 484.886,163.231 492.066,180.1062 " fill="none" id="Collections-Comparator" style="stroke: #A80036; stroke-width: 1.0; stroke-dasharray: 7.0,7.0;"/><polygon fill="#A80036" points="494.043,184.7505,494.1989,174.9029,492.0849,180.1499,486.8379,178.0359,494.043,184.7505" style="stroke: #A80036; stroke-width: 1.0;"/><!--
@startuml
package "java.lang" {
 interface Comparable<T> {
  {abstract} + compareTo(o: T): int
 }
 class String
 class Number
 String .up.|> Comparable
 Number .up.|> Comparable
}
package "java.util" {
 class Collections {
  {static} + <T extends Comparable<? super T>> sort(list: List<T>)
  {static} + <T> sort(list: List<T>, c: Comparator<? super T>)
 }
 interface List<E>
 interface Comparator<T> {
  {abstract} + compare(o1: T, o2: T): int
 }
 Collections ..> List
 Collections ..> Comparator
}
hide empty attributes
hide empty methods
@enduml

PlantUML version 1.2017.16beta5(Unknown compile time)
(GPL source distribution)
Java Runtime: Java(TM) SE Runtime Environment
JVM: Java HotSpot(TM) 64-Bit Server VM
Java Version: 1.7.0_25-b15
Operating System: Linux
Default Encoding: UTF-8
Language: en
Country: US
--></g></svg>