<?xml version="1.0" encoding="UTF-8" standalone="no"?><svg xmlns="http://www.w3.org/2000/svg" xmlns:xlink="http://www.w3.org/1999/xlink" contentScriptType="application/ecmascript" contentStyleType="text/css" preserveAspectRatio="true" version="1.1" viewBox="0 0 378 594" zoomAndPan="magnify"><defs><filter height="300%" id="fbr5bqbx7zdzu" width="300%" x="-1" y="-1"><feGaussianBlur result="blurOut" stdDeviation="2.0"/><feColorMatrix in="blurOut" result="blurOut2" type="matrix" values="0 0 0 0 0 0 0 0 0 0 0 0 0 0 0 0 0 0 .4 0"/><feOffset dx="4.0" dy="4.0" in="blurOut2" result="blurOut3"/><feBlend in="SourceGraphic" in2="blurOut3" mode="normal"/></filter></defs><g><!--cluster java.util--><polygon fill="#FFFFFF" filter="url(#fbr5bqbx7zdzu)" points="22,24,88,24,95,46.2969,356,46.2969,356,582,22,582,22,24" style="stroke: #000000; stroke-width: 2.0;"/><line style="stroke: #000000; stroke-width: 2.0;" x1="22" x2="95" y1="46.2969" y2="46.2969"/><text fill="#000000" font-family="sans-serif" font-size="14" font-weight="bold" lengthAdjust="spacingAndGlyphs" textLength="60" x="26" y="38.9951">java.util</text><!--class Iterator--><rect fill="#FEFECE" filter="url(#fbr5bqbx7zdzu)" height="65.6094" id="Iterator" style="stroke: #A80036; stroke-width: 1.5;" width="133" x="206.5" y="59"/><ellipse cx="239.95" cy="75" fill="#B4A7E5" rx="11" ry="11" style="stroke: #A80036; stroke-width: 1.0;"/><path d="M240.9031,71.7813 L240.9031,78.2969 L242.6219,78.2969 C243.075,78.2969 243.2156,78.3281 243.3875,78.4531 C243.6219,78.625 243.7313,78.875 243.7313,79.1563 C243.7313,79.7188 243.3719,80 242.6219,80 L237.4813,80 C237.075,80 236.8719,79.9531 236.7156,79.8281 C236.4969,79.6719 236.3563,79.4063 236.3563,79.1563 C236.3563,78.8594 236.5125,78.5781 236.7625,78.4219 C236.9188,78.3125 237.0438,78.2969 237.4813,78.2969 L239.2,78.2969 L239.2,71.7813 L237.4813,71.7813 C237.0594,71.7813 236.8719,71.75 236.7156,71.6406 C236.4969,71.4688 236.3563,71.2188 236.3563,70.9375 C236.3563,70.6563 236.5125,70.3594 236.7625,70.2031 C236.9188,70.1094 237.0438,70.0938 237.4813,70.0938 L242.6219,70.0938 C243.075,70.0938 243.2156,70.125 243.3875,70.2344 C243.6219,70.4063 243.7313,70.6719 243.7313,70.9375 C243.7313,71.2344 243.5906,71.5156 243.325,71.6719 C243.2,71.75 243.0125,71.7813 242.6219,71.7813 Z "/><text fill="#000000" font-family="sans-serif" font-size="12" font-style="italic" lengthAdjust="spacingAndGlyphs" textLength="48" x="258.05" y="79.1543">Iterator</text><rect fill="#FFFFFF" height="15.9688" style="stroke: #000000; stroke-width: 1.0; stroke-dasharray: 2.0,2.0;" width="10" x="332.5" y="56"/><text fill="#000000" font-family="sans-serif" font-size="12" font-style="italic" lengthAdjust="spacingAndGlyphs" textLength="8" x="333.5" y="68.1387">E</text><line style="stroke: #A80036; stroke-width: 1.5;" x1="207.5" x2="338.5" y1="91" y2="91"/><ellipse cx="217.5" cy="102.9023" fill="#84BE84" rx="3" ry="3" style="stroke: #038048; stroke-width: 1.0;"/><text fill="#000000" font-family="sans-serif" font-size="11" font-style="italic" lengthAdjust="spacingAndGlyphs" textLength="107" x="226.5" y="105.2104">hasNext(): boolean</text><ellipse cx="217.5" cy="115.707" fill="#84BE84" rx="3" ry="3" style="stroke: #038048; stroke-width: 1.0;"/><text fill="#000000" font-family="sans-serif" font-size="11" font-style="italic" lengthAdjust="spacingAndGlyphs" textLength="48" x="226.5" y="118.0151">next(): E</text><!--class Iterable--><rect fill="#FEFECE" filter="url(#fbr5bqbx7zdzu)" height="52.8047" id="Iterable" style="stroke: #A80036; stroke-width: 1.5;" width="126" x="45" y="65.5"/><ellipse cx="74.85" cy="81.5" fill="#B4A7E5" rx="11" ry="11" style="stroke: #A80036; stroke-width: 1.0;"/><path d="M75.8031,78.2813 L75.8031,84.7969 L77.5219,84.7969 C77.975,84.7969 78.1156,84.8281 78.2875,84.9531 C78.5219,85.125 78.6313,85.375 78.6313,85.6563 C78.6313,86.2188 78.2719,86.5 77.5219,86.5 L72.3813,86.5 C71.975,86.5 71.7719,86.4531 71.6156,86.3281 C71.3969,86.1719 71.2563,85.9063 71.2563,85.6563 C71.2563,85.3594 71.4125,85.0781 71.6625,84.9219 C71.8188,84.8125 71.9438,84.7969 72.3813,84.7969 L74.1,84.7969 L74.1,78.2813 L72.3813,78.2813 C71.9594,78.2813 71.7719,78.25 71.6156,78.1406 C71.3969,77.9688 71.2563,77.7188 71.2563,77.4375 C71.2563,77.1563 71.4125,76.8594 71.6625,76.7031 C71.8188,76.6094 71.9438,76.5938 72.3813,76.5938 L77.5219,76.5938 C77.975,76.5938 78.1156,76.625 78.2875,76.7344 C78.5219,76.9063 78.6313,77.1719 78.6313,77.4375 C78.6313,77.7344 78.4906,78.0156 78.225,78.1719 C78.1,78.25 77.9125,78.2813 77.5219,78.2813 Z "/><text fill="#000000" font-family="sans-serif" font-size="12" font-style="italic" lengthAdjust="spacingAndGlyphs" textLength="49" x="92.15" y="85.6543">Iterable</text><rect fill="#FFFFFF" height="15.9688" style="stroke: #000000; stroke-width: 1.0; stroke-dasharray: 2.0,2.0;" width="10" x="164" y="62.5"/><text fill="#000000" font-family="sans-serif" font-size="12" font-style="italic" lengthAdjust="spacingAndGlyphs" textLength="8" x="165" y="74.6387">E</text><line style="stroke: #A80036; stroke-width: 1.5;" x1="46" x2="170" y1="97.5" y2="97.5"/><ellipse cx="56" cy="109.4023" fill="#84BE84" rx="3" ry="3" style="stroke: #038048; stroke-width: 1.0;"/><text fill="#000000" font-family="sans-serif" font-size="11" font-style="italic" lengthAdjust="spacingAndGlyphs" textLength="100" x="65" y="111.7104">iterator(): Iterator</text><!--class Collection--><rect fill="#FEFECE" filter="url(#fbr5bqbx7zdzu)" height="196.8516" id="Collection" style="stroke: #A80036; stroke-width: 1.5;" width="301" x="38.5" y="185"/><ellipse cx="148.25" cy="201" fill="#B4A7E5" rx="11" ry="11" style="stroke: #A80036; stroke-width: 1.0;"/><path d="M149.2031,197.7813 L149.2031,204.2969 L150.9219,204.2969 C151.375,204.2969 151.5156,204.3281 151.6875,204.4531 C151.9219,204.625 152.0313,204.875 152.0313,205.1563 C152.0313,205.7188 151.6719,206 150.9219,206 L145.7813,206 C145.375,206 145.1719,205.9531 145.0156,205.8281 C144.7969,205.6719 144.6563,205.4063 144.6563,205.1563 C144.6563,204.8594 144.8125,204.5781 145.0625,204.4219 C145.2188,204.3125 145.3438,204.2969 145.7813,204.2969 L147.5,204.2969 L147.5,197.7813 L145.7813,197.7813 C145.3594,197.7813 145.1719,197.75 145.0156,197.6406 C144.7969,197.4688 144.6563,197.2188 144.6563,196.9375 C144.6563,196.6563 144.8125,196.3594 145.0625,196.2031 C145.2188,196.1094 145.3438,196.0938 145.7813,196.0938 L150.9219,196.0938 C151.375,196.0938 151.5156,196.125 151.6875,196.2344 C151.9219,196.4063 152.0313,196.6719 152.0313,196.9375 C152.0313,197.2344 151.8906,197.5156 151.625,197.6719 C151.5,197.75 151.3125,197.7813 150.9219,197.7813 Z "/><text fill="#000000" font-family="sans-serif" font-size="12" font-style="italic" lengthAdjust="spacingAndGlyphs" textLength="61" x="168.75" y="205.1543">Collection</text><rect fill="#FFFFFF" height="15.9688" style="stroke: #000000; stroke-width: 1.0; stroke-dasharray: 2.0,2.0;" width="10" x="332.5" y="182"/><text fill="#000000" font-family="sans-serif" font-size="12" font-style="italic" lengthAdjust="spacingAndGlyphs" textLength="8" x="333.5" y="194.1387">E</text><line style="stroke: #A80036; stroke-width: 1.5;" x1="39.5" x2="338.5" y1="217" y2="217"/><ellipse cx="49.5" cy="228.9023" fill="#84BE84" rx="3" ry="3" style="stroke: #038048; stroke-width: 1.0;"/><text fill="#000000" font-family="sans-serif" font-size="11" font-style="italic" lengthAdjust="spacingAndGlyphs" textLength="130" x="58.5" y="231.2104">contains(e: E): boolean</text><ellipse cx="49.5" cy="241.707" fill="#84BE84" rx="3" ry="3" style="stroke: #038048; stroke-width: 1.0;"/><text fill="#000000" font-family="sans-serif" font-size="11" font-style="italic" lengthAdjust="spacingAndGlyphs" textLength="275" x="58.5" y="244.0151">containsAll(c: Collection&lt;? extends E&gt;): boolean</text><ellipse cx="49.5" cy="254.5117" fill="#84BE84" rx="3" ry="3" style="stroke: #038048; stroke-width: 1.0;"/><text fill="#000000" font-family="sans-serif" font-size="11" font-style="italic" lengthAdjust="spacingAndGlyphs" textLength="106" x="58.5" y="256.8198">isEmpty(): boolean</text><ellipse cx="49.5" cy="267.3164" fill="#84BE84" rx="3" ry="3" style="stroke: #038048; stroke-width: 1.0;"/><text fill="#000000" font-family="sans-serif" font-size="11" font-style="italic" lengthAdjust="spacingAndGlyphs" textLength="52" x="58.5" y="269.6245">size(): int</text><line style="stroke: #A80036; stroke-width: 1.0; stroke-dasharray: 1.0,2.0;" x1="39.5" x2="338.5" y1="276.2188" y2="276.2188"/><ellipse cx="49.5" cy="288.1211" fill="#84BE84" rx="3" ry="3" style="stroke: #038048; stroke-width: 1.0;"/><text fill="#000000" font-family="sans-serif" font-size="11" font-style="italic" lengthAdjust="spacingAndGlyphs" textLength="104" x="58.5" y="290.4292">add(e: E): boolean</text><ellipse cx="49.5" cy="300.9258" fill="#84BE84" rx="3" ry="3" style="stroke: #038048; stroke-width: 1.0;"/><text fill="#000000" font-family="sans-serif" font-size="11" font-style="italic" lengthAdjust="spacingAndGlyphs" textLength="249" x="58.5" y="303.2339">addAll(c: Collection&lt;? extends E&gt;): boolean</text><line style="stroke: #A80036; stroke-width: 1.0; stroke-dasharray: 1.0,2.0;" x1="39.5" x2="338.5" y1="309.8281" y2="309.8281"/><ellipse cx="49.5" cy="321.7305" fill="#84BE84" rx="3" ry="3" style="stroke: #038048; stroke-width: 1.0;"/><text fill="#000000" font-family="sans-serif" font-size="11" font-style="italic" lengthAdjust="spacingAndGlyphs" textLength="36" x="58.5" y="324.0386">clear()</text><ellipse cx="49.5" cy="334.5352" fill="#84BE84" rx="3" ry="3" style="stroke: #038048; stroke-width: 1.0;"/><text fill="#000000" font-family="sans-serif" font-size="11" font-style="italic" lengthAdjust="spacingAndGlyphs" textLength="156" x="58.5" y="336.8433">remove(o: Object): boolean</text><ellipse cx="49.5" cy="347.3398" fill="#84BE84" rx="3" ry="3" style="stroke: #038048; stroke-width: 1.0;"/><text fill="#000000" font-family="sans-serif" font-size="11" font-style="italic" lengthAdjust="spacingAndGlyphs" textLength="212" x="58.5" y="349.6479">removeAll(c: Collection&lt;?&gt;): boolean</text><ellipse cx="49.5" cy="360.1445" fill="#84BE84" rx="3" ry="3" style="stroke: #038048; stroke-width: 1.0;"/><text fill="#000000" font-family="sans-serif" font-size="11" font-style="italic" lengthAdjust="spacingAndGlyphs" textLength="201" x="58.5" y="362.4526">retainAll(c: Collection&lt;?&gt;): boolean</text><text fill="#000000" font-family="sans-serif" font-size="11" lengthAdjust="spacingAndGlyphs" textLength="107" x="58.5" y="375.2573">class HashSet&lt;E&gt;</text><!--class Set--><rect fill="#FEFECE" filter="url(#fbr5bqbx7zdzu)" height="32" id="Set" style="stroke: #A80036; stroke-width: 1.5;" width="65" x="156.5" y="442"/><ellipse cx="171.5" cy="458" fill="#B4A7E5" rx="11" ry="11" style="stroke: #A80036; stroke-width: 1.0;"/><path d="M172.4531,454.7813 L172.4531,461.2969 L174.1719,461.2969 C174.625,461.2969 174.7656,461.3281 174.9375,461.4531 C175.1719,461.625 175.2813,461.875 175.2813,462.1563 C175.2813,462.7188 174.9219,463 174.1719,463 L169.0313,463 C168.625,463 168.4219,462.9531 168.2656,462.8281 C168.0469,462.6719 167.9063,462.4063 167.9063,462.1563 C167.9063,461.8594 168.0625,461.5781 168.3125,461.4219 C168.4688,461.3125 168.5938,461.2969 169.0313,461.2969 L170.75,461.2969 L170.75,454.7813 L169.0313,454.7813 C168.6094,454.7813 168.4219,454.75 168.2656,454.6406 C168.0469,454.4688 167.9063,454.2188 167.9063,453.9375 C167.9063,453.6563 168.0625,453.3594 168.3125,453.2031 C168.4688,453.1094 168.5938,453.0938 169.0313,453.0938 L174.1719,453.0938 C174.625,453.0938 174.7656,453.125 174.9375,453.2344 C175.1719,453.4063 175.2813,453.6719 175.2813,453.9375 C175.2813,454.2344 175.1406,454.5156 174.875,454.6719 C174.75,454.75 174.5625,454.7813 174.1719,454.7813 Z "/><text fill="#000000" font-family="sans-serif" font-size="12" font-style="italic" lengthAdjust="spacingAndGlyphs" textLength="21" x="185.5" y="462.1543">Set</text><rect fill="#FFFFFF" height="15.9688" style="stroke: #000000; stroke-width: 1.0; stroke-dasharray: 2.0,2.0;" width="10" x="214.5" y="439"/><text fill="#000000" font-family="sans-serif" font-size="12" font-style="italic" lengthAdjust="spacingAndGlyphs" textLength="8" x="215.5" y="451.1387">E</text><!--class HashSet--><rect fill="#FEFECE" filter="url(#fbr5bqbx7zdzu)" height="32" id="HashSet" style="stroke: #A80036; stroke-width: 1.5;" width="85" x="146.5" y="534"/><ellipse cx="161.5" cy="550" fill="#ADD1B2" rx="11" ry="11" style="stroke: #A80036; stroke-width: 1.0;"/><path d="M163.8438,545.6719 L164.0156,545.75 C164.2344,545.4375 164.4375,545.3438 164.7344,545.3438 C165.0313,545.3438 165.3125,545.4844 165.4688,545.75 C165.5625,545.9063 165.5781,546.0313 165.5781,546.4688 L165.5781,547.8906 C165.5781,548.3125 165.5469,548.5 165.4375,548.6563 C165.2656,548.875 165,549.0156 164.7344,549.0156 C164.5156,549.0156 164.2813,548.9063 164.1406,548.7656 C164,548.6406 163.9688,548.5156 163.9063,548.1094 C163.8125,547.7031 163.6406,547.4844 163.1563,547.2031 C162.6875,546.9531 162.0781,546.7969 161.5,546.7969 C159.7656,546.7969 158.5156,548.1094 158.5156,549.8906 L158.5156,550.9844 C158.5156,552.6875 159.8125,553.7813 161.8594,553.7813 C162.625,553.7813 163.3125,553.6563 163.7344,553.3906 C163.9219,553.2969 163.9219,553.2969 164.375,552.8125 C164.5625,552.625 164.7656,552.5469 164.9844,552.5469 C165.4531,552.5469 165.8438,552.9375 165.8438,553.3906 C165.8438,553.7813 165.5156,554.2344 164.9375,554.6406 C164.1875,555.1875 163.0313,555.4844 161.8125,555.4844 C158.9219,555.4844 156.8125,553.5938 156.8125,551.0156 L156.8125,549.8906 C156.8125,547.1719 158.8125,545.0938 161.4375,545.0938 C162.3125,545.0938 162.9063,545.2344 163.8438,545.6719 Z "/><text fill="#000000" font-family="sans-serif" font-size="12" lengthAdjust="spacingAndGlyphs" textLength="53" x="175.5" y="554.1543">HashSet</text><!--link Iterable to Iterator--><path d="M171.164,92 C181.101,92 191.037,92 200.974,92 " fill="none" id="Iterable-Iterator" style="stroke: #A80036; stroke-width: 1.0; stroke-dasharray: 7.0,7.0;"/><polygon fill="#A80036" points="206.17,92,197.17,88,201.17,92,197.17,96,206.17,92" style="stroke: #A80036; stroke-width: 1.0;"/><!--link Collection to Set--><path d="M189,402.255 C189,417.951 189,432.033 189,441.983 " fill="none" id="Collection-Set" style="stroke: #A80036; stroke-width: 1.0;"/><polygon fill="none" points="182,402.092,189,382.092,196,402.092,182,402.092" style="stroke: #A80036; stroke-width: 1.0;"/><!--link Iterable to Collection--><path d="M126.868,137.141 C132.991,151.467 140.049,167.979 147.162,184.619 " fill="none" id="Iterable-Collection" style="stroke: #A80036; stroke-width: 1.0;"/><polygon fill="none" points="120.348,139.699,118.924,118.557,133.222,134.196,120.348,139.699" style="stroke: #A80036; stroke-width: 1.0;"/><!--link Set to HashSet--><path d="M189,494.615 C189,508.3102 189,523.2196 189,533.9582 " fill="none" id="Set-HashSet" style="stroke: #A80036; stroke-width: 1.0; stroke-dasharray: 7.0,7.0;"/><polygon fill="none" points="182,494.267,189,474.267,196,494.267,182,494.267" style="stroke: #A80036; stroke-width: 1.0;"/><!--
@startuml
package "java.util" {
 interface Iterator<E> {
  {abstract} + hasNext(): boolean
  {abstract} + next(): E
 }
 interface Iterable<E> {
  {abstract} + iterator(): Iterator
 }
 interface Collection<E> {
  {abstract} + contains(e: E): boolean
  {abstract} + containsAll(c: Collection<? extends E>): boolean
  {abstract} + isEmpty(): boolean
  {abstract} + size(): int
....
  {abstract} + add(e: E): boolean
  {abstract} + addAll(c: Collection<? extends E>): boolean
....
  {abstract} + clear()
  {abstract} + remove(o: Object): boolean
  {abstract} + removeAll(c: Collection<?>): boolean
  {abstract} + retainAll(c: Collection<?>): boolean
  class HashSet<E>
 }
 interface Set<E>
 Iterable .right.> Iterator
 Set -up-|> Collection
 Collection -up-|> Iterable
 HashSet .up.|> Set
}
hide empty attributes
hide empty methods
@enduml

PlantUML version 1.2017.16(Sun Sep 03 10:53:37 UTC 2017)
(GPL source distribution)
Java Runtime: Java(TM) SE Runtime Environment
JVM: Java HotSpot(TM) 64-Bit Server VM
Java Version: 1.7.0_25-b15
Operating System: Linux
Default Encoding: UTF-8
Language: en
Country: US
--></g></svg>