<?xml version="1.0" encoding="UTF-8" standalone="no"?><svg xmlns="http://www.w3.org/2000/svg" xmlns:xlink="http://www.w3.org/1999/xlink" contentScriptType="application/ecmascript" contentStyleType="text/css" preserveAspectRatio="none" version="1.1" viewBox="0 0 634 406" zoomAndPan="magnify"><defs><filter height="300%" id="f1zzob31s9683" width="300%" x="-1" y="-1"><feGaussianBlur result="blurOut" stdDeviation="2.0"/><feColorMatrix in="blurOut" result="blurOut2" type="matrix" values="0 0 0 0 0 0 0 0 0 0 0 0 0 0 0 0 0 0 .4 0"/><feOffset dx="4.0" dy="4.0" in="blurOut2" result="blurOut3"/><feBlend in="SourceGraphic" in2="blurOut3" mode="normal"/></filter></defs><g><!--cluster java.util.stream--><polygon fill="#FFFFFF" filter="url(#f1zzob31s9683)" points="22,24,148,24,155,46.2969,612,46.2969,612,394,22,394,22,24" style="stroke: #000000; stroke-width: 2.0;"/><line style="stroke: #000000; stroke-width: 2.0;" x1="22" x2="155" y1="46.2969" y2="46.2969"/><text fill="#000000" font-family="sans-serif" font-size="14" font-weight="bold" lengthAdjust="spacingAndGlyphs" textLength="120" x="26" y="38.9951">java.util.stream</text><!--class Collector--><rect fill="#FEFECE" filter="url(#f1zzob31s9683)" height="91.2188" id="Collector" style="stroke: #A80036; stroke-width: 1.5;" width="222" x="206" y="59"/><ellipse cx="263.75" cy="75" fill="#B4A7E5" rx="11" ry="11" style="stroke: #A80036; stroke-width: 1.0;"/><path d="M264.7031,71.7813 L264.7031,78.2969 L266.4219,78.2969 C266.875,78.2969 267.0156,78.3281 267.1875,78.4531 C267.4219,78.625 267.5313,78.875 267.5313,79.1563 C267.5313,79.7188 267.1719,80 266.4219,80 L261.2813,80 C260.875,80 260.6719,79.9531 260.5156,79.8281 C260.2969,79.6719 260.1563,79.4063 260.1563,79.1563 C260.1563,78.8594 260.3125,78.5781 260.5625,78.4219 C260.7188,78.3125 260.8438,78.2969 261.2813,78.2969 L263,78.2969 L263,71.7813 L261.2813,71.7813 C260.8594,71.7813 260.6719,71.75 260.5156,71.6406 C260.2969,71.4688 260.1563,71.2188 260.1563,70.9375 C260.1563,70.6563 260.3125,70.3594 260.5625,70.2031 C260.7188,70.1094 260.8438,70.0938 261.2813,70.0938 L266.4219,70.0938 C266.875,70.0938 267.0156,70.125 267.1875,70.2344 C267.4219,70.4063 267.5313,70.6719 267.5313,70.9375 C267.5313,71.2344 267.3906,71.5156 267.125,71.6719 C267,71.75 266.8125,71.7813 266.4219,71.7813 Z "/><text fill="#000000" font-family="sans-serif" font-size="12" font-style="italic" lengthAdjust="spacingAndGlyphs" textLength="55" x="284.25" y="79.1543">Collector</text><rect fill="#FFFFFF" height="15.9688" style="stroke: #000000; stroke-width: 1.0; stroke-dasharray: 2.0,2.0;" width="41" x="390" y="56"/><text fill="#000000" font-family="sans-serif" font-size="12" font-style="italic" lengthAdjust="spacingAndGlyphs" textLength="39" x="391" y="68.1387">T, A, R</text><line style="stroke: #A80036; stroke-width: 1.5;" x1="207" x2="427" y1="91" y2="91"/><ellipse cx="217" cy="102.9023" fill="#84BE84" rx="3" ry="3" style="stroke: #038048; stroke-width: 1.0;"/><text fill="#000000" font-family="sans-serif" font-size="11" font-style="italic" lengthAdjust="spacingAndGlyphs" textLength="137" x="226" y="105.2104"> supplier(): Supplier&lt;A&gt;</text><ellipse cx="217" cy="115.707" fill="#84BE84" rx="3" ry="3" style="stroke: #038048; stroke-width: 1.0;"/><text fill="#000000" font-family="sans-serif" font-size="11" font-style="italic" lengthAdjust="spacingAndGlyphs" textLength="196" x="226" y="118.0151">accumulator(): BiConsumer&lt;A, T&gt;</text><ellipse cx="217" cy="128.5117" fill="#84BE84" rx="3" ry="3" style="stroke: #038048; stroke-width: 1.0;"/><text fill="#000000" font-family="sans-serif" font-size="11" font-style="italic" lengthAdjust="spacingAndGlyphs" textLength="183" x="226" y="130.8198">combiner(): BinaryOperator&lt;A&gt;</text><ellipse cx="217" cy="141.3164" fill="#84BE84" rx="3" ry="3" style="stroke: #038048; stroke-width: 1.0;"/><text fill="#000000" font-family="sans-serif" font-size="11" font-style="italic" lengthAdjust="spacingAndGlyphs" textLength="147" x="226" y="143.6245">finisher(): Function&lt;A, R&gt;</text><!--class Collectors--><rect fill="#FEFECE" filter="url(#f1zzob31s9683)" height="168.0469" id="Collectors" style="stroke: #A80036; stroke-width: 1.5;" width="557" x="38.5" y="210"/><ellipse cx="281.75" cy="226" fill="#ADD1B2" rx="11" ry="11" style="stroke: #A80036; stroke-width: 1.0;"/><path d="M284.0938,221.6719 L284.2656,221.75 C284.4844,221.4375 284.6875,221.3438 284.9844,221.3438 C285.2813,221.3438 285.5625,221.4844 285.7188,221.75 C285.8125,221.9063 285.8281,222.0313 285.8281,222.4688 L285.8281,223.8906 C285.8281,224.3125 285.7969,224.5 285.6875,224.6563 C285.5156,224.875 285.25,225.0156 284.9844,225.0156 C284.7656,225.0156 284.5313,224.9063 284.3906,224.7656 C284.25,224.6406 284.2188,224.5156 284.1563,224.1094 C284.0625,223.7031 283.8906,223.4844 283.4063,223.2031 C282.9375,222.9531 282.3281,222.7969 281.75,222.7969 C280.0156,222.7969 278.7656,224.1094 278.7656,225.8906 L278.7656,226.9844 C278.7656,228.6875 280.0625,229.7813 282.1094,229.7813 C282.875,229.7813 283.5625,229.6563 283.9844,229.3906 C284.1719,229.2969 284.1719,229.2969 284.625,228.8125 C284.8125,228.625 285.0156,228.5469 285.2344,228.5469 C285.7031,228.5469 286.0938,228.9375 286.0938,229.3906 C286.0938,229.7813 285.7656,230.2344 285.1875,230.6406 C284.4375,231.1875 283.2813,231.4844 282.0625,231.4844 C279.1719,231.4844 277.0625,229.5938 277.0625,227.0156 L277.0625,225.8906 C277.0625,223.1719 279.0625,221.0938 281.6875,221.0938 C282.5625,221.0938 283.1563,221.2344 284.0938,221.6719 Z "/><text fill="#000000" font-family="sans-serif" font-size="12" lengthAdjust="spacingAndGlyphs" textLength="62" x="302.25" y="230.1543">Collectors</text><line style="stroke: #A80036; stroke-width: 1.5;" x1="39.5" x2="594.5" y1="242" y2="242"/><ellipse cx="49.5" cy="253.9023" fill="#84BE84" rx="3" ry="3" style="stroke: #038048; stroke-width: 1.0;"/><text fill="#000000" font-family="sans-serif" font-size="11" lengthAdjust="spacingAndGlyphs" text-decoration="underline" textLength="188" x="58.5" y="256.2104">counting(): Collector&lt;T, ?, Long&gt;</text><line style="stroke: #000000; stroke-width: 1.0;" x1="58.5" x2="246.5" y1="258.2104" y2="258.2104"/><ellipse cx="49.5" cy="266.707" fill="#84BE84" rx="3" ry="3" style="stroke: #038048; stroke-width: 1.0;"/><text fill="#000000" font-family="sans-serif" font-size="11" lengthAdjust="spacingAndGlyphs" text-decoration="underline" textLength="531" x="58.5" y="269.0151">groupingBy(classifier: Function&lt;? super T, ? extends K&gt;): Collector&lt;T, ?, Map&lt;K, List&lt;T&gt;&gt;&gt;</text><line style="stroke: #000000; stroke-width: 1.0;" x1="58.5" x2="589.5" y1="271.0151" y2="271.0151"/><ellipse cx="49.5" cy="279.5117" fill="#84BE84" rx="3" ry="3" style="stroke: #038048; stroke-width: 1.0;"/><text fill="#000000" font-family="sans-serif" font-size="11" lengthAdjust="spacingAndGlyphs" text-decoration="underline" textLength="260" x="58.5" y="281.8198">joining(): Collector&lt;CharSequence, ?, String&gt;</text><line style="stroke: #000000; stroke-width: 1.0;" x1="58.5" x2="318.5" y1="283.8198" y2="283.8198"/><ellipse cx="49.5" cy="292.3164" fill="#84BE84" rx="3" ry="3" style="stroke: #038048; stroke-width: 1.0;"/><text fill="#000000" font-family="sans-serif" font-size="11" lengthAdjust="spacingAndGlyphs" text-decoration="underline" textLength="401" x="58.5" y="294.6245">joining(delimiter: CharSequence): Collector&lt;CharSequence, ?, String&gt;</text><line style="stroke: #000000; stroke-width: 1.0;" x1="58.5" x2="459.5" y1="296.6245" y2="296.6245"/><ellipse cx="49.5" cy="305.1211" fill="#84BE84" rx="3" ry="3" style="stroke: #038048; stroke-width: 1.0;"/><text fill="#000000" font-family="sans-serif" font-size="11" lengthAdjust="spacingAndGlyphs" text-decoration="underline" textLength="517" x="58.5" y="307.4292">partitioningBy(predicate: Predicate&lt;? super T&gt;): Collector&lt;T, ?, Map&lt;Boolean, List&lt;T&gt;&gt;&gt;</text><line style="stroke: #000000; stroke-width: 1.0;" x1="58.5" x2="575.5" y1="309.4292" y2="309.4292"/><ellipse cx="49.5" cy="317.9258" fill="#84BE84" rx="3" ry="3" style="stroke: #038048; stroke-width: 1.0;"/><text fill="#000000" font-family="sans-serif" font-size="11" lengthAdjust="spacingAndGlyphs" text-decoration="underline" textLength="362" x="58.5" y="320.2339">toCollection(collectionFactory: Supplier&lt;C&gt;): Collector&lt;T, ?, C&gt;</text><line style="stroke: #000000; stroke-width: 1.0;" x1="58.5" x2="420.5" y1="322.2339" y2="322.2339"/><ellipse cx="49.5" cy="330.7305" fill="#84BE84" rx="3" ry="3" style="stroke: #038048; stroke-width: 1.0;"/><text fill="#000000" font-family="sans-serif" font-size="11" lengthAdjust="spacingAndGlyphs" text-decoration="underline" textLength="189" x="58.5" y="333.0386">toList(): Collector&lt;T, ?, List&lt;T&gt;&gt;</text><line style="stroke: #000000; stroke-width: 1.0;" x1="58.5" x2="247.5" y1="335.0386" y2="335.0386"/><ellipse cx="49.5" cy="343.5352" fill="#84BE84" rx="3" ry="3" style="stroke: #038048; stroke-width: 1.0;"/><text fill="#000000" font-family="sans-serif" font-size="11" lengthAdjust="spacingAndGlyphs" text-decoration="underline" textLength="187" x="58.5" y="345.8433">toSet(): Collector&lt;T, ?, Set&lt;T&gt;&gt;</text><line style="stroke: #000000; stroke-width: 1.0;" x1="58.5" x2="245.5" y1="347.8433" y2="347.8433"/><ellipse cx="49.5" cy="362.7422" fill="#84BE84" rx="3" ry="3" style="stroke: #038048; stroke-width: 1.0;"/><text fill="#000000" font-family="sans-serif" font-size="11" lengthAdjust="spacingAndGlyphs" text-decoration="underline" textLength="304" x="58.5" y="358.6479">toMap(keyMapper: Function&lt;? super T, ? extends K&gt;,</text><line style="stroke: #000000; stroke-width: 1.0;" x1="58.5" x2="362.5" y1="360.6479" y2="360.6479"/><text fill="#000000" font-family="sans-serif" font-size="11" lengthAdjust="spacingAndGlyphs" text-decoration="underline" textLength="427" x="90.5" y="371.4526">valueMapper: Function&lt;? super T, ? extends U&gt;): Collector&lt;T, ?, Set&lt;T&gt;&gt;</text><line style="stroke: #000000; stroke-width: 1.0;" x1="90.5" x2="517.5" y1="373.4526" y2="373.4526"/><!--link Collector to Collectors--><path d="M317,155.522 C317,172.249 317,191.37 317,209.925 " fill="none" id="Collector-Collectors" style="stroke: #A80036; stroke-width: 1.0; stroke-dasharray: 7.0,7.0;"/><polygon fill="#A80036" points="317,150.411,313,159.411,317,155.411,321,159.411,317,150.411" style="stroke: #A80036; stroke-width: 1.0;"/><!--
@startuml
package "java.util.stream" {
 interface Collector<T, A, R> {
  + {abstract} supplier(): Supplier<A>
  + {abstract} accumulator(): BiConsumer<A, T>
  + {abstract} combiner(): BinaryOperator<A>
  + {abstract} finisher(): Function<A, R>
 }
 class Collectors {
  + {static} counting(): Collector<T, ?, Long>
  + {static} groupingBy(classifier: Function<? super T, ? extends K>): Collector<T, ?, Map<K, List<T>>>
  + {static} joining(): Collector<CharSequence, ?, String>
  + {static} joining(delimiter: CharSequence): Collector<CharSequence, ?, String>
  + {static} partitioningBy(predicate: Predicate<? super T>): Collector<T, ?, Map<Boolean, List<T>>>
  + {static} toCollection(collectionFactory: Supplier<C>): Collector<T, ?, C>
  + {static} toList(): Collector<T, ?, List<T>>
  + {static} toSet(): Collector<T, ?, Set<T>>
  + {static} toMap(keyMapper: Function<? super T, ? extends K>,\n\tvalueMapper: Function<? super T, ? extends U>): Collector<T, ?, Set<T>>
 }
 Collectors .up.> Collector
}

hide empty attributes
hide empty methods
@enduml

PlantUML version 1.2017.20beta4(Unknown compile time)
(GPL source distribution)
Java Runtime: Java(TM) SE Runtime Environment
JVM: Java HotSpot(TM) 64-Bit Server VM
Java Version: 1.7.0_25-b15
Operating System: Linux
Default Encoding: UTF-8
Language: en
Country: US
--></g></svg>