<?xml version="1.0" encoding="UTF-8" standalone="no"?><svg xmlns="http://www.w3.org/2000/svg" xmlns:xlink="http://www.w3.org/1999/xlink" contentScriptType="application/ecmascript" contentStyleType="text/css" preserveAspectRatio="none" version="1.1" viewBox="0 0 823 548" zoomAndPan="magnify"><defs><filter height="300%" id="f1kb2f4uhy757d" width="300%" x="-1" y="-1"><feGaussianBlur result="blurOut" stdDeviation="2.0"/><feColorMatrix in="blurOut" result="blurOut2" type="matrix" values="0 0 0 0 0 0 0 0 0 0 0 0 0 0 0 0 0 0 .4 0"/><feOffset dx="4.0" dy="4.0" in="blurOut2" result="blurOut3"/><feBlend in="SourceGraphic" in2="blurOut3" mode="normal"/></filter></defs><g><!--cluster java--><polygon fill="#FFFFFF" filter="url(#f1kb2f4uhy757d)" points="22,24,59,24,66,46.2969,801,46.2969,801,536,22,536,22,24" style="stroke: #000000; stroke-width: 2.0;"/><line style="stroke: #000000; stroke-width: 2.0;" x1="22" x2="66" y1="46.2969" y2="46.2969"/><text fill="#000000" font-family="sans-serif" font-size="14" font-weight="bold" lengthAdjust="spacingAndGlyphs" textLength="31" x="26" y="38.9951">java</text><!--cluster lang--><polygon fill="#FFFFFF" filter="url(#f1kb2f4uhy757d)" points="83,408,122,408,129,430.2969,207,430.2969,207,512,83,512,83,408" style="stroke: #000000; stroke-width: 2.0;"/><line style="stroke: #000000; stroke-width: 2.0;" x1="83" x2="129" y1="430.2969" y2="430.2969"/><text fill="#000000" font-family="sans-serif" font-size="14" font-weight="bold" lengthAdjust="spacingAndGlyphs" textLength="33" x="87" y="422.9951">lang</text><!--cluster util--><polygon fill="#FFFFFF" filter="url(#f1kb2f4uhy757d)" points="46,67,76,67,83,89.2969,777,89.2969,777,384,46,384,46,67" style="stroke: #000000; stroke-width: 2.0;"/><line style="stroke: #000000; stroke-width: 2.0;" x1="46" x2="83" y1="89.2969" y2="89.2969"/><text fill="#000000" font-family="sans-serif" font-size="14" font-weight="bold" lengthAdjust="spacingAndGlyphs" textLength="24" x="50" y="81.9951">util</text><!--cluster function--><polygon fill="#FFFFFF" filter="url(#f1kb2f4uhy757d)" points="247,110,318,110,325,132.2969,753,132.2969,753,360,247,360,247,110" style="stroke: #000000; stroke-width: 2.0;"/><line style="stroke: #000000; stroke-width: 2.0;" x1="247" x2="325" y1="132.2969" y2="132.2969"/><text fill="#000000" font-family="sans-serif" font-size="14" font-weight="bold" lengthAdjust="spacingAndGlyphs" textLength="65" x="251" y="124.9951">function</text><!--cluster concurrent--><polygon fill="#FFFFFF" filter="url(#f1kb2f4uhy757d)" points="82,110,176,110,183,132.2969,208,132.2969,208,214,82,214,82,110" style="stroke: #000000; stroke-width: 2.0;"/><line style="stroke: #000000; stroke-width: 2.0;" x1="82" x2="183" y1="132.2969" y2="132.2969"/><text fill="#000000" font-family="sans-serif" font-size="14" font-weight="bold" lengthAdjust="spacingAndGlyphs" textLength="88" x="86" y="124.9951">concurrent</text><!--class Runnable--><rect fill="#FEFECE" filter="url(#f1kb2f4uhy757d)" height="52.8047" id="Runnable" style="stroke: #A80036; stroke-width: 1.5;" width="91" x="99.5" y="443"/><ellipse cx="114.5" cy="459" fill="#B4A7E5" rx="11" ry="11" style="stroke: #A80036; stroke-width: 1.0;"/><path d="M115.4531,455.7813 L115.4531,462.2969 L117.1719,462.2969 C117.625,462.2969 117.7656,462.3281 117.9375,462.4531 C118.1719,462.625 118.2813,462.875 118.2813,463.1563 C118.2813,463.7188 117.9219,464 117.1719,464 L112.0313,464 C111.625,464 111.4219,463.9531 111.2656,463.8281 C111.0469,463.6719 110.9063,463.4063 110.9063,463.1563 C110.9063,462.8594 111.0625,462.5781 111.3125,462.4219 C111.4688,462.3125 111.5938,462.2969 112.0313,462.2969 L113.75,462.2969 L113.75,455.7813 L112.0313,455.7813 C111.6094,455.7813 111.4219,455.75 111.2656,455.6406 C111.0469,455.4688 110.9063,455.2188 110.9063,454.9375 C110.9063,454.6563 111.0625,454.3594 111.3125,454.2031 C111.4688,454.1094 111.5938,454.0938 112.0313,454.0938 L117.1719,454.0938 C117.625,454.0938 117.7656,454.125 117.9375,454.2344 C118.1719,454.4063 118.2813,454.6719 118.2813,454.9375 C118.2813,455.2344 118.1406,455.5156 117.875,455.6719 C117.75,455.75 117.5625,455.7813 117.1719,455.7813 Z "/><text fill="#000000" font-family="sans-serif" font-size="12" font-style="italic" lengthAdjust="spacingAndGlyphs" textLength="59" x="128.5" y="463.1543">Runnable</text><line style="stroke: #A80036; stroke-width: 1.5;" x1="100.5" x2="189.5" y1="475" y2="475"/><ellipse cx="110.5" cy="486.9023" fill="#84BE84" rx="3" ry="3" style="stroke: #038048; stroke-width: 1.0;"/><text fill="#000000" font-family="sans-serif" font-size="11" font-style="italic" lengthAdjust="spacingAndGlyphs" textLength="27" x="119.5" y="489.2104">run()</text><!--class Comparator--><rect fill="#FEFECE" filter="url(#f1kb2f4uhy757d)" height="52.8047" id="Comparator" style="stroke: #A80036; stroke-width: 1.5;" width="166" x="62" y="274.5"/><ellipse cx="99.05" cy="290.5" fill="#B4A7E5" rx="11" ry="11" style="stroke: #A80036; stroke-width: 1.0;"/><path d="M100.0031,287.2813 L100.0031,293.7969 L101.7219,293.7969 C102.175,293.7969 102.3156,293.8281 102.4875,293.9531 C102.7219,294.125 102.8313,294.375 102.8313,294.6563 C102.8313,295.2188 102.4719,295.5 101.7219,295.5 L96.5813,295.5 C96.175,295.5 95.9719,295.4531 95.8156,295.3281 C95.5969,295.1719 95.4563,294.9063 95.4563,294.6563 C95.4563,294.3594 95.6125,294.0781 95.8625,293.9219 C96.0188,293.8125 96.1438,293.7969 96.5813,293.7969 L98.3,293.7969 L98.3,287.2813 L96.5813,287.2813 C96.1594,287.2813 95.9719,287.25 95.8156,287.1406 C95.5969,286.9688 95.4563,286.7188 95.4563,286.4375 C95.4563,286.1563 95.6125,285.8594 95.8625,285.7031 C96.0188,285.6094 96.1438,285.5938 96.5813,285.5938 L101.7219,285.5938 C102.175,285.5938 102.3156,285.625 102.4875,285.7344 C102.7219,285.9063 102.8313,286.1719 102.8313,286.4375 C102.8313,286.7344 102.6906,287.0156 102.425,287.1719 C102.3,287.25 102.1125,287.2813 101.7219,287.2813 Z "/><text fill="#000000" font-family="sans-serif" font-size="12" font-style="italic" lengthAdjust="spacingAndGlyphs" textLength="74" x="117.95" y="294.6543">Comparator</text><rect fill="#FFFFFF" height="15.9688" style="stroke: #000000; stroke-width: 1.0; stroke-dasharray: 2.0,2.0;" width="9" x="222" y="271.5"/><text fill="#000000" font-family="sans-serif" font-size="12" font-style="italic" lengthAdjust="spacingAndGlyphs" textLength="7" x="223" y="283.6387">T</text><line style="stroke: #A80036; stroke-width: 1.5;" x1="63" x2="227" y1="306.5" y2="306.5"/><ellipse cx="73" cy="318.4023" fill="#84BE84" rx="3" ry="3" style="stroke: #038048; stroke-width: 1.0;"/><text fill="#000000" font-family="sans-serif" font-size="11" font-style="italic" lengthAdjust="spacingAndGlyphs" textLength="140" x="82" y="320.7104">compare(t1: T, t2: T): int</text><!--class Function--><rect fill="#FEFECE" filter="url(#f1kb2f4uhy757d)" height="52.8047" id="Function" style="stroke: #A80036; stroke-width: 1.5;" width="109" x="274.5" y="145"/><ellipse cx="289.5" cy="161" fill="#B4A7E5" rx="11" ry="11" style="stroke: #A80036; stroke-width: 1.0;"/><path d="M290.4531,157.7813 L290.4531,164.2969 L292.1719,164.2969 C292.625,164.2969 292.7656,164.3281 292.9375,164.4531 C293.1719,164.625 293.2813,164.875 293.2813,165.1563 C293.2813,165.7188 292.9219,166 292.1719,166 L287.0313,166 C286.625,166 286.4219,165.9531 286.2656,165.8281 C286.0469,165.6719 285.9063,165.4063 285.9063,165.1563 C285.9063,164.8594 286.0625,164.5781 286.3125,164.4219 C286.4688,164.3125 286.5938,164.2969 287.0313,164.2969 L288.75,164.2969 L288.75,157.7813 L287.0313,157.7813 C286.6094,157.7813 286.4219,157.75 286.2656,157.6406 C286.0469,157.4688 285.9063,157.2188 285.9063,156.9375 C285.9063,156.6563 286.0625,156.3594 286.3125,156.2031 C286.4688,156.1094 286.5938,156.0938 287.0313,156.0938 L292.1719,156.0938 C292.625,156.0938 292.7656,156.125 292.9375,156.2344 C293.1719,156.4063 293.2813,156.6719 293.2813,156.9375 C293.2813,157.2344 293.1406,157.5156 292.875,157.6719 C292.75,157.75 292.5625,157.7813 292.1719,157.7813 Z "/><text fill="#000000" font-family="sans-serif" font-size="12" font-style="italic" lengthAdjust="spacingAndGlyphs" textLength="54" x="303.5" y="165.1543">Function</text><rect fill="#FFFFFF" height="15.9688" style="stroke: #000000; stroke-width: 1.0; stroke-dasharray: 2.0,2.0;" width="21" x="365.5" y="142"/><text fill="#000000" font-family="sans-serif" font-size="12" font-style="italic" lengthAdjust="spacingAndGlyphs" textLength="19" x="366.5" y="154.1387">T,R</text><line style="stroke: #A80036; stroke-width: 1.5;" x1="275.5" x2="382.5" y1="177" y2="177"/><ellipse cx="285.5" cy="188.9023" fill="#84BE84" rx="3" ry="3" style="stroke: #038048; stroke-width: 1.0;"/><text fill="#000000" font-family="sans-serif" font-size="11" font-style="italic" lengthAdjust="spacingAndGlyphs" textLength="74" x="294.5" y="191.2104">apply(t: T): R</text><!--class Predicate--><rect fill="#FEFECE" filter="url(#f1kb2f4uhy757d)" height="52.8047" id="Predicate" style="stroke: #A80036; stroke-width: 1.5;" width="127" x="418.5" y="145"/><ellipse cx="444.75" cy="161" fill="#B4A7E5" rx="11" ry="11" style="stroke: #A80036; stroke-width: 1.0;"/><path d="M445.7031,157.7813 L445.7031,164.2969 L447.4219,164.2969 C447.875,164.2969 448.0156,164.3281 448.1875,164.4531 C448.4219,164.625 448.5313,164.875 448.5313,165.1563 C448.5313,165.7188 448.1719,166 447.4219,166 L442.2813,166 C441.875,166 441.6719,165.9531 441.5156,165.8281 C441.2969,165.6719 441.1563,165.4063 441.1563,165.1563 C441.1563,164.8594 441.3125,164.5781 441.5625,164.4219 C441.7188,164.3125 441.8438,164.2969 442.2813,164.2969 L444,164.2969 L444,157.7813 L442.2813,157.7813 C441.8594,157.7813 441.6719,157.75 441.5156,157.6406 C441.2969,157.4688 441.1563,157.2188 441.1563,156.9375 C441.1563,156.6563 441.3125,156.3594 441.5625,156.2031 C441.7188,156.1094 441.8438,156.0938 442.2813,156.0938 L447.4219,156.0938 C447.875,156.0938 448.0156,156.125 448.1875,156.2344 C448.4219,156.4063 448.5313,156.6719 448.5313,156.9375 C448.5313,157.2344 448.3906,157.5156 448.125,157.6719 C448,157.75 447.8125,157.7813 447.4219,157.7813 Z "/><text fill="#000000" font-family="sans-serif" font-size="12" font-style="italic" lengthAdjust="spacingAndGlyphs" textLength="59" x="461.25" y="165.1543">Predicate</text><rect fill="#FFFFFF" height="15.9688" style="stroke: #000000; stroke-width: 1.0; stroke-dasharray: 2.0,2.0;" width="9" x="539.5" y="142"/><text fill="#000000" font-family="sans-serif" font-size="12" font-style="italic" lengthAdjust="spacingAndGlyphs" textLength="7" x="540.5" y="154.1387">T</text><line style="stroke: #A80036; stroke-width: 1.5;" x1="419.5" x2="544.5" y1="177" y2="177"/><ellipse cx="429.5" cy="188.9023" fill="#84BE84" rx="3" ry="3" style="stroke: #038048; stroke-width: 1.0;"/><text fill="#000000" font-family="sans-serif" font-size="11" font-style="italic" lengthAdjust="spacingAndGlyphs" textLength="101" x="438.5" y="191.2104">test(t: T): boolean</text><!--class UnaryOperator--><rect fill="#FEFECE" filter="url(#f1kb2f4uhy757d)" height="52.8047" id="UnaryOperator" style="stroke: #A80036; stroke-width: 1.5;" width="135" x="263.5" y="274.5"/><ellipse cx="278.5" cy="290.5" fill="#B4A7E5" rx="11" ry="11" style="stroke: #A80036; stroke-width: 1.0;"/><path d="M279.4531,287.2813 L279.4531,293.7969 L281.1719,293.7969 C281.625,293.7969 281.7656,293.8281 281.9375,293.9531 C282.1719,294.125 282.2813,294.375 282.2813,294.6563 C282.2813,295.2188 281.9219,295.5 281.1719,295.5 L276.0313,295.5 C275.625,295.5 275.4219,295.4531 275.2656,295.3281 C275.0469,295.1719 274.9063,294.9063 274.9063,294.6563 C274.9063,294.3594 275.0625,294.0781 275.3125,293.9219 C275.4688,293.8125 275.5938,293.7969 276.0313,293.7969 L277.75,293.7969 L277.75,287.2813 L276.0313,287.2813 C275.6094,287.2813 275.4219,287.25 275.2656,287.1406 C275.0469,286.9688 274.9063,286.7188 274.9063,286.4375 C274.9063,286.1563 275.0625,285.8594 275.3125,285.7031 C275.4688,285.6094 275.5938,285.5938 276.0313,285.5938 L281.1719,285.5938 C281.625,285.5938 281.7656,285.625 281.9375,285.7344 C282.1719,285.9063 282.2813,286.1719 282.2813,286.4375 C282.2813,286.7344 282.1406,287.0156 281.875,287.1719 C281.75,287.25 281.5625,287.2813 281.1719,287.2813 Z "/><text fill="#000000" font-family="sans-serif" font-size="12" font-style="italic" lengthAdjust="spacingAndGlyphs" textLength="92" x="292.5" y="294.6543">UnaryOperator</text><rect fill="#FFFFFF" height="15.9688" style="stroke: #000000; stroke-width: 1.0; stroke-dasharray: 2.0,2.0;" width="9" x="392.5" y="271.5"/><text fill="#000000" font-family="sans-serif" font-size="12" font-style="italic" lengthAdjust="spacingAndGlyphs" textLength="7" x="393.5" y="283.6387">T</text><line style="stroke: #A80036; stroke-width: 1.5;" x1="264.5" x2="397.5" y1="306.5" y2="306.5"/><ellipse cx="274.5" cy="318.4023" fill="#84BE84" rx="3" ry="3" style="stroke: #038048; stroke-width: 1.0;"/><text fill="#000000" font-family="sans-serif" font-size="11" font-style="italic" lengthAdjust="spacingAndGlyphs" textLength="73" x="283.5" y="320.7104">apply(t: T): T</text><!--class Consumer--><rect fill="#FEFECE" filter="url(#f1kb2f4uhy757d)" height="52.8047" id="Consumer" style="stroke: #A80036; stroke-width: 1.5;" width="105" x="580.5" y="145"/><ellipse cx="595.5" cy="161" fill="#B4A7E5" rx="11" ry="11" style="stroke: #A80036; stroke-width: 1.0;"/><path d="M596.4531,157.7813 L596.4531,164.2969 L598.1719,164.2969 C598.625,164.2969 598.7656,164.3281 598.9375,164.4531 C599.1719,164.625 599.2813,164.875 599.2813,165.1563 C599.2813,165.7188 598.9219,166 598.1719,166 L593.0313,166 C592.625,166 592.4219,165.9531 592.2656,165.8281 C592.0469,165.6719 591.9063,165.4063 591.9063,165.1563 C591.9063,164.8594 592.0625,164.5781 592.3125,164.4219 C592.4688,164.3125 592.5938,164.2969 593.0313,164.2969 L594.75,164.2969 L594.75,157.7813 L593.0313,157.7813 C592.6094,157.7813 592.4219,157.75 592.2656,157.6406 C592.0469,157.4688 591.9063,157.2188 591.9063,156.9375 C591.9063,156.6563 592.0625,156.3594 592.3125,156.2031 C592.4688,156.1094 592.5938,156.0938 593.0313,156.0938 L598.1719,156.0938 C598.625,156.0938 598.7656,156.125 598.9375,156.2344 C599.1719,156.4063 599.2813,156.6719 599.2813,156.9375 C599.2813,157.2344 599.1406,157.5156 598.875,157.6719 C598.75,157.75 598.5625,157.7813 598.1719,157.7813 Z "/><text fill="#000000" font-family="sans-serif" font-size="12" font-style="italic" lengthAdjust="spacingAndGlyphs" textLength="62" x="609.5" y="165.1543">Consumer</text><rect fill="#FFFFFF" height="15.9688" style="stroke: #000000; stroke-width: 1.0; stroke-dasharray: 2.0,2.0;" width="9" x="679.5" y="142"/><text fill="#000000" font-family="sans-serif" font-size="12" font-style="italic" lengthAdjust="spacingAndGlyphs" textLength="7" x="680.5" y="154.1387">T</text><line style="stroke: #A80036; stroke-width: 1.5;" x1="581.5" x2="684.5" y1="177" y2="177"/><ellipse cx="591.5" cy="188.9023" fill="#84BE84" rx="3" ry="3" style="stroke: #038048; stroke-width: 1.0;"/><text fill="#000000" font-family="sans-serif" font-size="11" font-style="italic" lengthAdjust="spacingAndGlyphs" textLength="64" x="600.5" y="191.2104">accept(t: T)</text><!--class Supplier--><rect fill="#FEFECE" filter="url(#f1kb2f4uhy757d)" height="52.8047" id="Supplier" style="stroke: #A80036; stroke-width: 1.5;" width="94" x="434" y="274.5"/><ellipse cx="449" cy="290.5" fill="#B4A7E5" rx="11" ry="11" style="stroke: #A80036; stroke-width: 1.0;"/><path d="M449.9531,287.2813 L449.9531,293.7969 L451.6719,293.7969 C452.125,293.7969 452.2656,293.8281 452.4375,293.9531 C452.6719,294.125 452.7813,294.375 452.7813,294.6563 C452.7813,295.2188 452.4219,295.5 451.6719,295.5 L446.5313,295.5 C446.125,295.5 445.9219,295.4531 445.7656,295.3281 C445.5469,295.1719 445.4063,294.9063 445.4063,294.6563 C445.4063,294.3594 445.5625,294.0781 445.8125,293.9219 C445.9688,293.8125 446.0938,293.7969 446.5313,293.7969 L448.25,293.7969 L448.25,287.2813 L446.5313,287.2813 C446.1094,287.2813 445.9219,287.25 445.7656,287.1406 C445.5469,286.9688 445.4063,286.7188 445.4063,286.4375 C445.4063,286.1563 445.5625,285.8594 445.8125,285.7031 C445.9688,285.6094 446.0938,285.5938 446.5313,285.5938 L451.6719,285.5938 C452.125,285.5938 452.2656,285.625 452.4375,285.7344 C452.6719,285.9063 452.7813,286.1719 452.7813,286.4375 C452.7813,286.7344 452.6406,287.0156 452.375,287.1719 C452.25,287.25 452.0625,287.2813 451.6719,287.2813 Z "/><text fill="#000000" font-family="sans-serif" font-size="12" font-style="italic" lengthAdjust="spacingAndGlyphs" textLength="51" x="463" y="294.6543">Supplier</text><rect fill="#FFFFFF" height="15.9688" style="stroke: #000000; stroke-width: 1.0; stroke-dasharray: 2.0,2.0;" width="9" x="522" y="271.5"/><text fill="#000000" font-family="sans-serif" font-size="12" font-style="italic" lengthAdjust="spacingAndGlyphs" textLength="7" x="523" y="283.6387">T</text><line style="stroke: #A80036; stroke-width: 1.5;" x1="435" x2="527" y1="306.5" y2="306.5"/><ellipse cx="445" cy="318.4023" fill="#84BE84" rx="3" ry="3" style="stroke: #038048; stroke-width: 1.0;"/><text fill="#000000" font-family="sans-serif" font-size="11" font-style="italic" lengthAdjust="spacingAndGlyphs" textLength="41" x="454" y="320.7104">get(): T</text><polygon fill="#FBFB77" filter="url(#f1kb2f4uhy757d)" points="563.5,258,563.5,343.6641,736.5,343.6641,736.5,268,726.5,258,563.5,258" style="stroke: #A80036; stroke-width: 1.0;"/><line style="stroke: #A80036; stroke-width: 1.0;" x1="726.5" x2="726.5" y1="258" y2="268"/><line style="stroke: #A80036; stroke-width: 1.0;" x1="736.5" x2="726.5" y1="268" y2="268"/><text fill="#000000" font-family="sans-serif" font-size="13" lengthAdjust="spacingAndGlyphs" textLength="142" x="569.5" y="275.0669">Il existe des interfaces</text><text fill="#000000" font-family="sans-serif" font-size="13" lengthAdjust="spacingAndGlyphs" textLength="152" x="569.5" y="290.1997">dédiéées pour les types</text><text fill="#000000" font-family="sans-serif" font-size="13" lengthAdjust="spacingAndGlyphs" textLength="51" x="569.5" y="305.3325">primitifs</text><text fill="#000000" font-family="sans-serif" font-size="13" lengthAdjust="spacingAndGlyphs" textLength="123" x="569.5" y="320.4653">p.e. LongPredicate,</text><text fill="#000000" font-family="sans-serif" font-size="13" lengthAdjust="spacingAndGlyphs" textLength="136" x="569.5" y="335.5981">BooleanSupplier, etc.</text><!--class Callable--><rect fill="#FEFECE" filter="url(#f1kb2f4uhy757d)" height="52.8047" id="Callable" style="stroke: #A80036; stroke-width: 1.5;" width="93" x="98.5" y="145"/><ellipse cx="113.5" cy="161" fill="#B4A7E5" rx="11" ry="11" style="stroke: #A80036; stroke-width: 1.0;"/><path d="M114.4531,157.7813 L114.4531,164.2969 L116.1719,164.2969 C116.625,164.2969 116.7656,164.3281 116.9375,164.4531 C117.1719,164.625 117.2813,164.875 117.2813,165.1563 C117.2813,165.7188 116.9219,166 116.1719,166 L111.0313,166 C110.625,166 110.4219,165.9531 110.2656,165.8281 C110.0469,165.6719 109.9063,165.4063 109.9063,165.1563 C109.9063,164.8594 110.0625,164.5781 110.3125,164.4219 C110.4688,164.3125 110.5938,164.2969 111.0313,164.2969 L112.75,164.2969 L112.75,157.7813 L111.0313,157.7813 C110.6094,157.7813 110.4219,157.75 110.2656,157.6406 C110.0469,157.4688 109.9063,157.2188 109.9063,156.9375 C109.9063,156.6563 110.0625,156.3594 110.3125,156.2031 C110.4688,156.1094 110.5938,156.0938 111.0313,156.0938 L116.1719,156.0938 C116.625,156.0938 116.7656,156.125 116.9375,156.2344 C117.1719,156.4063 117.2813,156.6719 117.2813,156.9375 C117.2813,157.2344 117.1406,157.5156 116.875,157.6719 C116.75,157.75 116.5625,157.7813 116.1719,157.7813 Z "/><text fill="#000000" font-family="sans-serif" font-size="12" font-style="italic" lengthAdjust="spacingAndGlyphs" textLength="49" x="127.5" y="165.1543">Callable</text><rect fill="#FFFFFF" height="15.9688" style="stroke: #000000; stroke-width: 1.0; stroke-dasharray: 2.0,2.0;" width="10" x="184.5" y="142"/><text fill="#000000" font-family="sans-serif" font-size="12" font-style="italic" lengthAdjust="spacingAndGlyphs" textLength="8" x="185.5" y="154.1387">V</text><line style="stroke: #A80036; stroke-width: 1.5;" x1="99.5" x2="190.5" y1="177" y2="177"/><ellipse cx="109.5" cy="188.9023" fill="#84BE84" rx="3" ry="3" style="stroke: #038048; stroke-width: 1.0;"/><text fill="#000000" font-family="sans-serif" font-size="11" font-style="italic" lengthAdjust="spacingAndGlyphs" textLength="43" x="118.5" y="191.2104">call(): V</text><!--link Function to UnaryOperator--><path d="M329.722,218.509 C330.016,237.271 330.345,258.259 330.596,274.237 " fill="none" id="Function-UnaryOperator" style="stroke: #A80036; stroke-width: 1.0;"/><polygon fill="none" points="322.719,218.409,329.405,198.302,336.718,218.189,322.719,218.409" style="stroke: #A80036; stroke-width: 1.0;"/><!--link Callable to Comparator--><!--link Comparator to Runnable--><!--link Predicate to Consumer--><!--link Predicate to Supplier--><!--link Supplier to N--><!--
@startuml
package "java" {
 package "lang" {
  interface Runnable {
   + {abstract} run()
  }
 }
 package "util" {
  interface Comparator<T> {
   + {abstract} compare(t1: T, t2: T): int
  }
  package "function" {
   interface Function<T,R> {
    + {abstract} apply(t: T): R
   }
   interface Predicate<T> {
    + {abstract} test(t: T): boolean
   }
   interface UnaryOperator<T> {
    + {abstract} apply(t: T): T
   }
   interface Consumer<T> {
    + {abstract} accept(t: T)
   }
   interface Supplier<T> {
    + {abstract} get(): T
   }
   Note "Il existe des interfaces\ndédiéées pour les types\nprimitifs\np.e. LongPredicate,\nBooleanSupplier, etc." as N
   UnaryOperator -up-|> Function
  }
  package "concurrent" {
   interface Callable<V> {
    + {abstract} call(): V
   }
  }
 }
}
Comparator -[hidden]up-> Callable
Runnable -[hidden]up-> Comparator
hide empty attributes
hide empty methods
@enduml

PlantUML version 1.2017.20beta4(Unknown compile time)
(GPL source distribution)
Java Runtime: Java(TM) SE Runtime Environment
JVM: Java HotSpot(TM) 64-Bit Server VM
Java Version: 1.7.0_25-b15
Operating System: Linux
Default Encoding: UTF-8
Language: en
Country: US
--></g></svg>