<?xml version="1.0" encoding="UTF-8" standalone="no"?><svg xmlns="http://www.w3.org/2000/svg" xmlns:xlink="http://www.w3.org/1999/xlink" contentScriptType="application/ecmascript" contentStyleType="text/css" preserveAspectRatio="none" version="1.1" viewBox="0 0 578 297" zoomAndPan="magnify"><defs><filter height="300%" id="frwa3a0wl0klf" width="300%" x="-1" y="-1"><feGaussianBlur result="blurOut" stdDeviation="2.0"/><feColorMatrix in="blurOut" result="blurOut2" type="matrix" values="0 0 0 0 0 0 0 0 0 0 0 0 0 0 0 0 0 0 .4 0"/><feOffset dx="4.0" dy="4.0" in="blurOut2" result="blurOut3"/><feBlend in="SourceGraphic" in2="blurOut3" mode="normal"/></filter></defs><g><!--cluster java.util--><polygon fill="#FFFFFF" filter="url(#frwa3a0wl0klf)" points="22,24,88,24,95,46.2969,556,46.2969,556,285,22,285,22,24" style="stroke: #000000; stroke-width: 2.0;"/><line style="stroke: #000000; stroke-width: 2.0;" x1="22" x2="95" y1="46.2969" y2="46.2969"/><text fill="#000000" font-family="sans-serif" font-size="14" font-weight="bold" lengthAdjust="spacingAndGlyphs" textLength="60" x="26" y="38.9951">java.util</text><!--class Optional--><rect fill="#FEFECE" filter="url(#frwa3a0wl0klf)" height="209.6563" id="Optional" style="stroke: #A80036; stroke-width: 1.5;" width="501" x="38.5" y="59"/><ellipse cx="253.25" cy="75" fill="#ADD1B2" rx="11" ry="11" style="stroke: #A80036; stroke-width: 1.0;"/><path d="M255.5938,70.6719 L255.7656,70.75 C255.9844,70.4375 256.1875,70.3438 256.4844,70.3438 C256.7813,70.3438 257.0625,70.4844 257.2188,70.75 C257.3125,70.9063 257.3281,71.0313 257.3281,71.4688 L257.3281,72.8906 C257.3281,73.3125 257.2969,73.5 257.1875,73.6563 C257.0156,73.875 256.75,74.0156 256.4844,74.0156 C256.2656,74.0156 256.0313,73.9063 255.8906,73.7656 C255.75,73.6406 255.7188,73.5156 255.6563,73.1094 C255.5625,72.7031 255.3906,72.4844 254.9063,72.2031 C254.4375,71.9531 253.8281,71.7969 253.25,71.7969 C251.5156,71.7969 250.2656,73.1094 250.2656,74.8906 L250.2656,75.9844 C250.2656,77.6875 251.5625,78.7813 253.6094,78.7813 C254.375,78.7813 255.0625,78.6563 255.4844,78.3906 C255.6719,78.2969 255.6719,78.2969 256.125,77.8125 C256.3125,77.625 256.5156,77.5469 256.7344,77.5469 C257.2031,77.5469 257.5938,77.9375 257.5938,78.3906 C257.5938,78.7813 257.2656,79.2344 256.6875,79.6406 C255.9375,80.1875 254.7813,80.4844 253.5625,80.4844 C250.6719,80.4844 248.5625,78.5938 248.5625,76.0156 L248.5625,74.8906 C248.5625,72.1719 250.5625,70.0938 253.1875,70.0938 C254.0625,70.0938 254.6563,70.2344 255.5938,70.6719 Z "/><text fill="#000000" font-family="sans-serif" font-size="12" lengthAdjust="spacingAndGlyphs" textLength="52" x="273.75" y="79.1543">Optional</text><rect fill="#FFFFFF" height="15.9688" style="stroke: #000000; stroke-width: 1.0; stroke-dasharray: 2.0,2.0;" width="9" x="533.5" y="56"/><text fill="#000000" font-family="sans-serif" font-size="12" font-style="italic" lengthAdjust="spacingAndGlyphs" textLength="7" x="534.5" y="68.1387">T</text><line style="stroke: #A80036; stroke-width: 1.5;" x1="39.5" x2="538.5" y1="91" y2="91"/><ellipse cx="49.5" cy="102.9023" fill="#84BE84" rx="3" ry="3" style="stroke: #038048; stroke-width: 1.0;"/><text fill="#000000" font-family="sans-serif" font-size="11" lengthAdjust="spacingAndGlyphs" text-decoration="underline" textLength="123" x="58.5" y="105.2104">empty(): Optional&lt;T&gt;</text><line style="stroke: #000000; stroke-width: 1.0;" x1="58.5" x2="181.5" y1="107.2104" y2="107.2104"/><ellipse cx="49.5" cy="115.707" fill="#84BE84" rx="3" ry="3" style="stroke: #038048; stroke-width: 1.0;"/><text fill="#000000" font-family="sans-serif" font-size="11" lengthAdjust="spacingAndGlyphs" text-decoration="underline" textLength="118" x="58.5" y="118.0151">of(t: T): Optional&lt;T&gt;</text><line style="stroke: #000000; stroke-width: 1.0;" x1="58.5" x2="176.5" y1="120.0151" y2="120.0151"/><ellipse cx="49.5" cy="128.5117" fill="#84BE84" rx="3" ry="3" style="stroke: #038048; stroke-width: 1.0;"/><text fill="#000000" font-family="sans-serif" font-size="11" lengthAdjust="spacingAndGlyphs" text-decoration="underline" textLength="163" x="58.5" y="130.8198">ofNullable(t: T): Optional&lt;T&gt;</text><line style="stroke: #000000; stroke-width: 1.0;" x1="58.5" x2="221.5" y1="132.8198" y2="132.8198"/><line style="stroke: #A80036; stroke-width: 1.0; stroke-dasharray: 1.0,2.0;" x1="39.5" x2="538.5" y1="137.4141" y2="137.4141"/><ellipse cx="49.5" cy="149.3164" fill="#84BE84" rx="3" ry="3" style="stroke: #038048; stroke-width: 1.0;"/><text fill="#000000" font-family="sans-serif" font-size="11" lengthAdjust="spacingAndGlyphs" textLength="300" x="58.5" y="151.6245">filter(predicate: Predicate&lt;? super T&gt;): Optional&lt;T&gt;</text><ellipse cx="49.5" cy="162.1211" fill="#84BE84" rx="3" ry="3" style="stroke: #038048; stroke-width: 1.0;"/><text fill="#000000" font-family="sans-serif" font-size="11" lengthAdjust="spacingAndGlyphs" textLength="409" x="58.5" y="164.4292">&lt;V&gt; flatMap(mapper: Function&lt;? super T, Optional&lt;V&gt;&gt;): Optional&lt;V&gt;</text><ellipse cx="49.5" cy="174.9258" fill="#84BE84" rx="3" ry="3" style="stroke: #038048; stroke-width: 1.0;"/><text fill="#000000" font-family="sans-serif" font-size="11" lengthAdjust="spacingAndGlyphs" textLength="41" x="58.5" y="177.2339">get(): T</text><ellipse cx="49.5" cy="187.7305" fill="#84BE84" rx="3" ry="3" style="stroke: #038048; stroke-width: 1.0;"/><text fill="#000000" font-family="sans-serif" font-size="11" lengthAdjust="spacingAndGlyphs" textLength="255" x="58.5" y="190.0386">ifPresent(consumer: Consumer&lt;? super T&gt;)</text><ellipse cx="49.5" cy="200.5352" fill="#84BE84" rx="3" ry="3" style="stroke: #038048; stroke-width: 1.0;"/><text fill="#000000" font-family="sans-serif" font-size="11" lengthAdjust="spacingAndGlyphs" textLength="115" x="58.5" y="202.8433">isPresent(): boolean</text><ellipse cx="49.5" cy="213.3398" fill="#84BE84" rx="3" ry="3" style="stroke: #038048; stroke-width: 1.0;"/><text fill="#000000" font-family="sans-serif" font-size="11" lengthAdjust="spacingAndGlyphs" textLength="387" x="58.5" y="215.6479">&lt;V&gt; map(mapper: Function&lt;? super T, ? extends V&gt;): Optional&lt;V&gt;</text><line style="stroke: #A80036; stroke-width: 1.0; stroke-dasharray: 1.0,2.0;" x1="39.5" x2="538.5" y1="222.2422" y2="222.2422"/><ellipse cx="49.5" cy="234.1445" fill="#84BE84" rx="3" ry="3" style="stroke: #038048; stroke-width: 1.0;"/><text fill="#000000" font-family="sans-serif" font-size="11" lengthAdjust="spacingAndGlyphs" textLength="104" x="58.5" y="236.4526">orElse(other: T): T</text><ellipse cx="49.5" cy="246.9492" fill="#84BE84" rx="3" ry="3" style="stroke: #038048; stroke-width: 1.0;"/><text fill="#000000" font-family="sans-serif" font-size="11" lengthAdjust="spacingAndGlyphs" textLength="248" x="58.5" y="249.2573">orElseGet(other: Supplier&lt;? extends T&gt;): T</text><ellipse cx="49.5" cy="259.7539" fill="#84BE84" rx="3" ry="3" style="stroke: #038048; stroke-width: 1.0;"/><text fill="#000000" font-family="sans-serif" font-size="11" lengthAdjust="spacingAndGlyphs" textLength="475" x="58.5" y="262.062">&lt;X extends Throwable&gt; orElseThrow(exceptionSupplier: Supplier&lt;? extends X&gt;): T</text><!--
@startuml
package "java.util" {
 class Optional<T> {
  + {static} empty(): Optional<T>
  + {static} of(t: T): Optional<T>
  + {static} ofNullable(t: T): Optional<T>
....
  + filter(predicate: Predicate<? super T>): Optional<T>
  + <V> flatMap(mapper: Function<? super T, Optional<V>>): Optional<V>
  + get(): T
  + ifPresent(consumer: Consumer<? super T>)
  + isPresent(): boolean
  + <V> map(mapper: Function<? super T, ? extends V>): Optional<V>
....
  + orElse(other: T): T
  + orElseGet(other: Supplier<? extends T>): T
  + <X extends Throwable> orElseThrow(exceptionSupplier: Supplier<? extends X>): T
 }
}
hide empty attributes
hide empty methods
@enduml

PlantUML version 1.2017.20beta4(Unknown compile time)
(GPL source distribution)
Java Runtime: Java(TM) SE Runtime Environment
JVM: Java HotSpot(TM) 64-Bit Server VM
Java Version: 1.7.0_25-b15
Operating System: Linux
Default Encoding: UTF-8
Language: en
Country: US
--></g></svg>