<?xml version="1.0" encoding="UTF-8" standalone="no"?><svg xmlns="http://www.w3.org/2000/svg" xmlns:xlink="http://www.w3.org/1999/xlink" contentScriptType="application/ecmascript" contentStyleType="text/css" preserveAspectRatio="none" version="1.1" viewBox="0 0 200 51" zoomAndPan="magnify"><defs><filter height="300%" id="f11j2cun2ewmsw" width="300%" x="-1" y="-1"><feGaussianBlur result="blurOut" stdDeviation="2.0"/><feColorMatrix in="blurOut" result="blurOut2" type="matrix" values="0 0 0 0 0 0 0 0 0 0 0 0 0 0 0 0 0 0 .4 0"/><feOffset dx="4.0" dy="4.0" in="blurOut2" result="blurOut3"/><feBlend in="SourceGraphic" in2="blurOut3" mode="normal"/></filter></defs><g><!--class Order--><rect fill="#FEFECE" filter="url(#f11j2cun2ewmsw)" height="32" id="Order" style="stroke: #A80036; stroke-width: 1.5;" width="67" x="6" y="8"/><ellipse cx="21" cy="24" fill="#ADD1B2" rx="11" ry="11" style="stroke: #A80036; stroke-width: 1.0;"/><path d="M23.3438,19.6719 L23.5156,19.75 C23.7344,19.4375 23.9375,19.3438 24.2344,19.3438 C24.5313,19.3438 24.8125,19.4844 24.9688,19.75 C25.0625,19.9063 25.0781,20.0313 25.0781,20.4688 L25.0781,21.8906 C25.0781,22.3125 25.0469,22.5 24.9375,22.6563 C24.7656,22.875 24.5,23.0156 24.2344,23.0156 C24.0156,23.0156 23.7813,22.9063 23.6406,22.7656 C23.5,22.6406 23.4688,22.5156 23.4063,22.1094 C23.3125,21.7031 23.1406,21.4844 22.6563,21.2031 C22.1875,20.9531 21.5781,20.7969 21,20.7969 C19.2656,20.7969 18.0156,22.1094 18.0156,23.8906 L18.0156,24.9844 C18.0156,26.6875 19.3125,27.7813 21.3594,27.7813 C22.125,27.7813 22.8125,27.6563 23.2344,27.3906 C23.4219,27.2969 23.4219,27.2969 23.875,26.8125 C24.0625,26.625 24.2656,26.5469 24.4844,26.5469 C24.9531,26.5469 25.3438,26.9375 25.3438,27.3906 C25.3438,27.7813 25.0156,28.2344 24.4375,28.6406 C23.6875,29.1875 22.5313,29.4844 21.3125,29.4844 C18.4219,29.4844 16.3125,27.5938 16.3125,25.0156 L16.3125,23.8906 C16.3125,21.1719 18.3125,19.0938 20.9375,19.0938 C21.8125,19.0938 22.4063,19.2344 23.3438,19.6719 Z "/><text fill="#000000" font-family="sans-serif" font-size="12" lengthAdjust="spacingAndGlyphs" textLength="35" x="35" y="28.1543">Order</text><!--class Product--><rect fill="#FEFECE" filter="url(#f11j2cun2ewmsw)" height="32" id="Product" style="stroke: #A80036; stroke-width: 1.5;" width="81" x="108" y="8"/><ellipse cx="123" cy="24" fill="#ADD1B2" rx="11" ry="11" style="stroke: #A80036; stroke-width: 1.0;"/><path d="M125.3438,19.6719 L125.5156,19.75 C125.7344,19.4375 125.9375,19.3438 126.2344,19.3438 C126.5313,19.3438 126.8125,19.4844 126.9688,19.75 C127.0625,19.9063 127.0781,20.0313 127.0781,20.4688 L127.0781,21.8906 C127.0781,22.3125 127.0469,22.5 126.9375,22.6563 C126.7656,22.875 126.5,23.0156 126.2344,23.0156 C126.0156,23.0156 125.7813,22.9063 125.6406,22.7656 C125.5,22.6406 125.4688,22.5156 125.4063,22.1094 C125.3125,21.7031 125.1406,21.4844 124.6563,21.2031 C124.1875,20.9531 123.5781,20.7969 123,20.7969 C121.2656,20.7969 120.0156,22.1094 120.0156,23.8906 L120.0156,24.9844 C120.0156,26.6875 121.3125,27.7813 123.3594,27.7813 C124.125,27.7813 124.8125,27.6563 125.2344,27.3906 C125.4219,27.2969 125.4219,27.2969 125.875,26.8125 C126.0625,26.625 126.2656,26.5469 126.4844,26.5469 C126.9531,26.5469 127.3438,26.9375 127.3438,27.3906 C127.3438,27.7813 127.0156,28.2344 126.4375,28.6406 C125.6875,29.1875 124.5313,29.4844 123.3125,29.4844 C120.4219,29.4844 118.3125,27.5938 118.3125,25.0156 L118.3125,23.8906 C118.3125,21.1719 120.3125,19.0938 122.9375,19.0938 C123.8125,19.0938 124.4063,19.2344 125.3438,19.6719 Z "/><text fill="#000000" font-family="sans-serif" font-size="12" lengthAdjust="spacingAndGlyphs" textLength="49" x="137" y="28.1543">Product</text><!--link Order to Product--><path d="M73.1367,24 C82.9972,24 92.8576,24 102.7181,24 " fill="none" id="Order-Product" style="stroke: #A80036; stroke-width: 1.0;"/><polygon fill="#A80036" points="107.874,24,98.874,20,102.874,24,98.874,28,107.874,24" style="stroke: #A80036; stroke-width: 1.0;"/><text fill="#000000" font-family="sans-serif" font-size="13" lengthAdjust="spacingAndGlyphs" textLength="7" x="93.0146" y="19.7428">*</text><!--
@startuml
class Order
class Product

Order -right-> "*" Product

hide empty attributes
hide empty methods
@enduml

PlantUML version 1.2017.20beta4(Unknown compile time)
(GPL source distribution)
Java Runtime: Java(TM) SE Runtime Environment
JVM: Java HotSpot(TM) 64-Bit Server VM
Java Version: 1.7.0_25-b15
Operating System: Linux
Default Encoding: UTF-8
Language: en
Country: US
--></g></svg>