<?xml version="1.0" encoding="UTF-8" standalone="no"?><svg xmlns="http://www.w3.org/2000/svg" xmlns:xlink="http://www.w3.org/1999/xlink" contentScriptType="application/ecmascript" contentStyleType="text/css" preserveAspectRatio="none" version="1.1" viewBox="0 0 620 242" zoomAndPan="magnify"><defs><filter height="300%" id="f1xtm3zlz6imsg" width="300%" x="-1" y="-1"><feGaussianBlur result="blurOut" stdDeviation="2.0"/><feColorMatrix in="blurOut" result="blurOut2" type="matrix" values="0 0 0 0 0 0 0 0 0 0 0 0 0 0 0 0 0 0 .4 0"/><feOffset dx="4.0" dy="4.0" in="blurOut2" result="blurOut3"/><feBlend in="SourceGraphic" in2="blurOut3" mode="normal"/></filter></defs><g><!--cluster java.util.stream--><polygon fill="#FFFFFF" filter="url(#f1xtm3zlz6imsg)" points="22,24,148,24,155,46.2969,598,46.2969,598,230,22,230,22,24" style="stroke: #000000; stroke-width: 2.0;"/><line style="stroke: #000000; stroke-width: 2.0;" x1="22" x2="155" y1="46.2969" y2="46.2969"/><text fill="#000000" font-family="sans-serif" font-size="14" font-weight="bold" lengthAdjust="spacingAndGlyphs" textLength="120" x="26" y="38.9951">java.util.stream</text><!--class Stream--><rect fill="#FEFECE" filter="url(#f1xtm3zlz6imsg)" height="153.6328" id="Stream" style="stroke: #A80036; stroke-width: 1.5;" width="543" x="38.75" y="60"/><ellipse cx="278" cy="76" fill="#B4A7E5" rx="11" ry="11" style="stroke: #A80036; stroke-width: 1.0;"/><path d="M278.9531,72.7813 L278.9531,79.2969 L280.6719,79.2969 C281.125,79.2969 281.2656,79.3281 281.4375,79.4531 C281.6719,79.625 281.7813,79.875 281.7813,80.1563 C281.7813,80.7188 281.4219,81 280.6719,81 L275.5313,81 C275.125,81 274.9219,80.9531 274.7656,80.8281 C274.5469,80.6719 274.4063,80.4063 274.4063,80.1563 C274.4063,79.8594 274.5625,79.5781 274.8125,79.4219 C274.9688,79.3125 275.0938,79.2969 275.5313,79.2969 L277.25,79.2969 L277.25,72.7813 L275.5313,72.7813 C275.1094,72.7813 274.9219,72.75 274.7656,72.6406 C274.5469,72.4688 274.4063,72.2188 274.4063,71.9375 C274.4063,71.6563 274.5625,71.3594 274.8125,71.2031 C274.9688,71.1094 275.0938,71.0938 275.5313,71.0938 L280.6719,71.0938 C281.125,71.0938 281.2656,71.125 281.4375,71.2344 C281.6719,71.4063 281.7813,71.6719 281.7813,71.9375 C281.7813,72.2344 281.6406,72.5156 281.375,72.6719 C281.25,72.75 281.0625,72.7813 280.6719,72.7813 Z "/><text fill="#000000" font-family="sans-serif" font-size="12" font-style="italic" lengthAdjust="spacingAndGlyphs" textLength="45" x="298.5" y="80.1543">Stream</text><rect fill="#FFFFFF" height="15.9688" style="stroke: #000000; stroke-width: 1.0; stroke-dasharray: 2.0,2.0;" width="9" x="575.75" y="57"/><text fill="#000000" font-family="sans-serif" font-size="12" font-style="italic" lengthAdjust="spacingAndGlyphs" textLength="7" x="576.75" y="69.1387">T</text><line style="stroke: #A80036; stroke-width: 1.5;" x1="39.75" x2="580.75" y1="92" y2="92"/><ellipse cx="49.75" cy="103.9023" fill="#84BE84" rx="3" ry="3" style="stroke: #038048; stroke-width: 1.0;"/><text fill="#000000" font-family="sans-serif" font-size="11" font-style="italic" lengthAdjust="spacingAndGlyphs" textLength="292" x="58.75" y="106.2104">allMatch(predicate: Predicate&lt;? super T&gt;): boolean</text><ellipse cx="49.75" cy="116.707" fill="#84BE84" rx="3" ry="3" style="stroke: #038048; stroke-width: 1.0;"/><text fill="#000000" font-family="sans-serif" font-size="11" font-style="italic" lengthAdjust="spacingAndGlyphs" textLength="300" x="58.75" y="119.0151">anyMatch(predicate: Predicate&lt;? super T&gt;): boolean</text><ellipse cx="49.75" cy="129.5117" fill="#84BE84" rx="3" ry="3" style="stroke: #038048; stroke-width: 1.0;"/><text fill="#000000" font-family="sans-serif" font-size="11" font-style="italic" lengthAdjust="spacingAndGlyphs" textLength="307" x="58.75" y="131.8198">noneMatch(predicate: Predicate&lt;? super T&gt;): boolean</text><line style="stroke: #A80036; stroke-width: 1.0; stroke-dasharray: 1.0,2.0;" x1="39.75" x2="580.75" y1="138.4141" y2="138.4141"/><ellipse cx="49.75" cy="150.3164" fill="#84BE84" rx="3" ry="3" style="stroke: #038048; stroke-width: 1.0;"/><text fill="#000000" font-family="sans-serif" font-size="11" font-style="italic" lengthAdjust="spacingAndGlyphs" textLength="131" x="58.75" y="152.6245">findAny(): Optional&lt;T&gt;</text><ellipse cx="49.75" cy="163.1211" fill="#84BE84" rx="3" ry="3" style="stroke: #038048; stroke-width: 1.0;"/><text fill="#000000" font-family="sans-serif" font-size="11" font-style="italic" lengthAdjust="spacingAndGlyphs" textLength="133" x="58.75" y="165.4292">findFirst(): Optional&lt;T&gt;</text><line style="stroke: #A80036; stroke-width: 1.0; stroke-dasharray: 1.0,2.0;" x1="39.75" x2="580.75" y1="172.0234" y2="172.0234"/><ellipse cx="49.75" cy="183.9258" fill="#84BE84" rx="3" ry="3" style="stroke: #038048; stroke-width: 1.0;"/><text fill="#000000" font-family="sans-serif" font-size="11" font-style="italic" lengthAdjust="spacingAndGlyphs" textLength="280" x="58.75" y="186.2339">peek(action: Consumer&lt;? super T&gt;): Stream&lt;T&gt;</text><line style="stroke: #A80036; stroke-width: 1.0; stroke-dasharray: 1.0,2.0;" x1="39.75" x2="580.75" y1="192.8281" y2="192.8281"/><ellipse cx="49.75" cy="204.7305" fill="#84BE84" rx="3" ry="3" style="stroke: #038048; stroke-width: 1.0;"/><text fill="#000000" font-family="sans-serif" font-size="11" font-style="italic" lengthAdjust="spacingAndGlyphs" textLength="517" x="58.75" y="207.0386">&lt;R&gt; flatMap(mapper: Function&lt;? super T, ? extends Stream&lt;? extends R&gt;&gt;): Stream&lt;R&gt;</text><!--
@startuml
package "java.util.stream" {
 interface Stream<T> {
  + {abstract} allMatch(predicate: Predicate<? super T>): boolean
  + {abstract} anyMatch(predicate: Predicate<? super T>): boolean
  + {abstract} noneMatch(predicate: Predicate<? super T>): boolean
....
  + {abstract} findAny(): Optional<T>
  + {abstract} findFirst(): Optional<T>
....
  + {abstract} peek(action: Consumer<? super T>): Stream<T>
....
  + {abstract} <R> flatMap(mapper: Function<? super T, ? extends Stream<? extends R>>): Stream<R>
 }
}

hide empty attributes
hide empty methods
@enduml

PlantUML version 1.2017.20beta4(Unknown compile time)
(GPL source distribution)
Java Runtime: Java(TM) SE Runtime Environment
JVM: Java HotSpot(TM) 64-Bit Server VM
Java Version: 1.7.0_25-b15
Operating System: Linux
Default Encoding: UTF-8
Language: en
Country: US
--></g></svg>