<?xml version="1.0" encoding="UTF-8" standalone="no"?><svg xmlns="http://www.w3.org/2000/svg" xmlns:xlink="http://www.w3.org/1999/xlink" contentScriptType="application/ecmascript" contentStyleType="text/css" preserveAspectRatio="none" version="1.1" viewBox="0 0 792 373" zoomAndPan="magnify"><defs><filter height="300%" id="fk2rxqfme3psb" width="300%" x="-1" y="-1"><feGaussianBlur result="blurOut" stdDeviation="2.0"/><feColorMatrix in="blurOut" result="blurOut2" type="matrix" values="0 0 0 0 0 0 0 0 0 0 0 0 0 0 0 0 0 0 .4 0"/><feOffset dx="4.0" dy="4.0" in="blurOut2" result="blurOut3"/><feBlend in="SourceGraphic" in2="blurOut3" mode="normal"/></filter></defs><g><!--cluster java.util--><polygon fill="#FFFFFF" filter="url(#fk2rxqfme3psb)" points="22,24,88,24,95,46.2969,770,46.2969,770,361,22,361,22,24" style="stroke: #000000; stroke-width: 2.0;"/><line style="stroke: #000000; stroke-width: 2.0;" x1="22" x2="95" y1="46.2969" y2="46.2969"/><text fill="#000000" font-family="sans-serif" font-size="14" font-weight="bold" lengthAdjust="spacingAndGlyphs" textLength="60" x="26" y="38.9951">java.util</text><!--cluster stream--><polygon fill="#FFFFFF" filter="url(#fk2rxqfme3psb)" points="248,67,309,67,316,89.2969,746,89.2969,746,235,248,235,248,67" style="stroke: #000000; stroke-width: 2.0;"/><line style="stroke: #000000; stroke-width: 2.0;" x1="248" x2="316" y1="89.2969" y2="89.2969"/><text fill="#000000" font-family="sans-serif" font-size="14" font-weight="bold" lengthAdjust="spacingAndGlyphs" textLength="55" x="252" y="81.9951">stream</text><!--class Collection--><rect fill="#FEFECE" filter="url(#fk2rxqfme3psb)" height="65.6094" id="Collection" style="stroke: #A80036; stroke-width: 1.5;" width="191" x="38.5" y="127.5"/><ellipse cx="93.75" cy="143.5" fill="#B4A7E5" rx="11" ry="11" style="stroke: #A80036; stroke-width: 1.0;"/><path d="M94.7031,140.2813 L94.7031,146.7969 L96.4219,146.7969 C96.875,146.7969 97.0156,146.8281 97.1875,146.9531 C97.4219,147.125 97.5313,147.375 97.5313,147.6563 C97.5313,148.2188 97.1719,148.5 96.4219,148.5 L91.2813,148.5 C90.875,148.5 90.6719,148.4531 90.5156,148.3281 C90.2969,148.1719 90.1563,147.9063 90.1563,147.6563 C90.1563,147.3594 90.3125,147.0781 90.5625,146.9219 C90.7188,146.8125 90.8438,146.7969 91.2813,146.7969 L93,146.7969 L93,140.2813 L91.2813,140.2813 C90.8594,140.2813 90.6719,140.25 90.5156,140.1406 C90.2969,139.9688 90.1563,139.7188 90.1563,139.4375 C90.1563,139.1563 90.3125,138.8594 90.5625,138.7031 C90.7188,138.6094 90.8438,138.5938 91.2813,138.5938 L96.4219,138.5938 C96.875,138.5938 97.0156,138.625 97.1875,138.7344 C97.4219,138.9063 97.5313,139.1719 97.5313,139.4375 C97.5313,139.7344 97.3906,140.0156 97.125,140.1719 C97,140.25 96.8125,140.2813 96.4219,140.2813 Z "/><text fill="#000000" font-family="sans-serif" font-size="12" font-style="italic" lengthAdjust="spacingAndGlyphs" textLength="61" x="114.25" y="147.6543">Collection</text><rect fill="#FFFFFF" height="15.9688" style="stroke: #000000; stroke-width: 1.0; stroke-dasharray: 2.0,2.0;" width="9" x="223.5" y="124.5"/><text fill="#000000" font-family="sans-serif" font-size="12" font-style="italic" lengthAdjust="spacingAndGlyphs" textLength="7" x="224.5" y="136.6387">T</text><line style="stroke: #A80036; stroke-width: 1.5;" x1="39.5" x2="228.5" y1="159.5" y2="159.5"/><ellipse cx="49.5" cy="171.4023" fill="#84BE84" rx="3" ry="3" style="stroke: #038048; stroke-width: 1.0;"/><text fill="#000000" font-family="sans-serif" font-size="11" font-style="italic" lengthAdjust="spacingAndGlyphs" textLength="122" x="58.5" y="173.7104">stream(): Stream&lt;T&gt;</text><ellipse cx="49.5" cy="184.207" fill="#84BE84" rx="3" ry="3" style="stroke: #038048; stroke-width: 1.0;"/><text fill="#000000" font-family="sans-serif" font-size="11" font-style="italic" lengthAdjust="spacingAndGlyphs" textLength="165" x="58.5" y="186.5151">parallelStream(): Stream&lt;T&gt;</text><!--class Arrays--><rect fill="#FEFECE" filter="url(#fk2rxqfme3psb)" height="65.6094" id="Arrays" style="stroke: #A80036; stroke-width: 1.5;" width="445" x="274.5" y="279"/><ellipse cx="473.25" cy="295" fill="#ADD1B2" rx="11" ry="11" style="stroke: #A80036; stroke-width: 1.0;"/><path d="M475.5938,290.6719 L475.7656,290.75 C475.9844,290.4375 476.1875,290.3438 476.4844,290.3438 C476.7813,290.3438 477.0625,290.4844 477.2188,290.75 C477.3125,290.9063 477.3281,291.0313 477.3281,291.4688 L477.3281,292.8906 C477.3281,293.3125 477.2969,293.5 477.1875,293.6563 C477.0156,293.875 476.75,294.0156 476.4844,294.0156 C476.2656,294.0156 476.0313,293.9063 475.8906,293.7656 C475.75,293.6406 475.7188,293.5156 475.6563,293.1094 C475.5625,292.7031 475.3906,292.4844 474.9063,292.2031 C474.4375,291.9531 473.8281,291.7969 473.25,291.7969 C471.5156,291.7969 470.2656,293.1094 470.2656,294.8906 L470.2656,295.9844 C470.2656,297.6875 471.5625,298.7813 473.6094,298.7813 C474.375,298.7813 475.0625,298.6563 475.4844,298.3906 C475.6719,298.2969 475.6719,298.2969 476.125,297.8125 C476.3125,297.625 476.5156,297.5469 476.7344,297.5469 C477.2031,297.5469 477.5938,297.9375 477.5938,298.3906 C477.5938,298.7813 477.2656,299.2344 476.6875,299.6406 C475.9375,300.1875 474.7813,300.4844 473.5625,300.4844 C470.6719,300.4844 468.5625,298.5938 468.5625,296.0156 L468.5625,294.8906 C468.5625,292.1719 470.5625,290.0938 473.1875,290.0938 C474.0625,290.0938 474.6563,290.2344 475.5938,290.6719 Z "/><text fill="#000000" font-family="sans-serif" font-size="12" lengthAdjust="spacingAndGlyphs" textLength="39" x="493.75" y="299.1543">Arrays</text><line style="stroke: #A80036; stroke-width: 1.5;" x1="275.5" x2="718.5" y1="311" y2="311"/><ellipse cx="285.5" cy="322.9023" fill="#84BE84" rx="3" ry="3" style="stroke: #038048; stroke-width: 1.0;"/><text fill="#000000" font-family="sans-serif" font-size="11" lengthAdjust="spacingAndGlyphs" text-decoration="underline" textLength="210" x="294.5" y="325.2104"> &lt;T&gt; stream(array: T[]): Stream&lt;T&gt;</text><line style="stroke: #000000; stroke-width: 1.0;" x1="294.5" x2="504.5" y1="327.2104" y2="327.2104"/><ellipse cx="285.5" cy="335.707" fill="#84BE84" rx="3" ry="3" style="stroke: #038048; stroke-width: 1.0;"/><text fill="#000000" font-family="sans-serif" font-size="11" lengthAdjust="spacingAndGlyphs" text-decoration="underline" textLength="419" x="294.5" y="338.0151"> &lt;T&gt; stream(array: T[], startInclusive: int, endExclusive: int): Stream&lt;T&gt;</text><line style="stroke: #000000; stroke-width: 1.0;" x1="294.5" x2="713.5" y1="340.0151" y2="340.0151"/><!--class Stream--><rect fill="#FEFECE" filter="url(#fk2rxqfme3psb)" height="116.8281" id="Stream" style="stroke: #A80036; stroke-width: 1.5;" width="465" x="264.5" y="102"/><ellipse cx="464.75" cy="118" fill="#B4A7E5" rx="11" ry="11" style="stroke: #A80036; stroke-width: 1.0;"/><path d="M465.7031,114.7813 L465.7031,121.2969 L467.4219,121.2969 C467.875,121.2969 468.0156,121.3281 468.1875,121.4531 C468.4219,121.625 468.5313,121.875 468.5313,122.1563 C468.5313,122.7188 468.1719,123 467.4219,123 L462.2813,123 C461.875,123 461.6719,122.9531 461.5156,122.8281 C461.2969,122.6719 461.1563,122.4063 461.1563,122.1563 C461.1563,121.8594 461.3125,121.5781 461.5625,121.4219 C461.7188,121.3125 461.8438,121.2969 462.2813,121.2969 L464,121.2969 L464,114.7813 L462.2813,114.7813 C461.8594,114.7813 461.6719,114.75 461.5156,114.6406 C461.2969,114.4688 461.1563,114.2188 461.1563,113.9375 C461.1563,113.6563 461.3125,113.3594 461.5625,113.2031 C461.7188,113.1094 461.8438,113.0938 462.2813,113.0938 L467.4219,113.0938 C467.875,113.0938 468.0156,113.125 468.1875,113.2344 C468.4219,113.4063 468.5313,113.6719 468.5313,113.9375 C468.5313,114.2344 468.3906,114.5156 468.125,114.6719 C468,114.75 467.8125,114.7813 467.4219,114.7813 Z "/><text fill="#000000" font-family="sans-serif" font-size="12" font-style="italic" lengthAdjust="spacingAndGlyphs" textLength="45" x="485.25" y="122.1543">Stream</text><rect fill="#FFFFFF" height="15.9688" style="stroke: #000000; stroke-width: 1.0; stroke-dasharray: 2.0,2.0;" width="9" x="723.5" y="99"/><text fill="#000000" font-family="sans-serif" font-size="12" font-style="italic" lengthAdjust="spacingAndGlyphs" textLength="7" x="724.5" y="111.1387">T</text><line style="stroke: #A80036; stroke-width: 1.5;" x1="265.5" x2="728.5" y1="134" y2="134"/><ellipse cx="275.5" cy="145.9023" fill="#84BE84" rx="3" ry="3" style="stroke: #038048; stroke-width: 1.0;"/><text fill="#000000" font-family="sans-serif" font-size="11" lengthAdjust="spacingAndGlyphs" text-decoration="underline" textLength="147" x="284.5" y="148.2104">&lt;T&gt; empty(): Stream&lt;T&gt;</text><line style="stroke: #000000; stroke-width: 1.0;" x1="284.5" x2="431.5" y1="150.2104" y2="150.2104"/><ellipse cx="275.5" cy="158.707" fill="#84BE84" rx="3" ry="3" style="stroke: #038048; stroke-width: 1.0;"/><text fill="#000000" font-family="sans-serif" font-size="11" lengthAdjust="spacingAndGlyphs" text-decoration="underline" textLength="142" x="284.5" y="161.0151">&lt;T&gt; of(t: T): Stream&lt;T&gt;</text><line style="stroke: #000000; stroke-width: 1.0;" x1="284.5" x2="426.5" y1="163.0151" y2="163.0151"/><ellipse cx="275.5" cy="171.5117" fill="#84BE84" rx="3" ry="3" style="stroke: #038048; stroke-width: 1.0;"/><text fill="#000000" font-family="sans-serif" font-size="11" lengthAdjust="spacingAndGlyphs" text-decoration="underline" textLength="154" x="284.5" y="173.8198">&lt;T&gt; of(t: T...): Stream&lt;T&gt;</text><line style="stroke: #000000; stroke-width: 1.0;" x1="284.5" x2="438.5" y1="175.8198" y2="175.8198"/><ellipse cx="275.5" cy="184.3164" fill="#84BE84" rx="3" ry="3" style="stroke: #038048; stroke-width: 1.0;"/><text fill="#000000" font-family="sans-serif" font-size="11" lengthAdjust="spacingAndGlyphs" text-decoration="underline" textLength="321" x="284.5" y="186.6245">&lt;T&gt; iterate(seed: T, f: UnaryOperator&lt;T&gt;): Stream&lt;T&gt;</text><line style="stroke: #000000; stroke-width: 1.0;" x1="284.5" x2="605.5" y1="188.6245" y2="188.6245"/><ellipse cx="275.5" cy="197.1211" fill="#84BE84" rx="3" ry="3" style="stroke: #038048; stroke-width: 1.0;"/><text fill="#000000" font-family="sans-serif" font-size="11" lengthAdjust="spacingAndGlyphs" text-decoration="underline" textLength="250" x="284.5" y="199.4292">&lt;T&gt; generate(s: Supplier&lt;T&gt;): Stream&lt;T&gt;</text><line style="stroke: #000000; stroke-width: 1.0;" x1="284.5" x2="534.5" y1="201.4292" y2="201.4292"/><ellipse cx="275.5" cy="209.9258" fill="#84BE84" rx="3" ry="3" style="stroke: #038048; stroke-width: 1.0;"/><text fill="#000000" font-family="sans-serif" font-size="11" lengthAdjust="spacingAndGlyphs" text-decoration="underline" textLength="439" x="284.5" y="212.2339">&lt;T&gt; concat(a: Stream&lt;? extends T&gt;, b: Stream&lt;? extends T&gt;): Stream&lt;T&gt;</text><line style="stroke: #000000; stroke-width: 1.0;" x1="284.5" x2="723.5" y1="214.2339" y2="214.2339"/><!--link Stream to Arrays--><!--
@startuml
package "java.util" {
 package "stream" {
  interface Stream<T> {
   + {static} <T> empty(): Stream<T>
   + {static} <T> of(t: T): Stream<T>
   + {static} <T> of(t: T...): Stream<T>
   + {static} <T> iterate(seed: T, f: UnaryOperator<T>): Stream<T>
   + {static} <T> generate(s: Supplier<T>): Stream<T>
   + {static} <T> concat(a: Stream<? extends T>, b: Stream<? extends T>): Stream<T>
  }
 }
 interface Collection<T> {
  + {abstract} stream(): Stream<T>
  + {abstract} parallelStream(): Stream<T>
 }
 class Arrays {
  + {static} <T> stream(array: T[]): Stream<T>
  + {static} <T> stream(array: T[], startInclusive: int, endExclusive: int): Stream<T>
 }
}

Arrays -[hidden]up- Stream

hide empty attributes
hide empty methods
@enduml

PlantUML version 1.2017.20beta4(Unknown compile time)
(GPL source distribution)
Java Runtime: Java(TM) SE Runtime Environment
JVM: Java HotSpot(TM) 64-Bit Server VM
Java Version: 1.7.0_25-b15
Operating System: Linux
Default Encoding: UTF-8
Language: en
Country: US
--></g></svg>