<?xml version="1.0" encoding="UTF-8" standalone="no"?>
<svg xmlns="http://www.w3.org/2000/svg" xmlns:xlink="http://www.w3.org/1999/xlink" contentScriptType="application/ecmascript" contentStyleType="text/css" height="525px" preserveAspectRatio="none" style="width:582px;height:525px;" version="1.1" viewBox="0 0 582 525" width="582px" zoomAndPan="magnify"><defs><filter height="300%" id="f4phbfurt0wss" width="300%" x="-1" y="-1"><feGaussianBlur result="blurOut" stdDeviation="2.0"/><feColorMatrix in="blurOut" result="blurOut2" type="matrix" values="0 0 0 0 0 0 0 0 0 0 0 0 0 0 0 0 0 0 .4 0"/><feOffset dx="4.0" dy="4.0" in="blurOut2" result="blurOut3"/><feBlend in="SourceGraphic" in2="blurOut3" mode="normal"/></filter></defs><g><!--cluster java--><polygon fill="#FFFFFF" filter="url(#f4phbfurt0wss)" points="22,24,59,24,66,46.2969,560,46.2969,560,513,22,513,22,24" style="stroke: #000000; stroke-width: 1.5;"/><line style="stroke: #000000; stroke-width: 1.5;" x1="22" x2="66" y1="46.2969" y2="46.2969"/><text fill="#000000" font-family="sans-serif" font-size="14" font-weight="bold" lengthAdjust="spacingAndGlyphs" textLength="31" x="26" y="38.9951">java</text><!--cluster io--><polygon fill="#FFFFFF" filter="url(#f4phbfurt0wss)" points="349,67,369,67,376,89.2969,485,89.2969,485,150,349,150,349,67" style="stroke: #000000; stroke-width: 1.5;"/><line style="stroke: #000000; stroke-width: 1.5;" x1="349" x2="376" y1="89.2969" y2="89.2969"/><text fill="#000000" font-family="sans-serif" font-size="14" font-weight="bold" lengthAdjust="spacingAndGlyphs" textLength="14" x="353" y="81.9951">io</text><!--cluster lang--><polygon fill="#FFFFFF" filter="url(#f4phbfurt0wss)" points="46,67,85,67,92,89.2969,325,89.2969,325,150,46,150,46,67" style="stroke: #000000; stroke-width: 1.5;"/><line style="stroke: #000000; stroke-width: 1.5;" x1="46" x2="92" y1="89.2969" y2="89.2969"/><text fill="#000000" font-family="sans-serif" font-size="14" font-weight="bold" lengthAdjust="spacingAndGlyphs" textLength="33" x="50" y="81.9951">lang</text><!--cluster util--><polygon fill="#FFFFFF" filter="url(#f4phbfurt0wss)" points="46,174,76,174,83,196.2969,536,196.2969,536,489,46,489,46,174" style="stroke: #000000; stroke-width: 1.5;"/><line style="stroke: #000000; stroke-width: 1.5;" x1="46" x2="83" y1="196.2969" y2="196.2969"/><text fill="#000000" font-family="sans-serif" font-size="14" font-weight="bold" lengthAdjust="spacingAndGlyphs" textLength="24" x="50" y="188.9951">util</text><!--class Serializable--><rect fill="#FEFECE" filter="url(#f4phbfurt0wss)" height="32" id="Serializable" style="stroke: #A80036; stroke-width: 1.5;" width="103" x="365.5" y="102"/><ellipse cx="380.5" cy="118" fill="#B4A7E5" rx="11" ry="11" style="stroke: #A80036; stroke-width: 1.0;"/><path d="M381.4531,114.7813 L381.4531,121.2969 L383.1719,121.2969 C383.625,121.2969 383.7656,121.3281 383.9375,121.4531 C384.1719,121.625 384.2813,121.875 384.2813,122.1563 C384.2813,122.7188 383.9219,123 383.1719,123 L378.0313,123 C377.625,123 377.4219,122.9531 377.2656,122.8281 C377.0469,122.6719 376.9063,122.4063 376.9063,122.1563 C376.9063,121.8594 377.0625,121.5781 377.3125,121.4219 C377.4688,121.3125 377.5938,121.2969 378.0313,121.2969 L379.75,121.2969 L379.75,114.7813 L378.0313,114.7813 C377.6094,114.7813 377.4219,114.75 377.2656,114.6406 C377.0469,114.4688 376.9063,114.2188 376.9063,113.9375 C376.9063,113.6563 377.0625,113.3594 377.3125,113.2031 C377.4688,113.1094 377.5938,113.0938 378.0313,113.0938 L383.1719,113.0938 C383.625,113.0938 383.7656,113.125 383.9375,113.2344 C384.1719,113.4063 384.2813,113.6719 384.2813,113.9375 C384.2813,114.2344 384.1406,114.5156 383.875,114.6719 C383.75,114.75 383.5625,114.7813 383.1719,114.7813 Z "/><text fill="#000000" font-family="sans-serif" font-size="12" font-style="italic" lengthAdjust="spacingAndGlyphs" textLength="71" x="394.5" y="122.1543">Serializable</text><!--class Cloneable--><rect fill="#FEFECE" filter="url(#f4phbfurt0wss)" height="32" id="Cloneable" style="stroke: #A80036; stroke-width: 1.5;" width="94" x="62" y="102"/><ellipse cx="77" cy="118" fill="#B4A7E5" rx="11" ry="11" style="stroke: #A80036; stroke-width: 1.0;"/><path d="M77.9531,114.7813 L77.9531,121.2969 L79.6719,121.2969 C80.125,121.2969 80.2656,121.3281 80.4375,121.4531 C80.6719,121.625 80.7813,121.875 80.7813,122.1563 C80.7813,122.7188 80.4219,123 79.6719,123 L74.5313,123 C74.125,123 73.9219,122.9531 73.7656,122.8281 C73.5469,122.6719 73.4063,122.4063 73.4063,122.1563 C73.4063,121.8594 73.5625,121.5781 73.8125,121.4219 C73.9688,121.3125 74.0938,121.2969 74.5313,121.2969 L76.25,121.2969 L76.25,114.7813 L74.5313,114.7813 C74.1094,114.7813 73.9219,114.75 73.7656,114.6406 C73.5469,114.4688 73.4063,114.2188 73.4063,113.9375 C73.4063,113.6563 73.5625,113.3594 73.8125,113.2031 C73.9688,113.1094 74.0938,113.0938 74.5313,113.0938 L79.6719,113.0938 C80.125,113.0938 80.2656,113.125 80.4375,113.2344 C80.6719,113.4063 80.7813,113.6719 80.7813,113.9375 C80.7813,114.2344 80.6406,114.5156 80.375,114.6719 C80.25,114.75 80.0625,114.7813 79.6719,114.7813 Z "/><text fill="#000000" font-family="sans-serif" font-size="12" font-style="italic" lengthAdjust="spacingAndGlyphs" textLength="62" x="91" y="122.1543">Cloneable</text><!--class Comparable--><rect fill="#FEFECE" filter="url(#f4phbfurt0wss)" height="32" id="Comparable" style="stroke: #A80036; stroke-width: 1.5;" width="118" x="191" y="102"/><ellipse cx="206" cy="118" fill="#B4A7E5" rx="11" ry="11" style="stroke: #A80036; stroke-width: 1.0;"/><path d="M206.9531,114.7813 L206.9531,121.2969 L208.6719,121.2969 C209.125,121.2969 209.2656,121.3281 209.4375,121.4531 C209.6719,121.625 209.7813,121.875 209.7813,122.1563 C209.7813,122.7188 209.4219,123 208.6719,123 L203.5313,123 C203.125,123 202.9219,122.9531 202.7656,122.8281 C202.5469,122.6719 202.4063,122.4063 202.4063,122.1563 C202.4063,121.8594 202.5625,121.5781 202.8125,121.4219 C202.9688,121.3125 203.0938,121.2969 203.5313,121.2969 L205.25,121.2969 L205.25,114.7813 L203.5313,114.7813 C203.1094,114.7813 202.9219,114.75 202.7656,114.6406 C202.5469,114.4688 202.4063,114.2188 202.4063,113.9375 C202.4063,113.6563 202.5625,113.3594 202.8125,113.2031 C202.9688,113.1094 203.0938,113.0938 203.5313,113.0938 L208.6719,113.0938 C209.125,113.0938 209.2656,113.125 209.4375,113.2344 C209.6719,113.4063 209.7813,113.6719 209.7813,113.9375 C209.7813,114.2344 209.6406,114.5156 209.375,114.6719 C209.25,114.75 209.0625,114.7813 208.6719,114.7813 Z "/><text fill="#000000" font-family="sans-serif" font-size="12" font-style="italic" lengthAdjust="spacingAndGlyphs" textLength="75" x="220" y="122.1543">Comparable</text><rect fill="#FFFFFF" height="15.9688" style="stroke: #000000; stroke-width: 1.0; stroke-dasharray: 2.0,2.0;" width="9" x="303" y="99"/><text fill="#000000" font-family="sans-serif" font-size="12" font-style="italic" lengthAdjust="spacingAndGlyphs" textLength="7" x="304" y="111.1387">T</text><!--class Calendar--><rect fill="#FEFECE" filter="url(#f4phbfurt0wss)" height="264.0703" id="Calendar" style="stroke: #A80036; stroke-width: 1.5;" width="211" x="62.5" y="209"/><ellipse cx="135.75" cy="225" fill="#A9DCDF" rx="11" ry="11" style="stroke: #A80036; stroke-width: 1.0;"/><path d="M137.3281,226.8125 L133.2813,226.8125 L132.8906,227.7969 L133.2813,227.7969 C133.7344,227.7969 133.875,227.8281 134.0469,227.9531 C134.2656,228.125 134.3906,228.375 134.3906,228.6563 C134.3906,228.9375 134.25,229.2344 133.9844,229.375 C133.8594,229.4688 133.6406,229.5 133.2813,229.5 L131.0156,229.5 C130.2656,229.5 129.8906,229.2188 129.8906,228.6563 C129.8906,228.3594 130.0469,228.0781 130.2969,227.9219 C130.4531,227.8125 130.6094,227.7969 131.0313,227.7969 L133.6719,221.2813 L132.5938,221.2813 C132.1563,221.2813 131.9844,221.25 131.8125,221.1406 C131.5938,220.9688 131.4531,220.7188 131.4531,220.4375 C131.4531,220.1563 131.6094,219.875 131.8594,219.7031 C132.0156,219.6094 132.1406,219.5938 132.5938,219.5938 L136.2656,219.5938 L139.6563,227.7969 C140.125,227.7969 140.2813,227.8281 140.4531,227.9688 C140.6719,228.125 140.8125,228.375 140.8125,228.6563 C140.8125,228.9375 140.6563,229.2344 140.4063,229.375 C140.2656,229.4688 140.0469,229.5 139.6875,229.5 L137.3281,229.5 C136.9063,229.5 136.7031,229.4531 136.5625,229.3281 C136.3438,229.1719 136.2031,228.9219 136.2031,228.6563 C136.2031,228.3594 136.3594,228.0781 136.6094,227.9219 C136.7656,227.8125 136.875,227.7969 137.3281,227.7969 L137.7188,227.7969 Z M136.625,225.1094 L135.2969,221.8438 L133.9531,225.1094 Z "/><text fill="#000000" font-family="sans-serif" font-size="12" font-style="italic" lengthAdjust="spacingAndGlyphs" textLength="56" x="156.25" y="229.1543">Calendar</text><line style="stroke: #A80036; stroke-width: 1.5;" x1="63.5" x2="272.5" y1="241" y2="241"/><ellipse cx="73.5" cy="252.9023" fill="#84BE84" rx="3" ry="3" style="stroke: #038048; stroke-width: 1.0;"/><text fill="#000000" font-family="sans-serif" font-size="11" lengthAdjust="spacingAndGlyphs" text-decoration="underline" textLength="74" x="82.5" y="255.2104">getInstance()</text><ellipse cx="73.5" cy="265.707" fill="#84BE84" rx="3" ry="3" style="stroke: #038048; stroke-width: 1.0;"/><text fill="#000000" font-family="sans-serif" font-size="11" lengthAdjust="spacingAndGlyphs" text-decoration="underline" textLength="161" x="82.5" y="268.0151">getInstance(aLocale: Locale)</text><line style="stroke: #A80036; stroke-width: 1.0; stroke-dasharray: 1.0,2.0;" x1="63.5" x2="272.5" y1="274.6094" y2="274.6094"/><ellipse cx="73.5" cy="286.5117" fill="#84BE84" rx="3" ry="3" style="stroke: #038048; stroke-width: 1.0;"/><text fill="#000000" font-family="sans-serif" font-size="11" lengthAdjust="spacingAndGlyphs" textLength="112" x="82.5" y="288.8198">isLenient(): boolean</text><ellipse cx="73.5" cy="299.3164" fill="#84BE84" rx="3" ry="3" style="stroke: #038048; stroke-width: 1.0;"/><text fill="#000000" font-family="sans-serif" font-size="11" lengthAdjust="spacingAndGlyphs" textLength="158" x="82.5" y="301.6245">setLenient(lenient: boolean)</text><line style="stroke: #A80036; stroke-width: 1.0; stroke-dasharray: 1.0,2.0;" x1="63.5" x2="272.5" y1="308.2188" y2="308.2188"/><ellipse cx="73.5" cy="320.1211" fill="#84BE84" rx="3" ry="3" style="stroke: #038048; stroke-width: 1.0;"/><text fill="#000000" font-family="sans-serif" font-size="11" lengthAdjust="spacingAndGlyphs" textLength="88" x="82.5" y="322.4292">getTime(): Date</text><ellipse cx="73.5" cy="332.9258" fill="#84BE84" rx="3" ry="3" style="stroke: #038048; stroke-width: 1.0;"/><text fill="#000000" font-family="sans-serif" font-size="11" lengthAdjust="spacingAndGlyphs" textLength="124" x="82.5" y="335.2339">getTimeInMillis(): long</text><ellipse cx="73.5" cy="345.7305" fill="#84BE84" rx="3" ry="3" style="stroke: #038048; stroke-width: 1.0;"/><text fill="#000000" font-family="sans-serif" font-size="11" lengthAdjust="spacingAndGlyphs" textLength="150" x="82.5" y="348.0386">getTimeZone(): TimeZone</text><ellipse cx="73.5" cy="358.5352" fill="#84BE84" rx="3" ry="3" style="stroke: #038048; stroke-width: 1.0;"/><text fill="#000000" font-family="sans-serif" font-size="11" lengthAdjust="spacingAndGlyphs" textLength="113" x="82.5" y="360.8433">setTime(date: Date)</text><ellipse cx="73.5" cy="371.3398" fill="#84BE84" rx="3" ry="3" style="stroke: #038048; stroke-width: 1.0;"/><text fill="#000000" font-family="sans-serif" font-size="11" lengthAdjust="spacingAndGlyphs" textLength="154" x="82.5" y="373.6479">setTimeInMillis(millis: long)</text><ellipse cx="73.5" cy="384.1445" fill="#84BE84" rx="3" ry="3" style="stroke: #038048; stroke-width: 1.0;"/><text fill="#000000" font-family="sans-serif" font-size="11" lengthAdjust="spacingAndGlyphs" textLength="180" x="82.5" y="386.4526">setTimeZone(value: TimeZone)</text><line style="stroke: #A80036; stroke-width: 1.0; stroke-dasharray: 1.0,2.0;" x1="63.5" x2="272.5" y1="393.0469" y2="393.0469"/><ellipse cx="73.5" cy="404.9492" fill="#84BE84" rx="3" ry="3" style="stroke: #038048; stroke-width: 1.0;"/><text fill="#000000" font-family="sans-serif" font-size="11" lengthAdjust="spacingAndGlyphs" textLength="78" x="82.5" y="407.2573">clear(int field)</text><ellipse cx="73.5" cy="417.7539" fill="#84BE84" rx="3" ry="3" style="stroke: #038048; stroke-width: 1.0;"/><text fill="#000000" font-family="sans-serif" font-size="11" font-style="italic" lengthAdjust="spacingAndGlyphs" textLength="148" x="82.5" y="420.062">add(field: int, amount: int)</text><ellipse cx="73.5" cy="430.5586" fill="#84BE84" rx="3" ry="3" style="stroke: #038048; stroke-width: 1.0;"/><text fill="#000000" font-family="sans-serif" font-size="11" font-style="italic" lengthAdjust="spacingAndGlyphs" textLength="147" x="82.5" y="432.8667">roll(field: int, up: boolean)</text><ellipse cx="73.5" cy="443.3633" fill="#84BE84" rx="3" ry="3" style="stroke: #038048; stroke-width: 1.0;"/><text fill="#000000" font-family="sans-serif" font-size="11" lengthAdjust="spacingAndGlyphs" textLength="132" x="82.5" y="445.6714">set(field: int, value: int)</text><line style="stroke: #A80036; stroke-width: 1.0; stroke-dasharray: 1.0,2.0;" x1="63.5" x2="272.5" y1="452.2656" y2="452.2656"/><ellipse cx="73.5" cy="464.168" fill="#84BE84" rx="3" ry="3" style="stroke: #038048; stroke-width: 1.0;"/><text fill="#000000" font-family="sans-serif" font-size="11" lengthAdjust="spacingAndGlyphs" textLength="185" x="82.5" y="466.4761">isWeekDateSupported(): boolean</text><!--class GregorianCalendar--><rect fill="#FEFECE" filter="url(#f4phbfurt0wss)" height="78.4141" id="GregorianCalendar" style="stroke: #A80036; stroke-width: 1.5;" width="211" x="308.5" y="302"/><ellipse cx="350.95" cy="318" fill="#ADD1B2" rx="11" ry="11" style="stroke: #A80036; stroke-width: 1.0;"/><path d="M353.2938,313.6719 L353.4656,313.75 C353.6844,313.4375 353.8875,313.3438 354.1844,313.3438 C354.4813,313.3438 354.7625,313.4844 354.9188,313.75 C355.0125,313.9063 355.0281,314.0313 355.0281,314.4688 L355.0281,315.8906 C355.0281,316.3125 354.9969,316.5 354.8875,316.6563 C354.7156,316.875 354.45,317.0156 354.1844,317.0156 C353.9656,317.0156 353.7313,316.9063 353.5906,316.7656 C353.45,316.6406 353.4188,316.5156 353.3563,316.1094 C353.2625,315.7031 353.0906,315.4844 352.6063,315.2031 C352.1375,314.9531 351.5281,314.7969 350.95,314.7969 C349.2156,314.7969 347.9656,316.1094 347.9656,317.8906 L347.9656,318.9844 C347.9656,320.6875 349.2625,321.7813 351.3094,321.7813 C352.075,321.7813 352.7625,321.6563 353.1844,321.3906 C353.3719,321.2969 353.3719,321.2969 353.825,320.8125 C354.0125,320.625 354.2156,320.5469 354.4344,320.5469 C354.9031,320.5469 355.2938,320.9375 355.2938,321.3906 C355.2938,321.7813 354.9656,322.2344 354.3875,322.6406 C353.6375,323.1875 352.4813,323.4844 351.2625,323.4844 C348.3719,323.4844 346.2625,321.5938 346.2625,319.0156 L346.2625,317.8906 C346.2625,315.1719 348.2625,313.0938 350.8875,313.0938 C351.7625,313.0938 352.3563,313.2344 353.2938,313.6719 Z "/><text fill="#000000" font-family="sans-serif" font-size="12" lengthAdjust="spacingAndGlyphs" textLength="118" x="371.05" y="322.1543">GregorianCalendar</text><line style="stroke: #A80036; stroke-width: 1.5;" x1="309.5" x2="518.5" y1="334" y2="334"/><ellipse cx="319.5" cy="345.9023" fill="#84BE84" rx="3" ry="3" style="stroke: #038048; stroke-width: 1.0;"/><text fill="#000000" font-family="sans-serif" font-size="11" lengthAdjust="spacingAndGlyphs" textLength="118" x="328.5" y="348.2104">isLeapYear(year: int)</text><ellipse cx="319.5" cy="358.707" fill="#84BE84" rx="3" ry="3" style="stroke: #038048; stroke-width: 1.0;"/><text fill="#000000" font-family="sans-serif" font-size="11" lengthAdjust="spacingAndGlyphs" textLength="160" x="328.5" y="361.0151">getGregorianChange(): Date</text><ellipse cx="319.5" cy="371.5117" fill="#84BE84" rx="3" ry="3" style="stroke: #038048; stroke-width: 1.0;"/><text fill="#000000" font-family="sans-serif" font-size="11" lengthAdjust="spacingAndGlyphs" textLength="185" x="328.5" y="373.8198">setGregorianChange(date: Date)</text><!--link Cloneable to Calendar--><path d="M118.221,153.54 C122.366,169.067 127.547,188.471 132.986,208.847 " fill="none" id="Cloneable-Calendar" style="stroke: #A80036; stroke-width: 1.0; stroke-dasharray: 7.0,7.0;"/><polygon fill="none" points="111.451,155.319,113.055,134.19,124.977,151.708,111.451,155.319" style="stroke: #A80036; stroke-width: 1.0;"/><!--link Comparable to Calendar--><path d="M237.384,153.003 C231.59,168.618 224.311,188.235 216.663,208.847 " fill="none" id="Comparable-Calendar" style="stroke: #A80036; stroke-width: 1.0; stroke-dasharray: 7.0,7.0;"/><polygon fill="none" points="230.844,150.506,244.364,134.19,243.969,155.376,230.844,150.506" style="stroke: #A80036; stroke-width: 1.0;"/><!--link Serializable to Calendar--><path d="M366.642,142.165 C353.277,147.809 338.737,153.508 325,158 C310.245,162.825 303.871,157.321 291,166 C273.67,177.686 257.999,192.689 244.097,208.975 " fill="none" id="Serializable-Calendar" style="stroke: #A80036; stroke-width: 1.0; stroke-dasharray: 7.0,7.0;"/><polygon fill="none" points="364.023,135.671,385.153,134.081,369.626,148.501,364.023,135.671" style="stroke: #A80036; stroke-width: 1.0;"/><!--link Calendar to GregorianCalendar--><path d="M293.933,341 C298.699,341 303.464,341 308.229,341 " fill="none" id="Calendar-GregorianCalendar" style="stroke: #A80036; stroke-width: 1.0;"/><polygon fill="none" points="293.703,348,273.703,341,293.703,334,293.703,348" style="stroke: #A80036; stroke-width: 1.0;"/><!--
@startuml
package java {
 package io {
  interface Serializable
 }
 package lang {
  interface Cloneable
  interface Comparable<T>
 }
 package util {
  abstract class Calendar {
   +{static} getInstance()
   +{static} getInstance(aLocale: Locale)
....
   + isLenient(): boolean
   + setLenient(lenient: boolean)
....
   + getTime(): Date
   + getTimeInMillis(): long
   + getTimeZone(): TimeZone
   + setTime(date: Date)
   + setTimeInMillis(millis: long)
   + setTimeZone(value: TimeZone)
....
   + clear(int field)
   +{abstract} add(field: int, amount: int)
   +{abstract} roll(field: int, up: boolean)
   + set(field: int, value: int)
....
   + isWeekDateSupported(): boolean
  }
  class GregorianCalendar {
   + isLeapYear(year: int)
   + getGregorianChange(): Date
   + setGregorianChange(date: Date)
  }
 }
}
Calendar .up.|> Cloneable
Calendar .up.|> Comparable
Calendar .up.|> Serializable
GregorianCalendar -left-|> Calendar
hide empty members
@enduml

PlantUML version 1.2019.08(Sat Jul 13 19:25:14 UTC 2019)
(GPL source distribution)
Java Runtime: Java(TM) SE Runtime Environment
JVM: Java HotSpot(TM) 64-Bit Server VM
Java Version: 1.7.0_25-b15
Operating System: Linux
Default Encoding: UTF-8
Language: en
Country: US
--></g></svg>