<?xml version="1.0" encoding="UTF-8" standalone="no"?>
<svg xmlns="http://www.w3.org/2000/svg" xmlns:xlink="http://www.w3.org/1999/xlink" contentScriptType="application/ecmascript" contentStyleType="text/css" height="399px" preserveAspectRatio="none" style="width:531px;height:399px;" version="1.1" viewBox="0 0 531 399" width="531px" zoomAndPan="magnify"><defs><filter height="300%" id="ftfnyc6dviqkw" width="300%" x="-1" y="-1"><feGaussianBlur result="blurOut" stdDeviation="2.0"/><feColorMatrix in="blurOut" result="blurOut2" type="matrix" values="0 0 0 0 0 0 0 0 0 0 0 0 0 0 0 0 0 0 .4 0"/><feOffset dx="4.0" dy="4.0" in="blurOut2" result="blurOut3"/><feBlend in="SourceGraphic" in2="blurOut3" mode="normal"/></filter></defs><g><!--cluster java--><polygon fill="#FFFFFF" filter="url(#ftfnyc6dviqkw)" points="22,24,59,24,66,46.2969,509,46.2969,509,387,22,387,22,24" style="stroke: #000000; stroke-width: 1.5;"/><line style="stroke: #000000; stroke-width: 1.5;" x1="22" x2="66" y1="46.2969" y2="46.2969"/><text fill="#000000" font-family="sans-serif" font-size="14" font-weight="bold" lengthAdjust="spacingAndGlyphs" textLength="31" x="26" y="38.9951">java</text><!--cluster io--><polygon fill="#FFFFFF" filter="url(#ftfnyc6dviqkw)" points="349,67,369,67,376,89.2969,485,89.2969,485,150,349,150,349,67" style="stroke: #000000; stroke-width: 1.5;"/><line style="stroke: #000000; stroke-width: 1.5;" x1="349" x2="376" y1="89.2969" y2="89.2969"/><text fill="#000000" font-family="sans-serif" font-size="14" font-weight="bold" lengthAdjust="spacingAndGlyphs" textLength="14" x="353" y="81.9951">io</text><!--cluster lang--><polygon fill="#FFFFFF" filter="url(#ftfnyc6dviqkw)" points="46,67,85,67,92,89.2969,325,89.2969,325,150,46,150,46,67" style="stroke: #000000; stroke-width: 1.5;"/><line style="stroke: #000000; stroke-width: 1.5;" x1="46" x2="92" y1="89.2969" y2="89.2969"/><text fill="#000000" font-family="sans-serif" font-size="14" font-weight="bold" lengthAdjust="spacingAndGlyphs" textLength="33" x="50" y="81.9951">lang</text><!--cluster util--><polygon fill="#FFFFFF" filter="url(#ftfnyc6dviqkw)" points="142,174,172,174,179,196.2969,358,196.2969,358,363,142,363,142,174" style="stroke: #000000; stroke-width: 1.5;"/><line style="stroke: #000000; stroke-width: 1.5;" x1="142" x2="179" y1="196.2969" y2="196.2969"/><text fill="#000000" font-family="sans-serif" font-size="14" font-weight="bold" lengthAdjust="spacingAndGlyphs" textLength="24" x="146" y="188.9951">util</text><!--class Serializable--><rect fill="#FEFECE" filter="url(#ftfnyc6dviqkw)" height="32" id="Serializable" style="stroke: #A80036; stroke-width: 1.5;" width="103" x="365.5" y="102"/><ellipse cx="380.5" cy="118" fill="#B4A7E5" rx="11" ry="11" style="stroke: #A80036; stroke-width: 1.0;"/><path d="M381.4531,114.7813 L381.4531,121.2969 L383.1719,121.2969 C383.625,121.2969 383.7656,121.3281 383.9375,121.4531 C384.1719,121.625 384.2813,121.875 384.2813,122.1563 C384.2813,122.7188 383.9219,123 383.1719,123 L378.0313,123 C377.625,123 377.4219,122.9531 377.2656,122.8281 C377.0469,122.6719 376.9063,122.4063 376.9063,122.1563 C376.9063,121.8594 377.0625,121.5781 377.3125,121.4219 C377.4688,121.3125 377.5938,121.2969 378.0313,121.2969 L379.75,121.2969 L379.75,114.7813 L378.0313,114.7813 C377.6094,114.7813 377.4219,114.75 377.2656,114.6406 C377.0469,114.4688 376.9063,114.2188 376.9063,113.9375 C376.9063,113.6563 377.0625,113.3594 377.3125,113.2031 C377.4688,113.1094 377.5938,113.0938 378.0313,113.0938 L383.1719,113.0938 C383.625,113.0938 383.7656,113.125 383.9375,113.2344 C384.1719,113.4063 384.2813,113.6719 384.2813,113.9375 C384.2813,114.2344 384.1406,114.5156 383.875,114.6719 C383.75,114.75 383.5625,114.7813 383.1719,114.7813 Z "/><text fill="#000000" font-family="sans-serif" font-size="12" font-style="italic" lengthAdjust="spacingAndGlyphs" textLength="71" x="394.5" y="122.1543">Serializable</text><!--class Cloneable--><rect fill="#FEFECE" filter="url(#ftfnyc6dviqkw)" height="32" id="Cloneable" style="stroke: #A80036; stroke-width: 1.5;" width="94" x="62" y="102"/><ellipse cx="77" cy="118" fill="#B4A7E5" rx="11" ry="11" style="stroke: #A80036; stroke-width: 1.0;"/><path d="M77.9531,114.7813 L77.9531,121.2969 L79.6719,121.2969 C80.125,121.2969 80.2656,121.3281 80.4375,121.4531 C80.6719,121.625 80.7813,121.875 80.7813,122.1563 C80.7813,122.7188 80.4219,123 79.6719,123 L74.5313,123 C74.125,123 73.9219,122.9531 73.7656,122.8281 C73.5469,122.6719 73.4063,122.4063 73.4063,122.1563 C73.4063,121.8594 73.5625,121.5781 73.8125,121.4219 C73.9688,121.3125 74.0938,121.2969 74.5313,121.2969 L76.25,121.2969 L76.25,114.7813 L74.5313,114.7813 C74.1094,114.7813 73.9219,114.75 73.7656,114.6406 C73.5469,114.4688 73.4063,114.2188 73.4063,113.9375 C73.4063,113.6563 73.5625,113.3594 73.8125,113.2031 C73.9688,113.1094 74.0938,113.0938 74.5313,113.0938 L79.6719,113.0938 C80.125,113.0938 80.2656,113.125 80.4375,113.2344 C80.6719,113.4063 80.7813,113.6719 80.7813,113.9375 C80.7813,114.2344 80.6406,114.5156 80.375,114.6719 C80.25,114.75 80.0625,114.7813 79.6719,114.7813 Z "/><text fill="#000000" font-family="sans-serif" font-size="12" font-style="italic" lengthAdjust="spacingAndGlyphs" textLength="62" x="91" y="122.1543">Cloneable</text><!--class Comparable--><rect fill="#FEFECE" filter="url(#ftfnyc6dviqkw)" height="32" id="Comparable" style="stroke: #A80036; stroke-width: 1.5;" width="118" x="191" y="102"/><ellipse cx="206" cy="118" fill="#B4A7E5" rx="11" ry="11" style="stroke: #A80036; stroke-width: 1.0;"/><path d="M206.9531,114.7813 L206.9531,121.2969 L208.6719,121.2969 C209.125,121.2969 209.2656,121.3281 209.4375,121.4531 C209.6719,121.625 209.7813,121.875 209.7813,122.1563 C209.7813,122.7188 209.4219,123 208.6719,123 L203.5313,123 C203.125,123 202.9219,122.9531 202.7656,122.8281 C202.5469,122.6719 202.4063,122.4063 202.4063,122.1563 C202.4063,121.8594 202.5625,121.5781 202.8125,121.4219 C202.9688,121.3125 203.0938,121.2969 203.5313,121.2969 L205.25,121.2969 L205.25,114.7813 L203.5313,114.7813 C203.1094,114.7813 202.9219,114.75 202.7656,114.6406 C202.5469,114.4688 202.4063,114.2188 202.4063,113.9375 C202.4063,113.6563 202.5625,113.3594 202.8125,113.2031 C202.9688,113.1094 203.0938,113.0938 203.5313,113.0938 L208.6719,113.0938 C209.125,113.0938 209.2656,113.125 209.4375,113.2344 C209.6719,113.4063 209.7813,113.6719 209.7813,113.9375 C209.7813,114.2344 209.6406,114.5156 209.375,114.6719 C209.25,114.75 209.0625,114.7813 208.6719,114.7813 Z "/><text fill="#000000" font-family="sans-serif" font-size="12" font-style="italic" lengthAdjust="spacingAndGlyphs" textLength="75" x="220" y="122.1543">Comparable</text><rect fill="#FFFFFF" height="15.9688" style="stroke: #000000; stroke-width: 1.0; stroke-dasharray: 2.0,2.0;" width="9" x="303" y="99"/><text fill="#000000" font-family="sans-serif" font-size="12" font-style="italic" lengthAdjust="spacingAndGlyphs" textLength="7" x="304" y="111.1387">T</text><!--class Date--><rect fill="#FEFECE" filter="url(#ftfnyc6dviqkw)" height="137.6328" id="Date" style="stroke: #A80036; stroke-width: 1.5;" width="184" x="158" y="209"/><ellipse cx="230.75" cy="225" fill="#ADD1B2" rx="11" ry="11" style="stroke: #A80036; stroke-width: 1.0;"/><path d="M233.0938,220.6719 L233.2656,220.75 C233.4844,220.4375 233.6875,220.3438 233.9844,220.3438 C234.2813,220.3438 234.5625,220.4844 234.7188,220.75 C234.8125,220.9063 234.8281,221.0313 234.8281,221.4688 L234.8281,222.8906 C234.8281,223.3125 234.7969,223.5 234.6875,223.6563 C234.5156,223.875 234.25,224.0156 233.9844,224.0156 C233.7656,224.0156 233.5313,223.9063 233.3906,223.7656 C233.25,223.6406 233.2188,223.5156 233.1563,223.1094 C233.0625,222.7031 232.8906,222.4844 232.4063,222.2031 C231.9375,221.9531 231.3281,221.7969 230.75,221.7969 C229.0156,221.7969 227.7656,223.1094 227.7656,224.8906 L227.7656,225.9844 C227.7656,227.6875 229.0625,228.7813 231.1094,228.7813 C231.875,228.7813 232.5625,228.6563 232.9844,228.3906 C233.1719,228.2969 233.1719,228.2969 233.625,227.8125 C233.8125,227.625 234.0156,227.5469 234.2344,227.5469 C234.7031,227.5469 235.0938,227.9375 235.0938,228.3906 C235.0938,228.7813 234.7656,229.2344 234.1875,229.6406 C233.4375,230.1875 232.2813,230.4844 231.0625,230.4844 C228.1719,230.4844 226.0625,228.5938 226.0625,226.0156 L226.0625,224.8906 C226.0625,222.1719 228.0625,220.0938 230.6875,220.0938 C231.5625,220.0938 232.1563,220.2344 233.0938,220.6719 Z "/><text fill="#000000" font-family="sans-serif" font-size="12" lengthAdjust="spacingAndGlyphs" textLength="30" x="251.25" y="229.1543">Date</text><line style="stroke: #A80036; stroke-width: 1.5;" x1="159" x2="341" y1="241" y2="241"/><ellipse cx="169" cy="252.9023" fill="#84BE84" rx="3" ry="3" style="stroke: #038048; stroke-width: 1.0;"/><text fill="#000000" font-family="sans-serif" font-size="11" lengthAdjust="spacingAndGlyphs" textLength="34" x="178" y="255.2104">Date()</text><ellipse cx="169" cy="265.707" fill="#84BE84" rx="3" ry="3" style="stroke: #038048; stroke-width: 1.0;"/><text fill="#000000" font-family="sans-serif" font-size="11" lengthAdjust="spacingAndGlyphs" textLength="91" x="178" y="268.0151">Date(long: date)</text><ellipse cx="169" cy="278.5117" fill="#84BE84" rx="3" ry="3" style="stroke: #038048; stroke-width: 1.0;"/><text fill="#000000" font-family="sans-serif" font-size="11" lengthAdjust="spacingAndGlyphs" textLength="148" x="178" y="280.8198">after(Date when): boolean</text><ellipse cx="169" cy="291.3164" fill="#84BE84" rx="3" ry="3" style="stroke: #038048; stroke-width: 1.0;"/><text fill="#000000" font-family="sans-serif" font-size="11" lengthAdjust="spacingAndGlyphs" textLength="158" x="178" y="293.6245">before(Date when): boolean</text><ellipse cx="169" cy="304.1211" fill="#84BE84" rx="3" ry="3" style="stroke: #038048; stroke-width: 1.0;"/><text fill="#000000" font-family="sans-serif" font-size="11" lengthAdjust="spacingAndGlyphs" textLength="86" x="178" y="306.4292">getTime(): long</text><ellipse cx="169" cy="316.9258" fill="#84BE84" rx="3" ry="3" style="stroke: #038048; stroke-width: 1.0;"/><text fill="#000000" font-family="sans-serif" font-size="11" lengthAdjust="spacingAndGlyphs" textLength="111" x="178" y="319.2339">setTime(long: time)</text><line style="stroke: #A80036; stroke-width: 1.0; stroke-dasharray: 1.0,2.0;" x1="159" x2="341" y1="325.8281" y2="325.8281"/><text fill="#000000" font-family="sans-serif" font-size="11" font-style="italic" lengthAdjust="spacingAndGlyphs" textLength="169" x="164" y="340.0386">A lot of deprecated accessors</text><!--link Cloneable to Date--><path d="M135.947,149.195 C151.025,166.092 170.474,187.886 189.027,208.675 " fill="none" id="Cloneable-Date" style="stroke: #A80036; stroke-width: 1.0; stroke-dasharray: 7.0,7.0;"/><polygon fill="none" points="130.614,153.733,122.52,134.15,141.059,144.411,130.614,153.733" style="stroke: #A80036; stroke-width: 1.0;"/><!--link Comparable to Date--><path d="M250,154.35 C250,170.396 250,189.943 250,208.675 " fill="none" id="Comparable-Date" style="stroke: #A80036; stroke-width: 1.0; stroke-dasharray: 7.0,7.0;"/><polygon fill="none" points="243,154.15,250,134.15,257,154.15,243,154.15" style="stroke: #A80036; stroke-width: 1.0;"/><!--link Serializable to Date--><path d="M386.194,148.146 C368.186,165.184 344.648,187.453 322.217,208.675 " fill="none" id="Serializable-Date" style="stroke: #A80036; stroke-width: 1.0; stroke-dasharray: 7.0,7.0;"/><polygon fill="none" points="381.648,142.81,400.987,134.15,391.27,152.98,381.648,142.81" style="stroke: #A80036; stroke-width: 1.0;"/><!--
@startuml
package java {
 package io {
  interface Serializable
 }
 package lang {
  interface Cloneable
  interface Comparable<T>
 }
 package util {
  class Date {
   + Date()
   + Date(long: date)
   + after(Date when): boolean
   + before(Date when): boolean
   + getTime(): long
   + setTime(long: time)
....
   <i>A lot of deprecated accessors</i>
  }
 }
}
Date .up.|> Cloneable
Date .up.|> Comparable
Date .up.|> Serializable
hide empty members
@enduml

PlantUML version 1.2019.08(Sat Jul 13 19:25:14 UTC 2019)
(GPL source distribution)
Java Runtime: Java(TM) SE Runtime Environment
JVM: Java HotSpot(TM) 64-Bit Server VM
Java Version: 1.7.0_25-b15
Operating System: Linux
Default Encoding: UTF-8
Language: en
Country: US
--></g></svg>