<?xml version="1.0" encoding="UTF-8" standalone="no"?>
<svg xmlns="http://www.w3.org/2000/svg" xmlns:xlink="http://www.w3.org/1999/xlink" contentScriptType="application/ecmascript" contentStyleType="text/css" height="734px" preserveAspectRatio="none" style="width:918px;height:734px;" version="1.1" viewBox="0 0 918 734" width="918px" zoomAndPan="magnify"><defs><filter height="300%" id="fqvtc6gru1zuy" width="300%" x="-1" y="-1"><feGaussianBlur result="blurOut" stdDeviation="2.0"/><feColorMatrix in="blurOut" result="blurOut2" type="matrix" values="0 0 0 0 0 0 0 0 0 0 0 0 0 0 0 0 0 0 .4 0"/><feOffset dx="4.0" dy="4.0" in="blurOut2" result="blurOut3"/><feBlend in="SourceGraphic" in2="blurOut3" mode="normal"/></filter></defs><g><!--cluster java.time--><polygon fill="#FFFFFF" filter="url(#fqvtc6gru1zuy)" points="22,24,98,24,105,46.2969,896,46.2969,896,722,22,722,22,24" style="stroke: #000000; stroke-width: 1.5;"/><line style="stroke: #000000; stroke-width: 1.5;" x1="22" x2="105" y1="46.2969" y2="46.2969"/><text fill="#000000" font-family="sans-serif" font-size="14" font-weight="bold" lengthAdjust="spacingAndGlyphs" textLength="70" x="26" y="38.9951">java.time</text><!--cluster temporal--><polygon fill="#FFFFFF" filter="url(#fqvtc6gru1zuy)" points="135,67,211,67,218,89.2969,745,89.2969,745,230,135,230,135,67" style="stroke: #000000; stroke-width: 1.5;"/><line style="stroke: #000000; stroke-width: 1.5;" x1="135" x2="218" y1="89.2969" y2="89.2969"/><text fill="#000000" font-family="sans-serif" font-size="14" font-weight="bold" lengthAdjust="spacingAndGlyphs" textLength="70" x="139" y="81.9951">temporal</text><!--cluster chrono--><polygon fill="#FFFFFF" filter="url(#fqvtc6gru1zuy)" points="476,281,538,281,545,303.2969,872,303.2969,872,398,476,398,476,281" style="stroke: #000000; stroke-width: 1.5;"/><line style="stroke: #000000; stroke-width: 1.5;" x1="476" x2="545" y1="303.2969" y2="303.2969"/><text fill="#000000" font-family="sans-serif" font-size="14" font-weight="bold" lengthAdjust="spacingAndGlyphs" textLength="56" x="480" y="295.9951">chrono</text><!--class Duration--><rect fill="#FEFECE" filter="url(#fqvtc6gru1zuy)" height="150.4375" id="Duration" style="stroke: #A80036; stroke-width: 1.5;" width="419" x="38.5" y="274"/><ellipse cx="216.75" cy="290" fill="#ADD1B2" rx="11" ry="11" style="stroke: #A80036; stroke-width: 1.0;"/><path d="M219.0938,285.6719 L219.2656,285.75 C219.4844,285.4375 219.6875,285.3438 219.9844,285.3438 C220.2813,285.3438 220.5625,285.4844 220.7188,285.75 C220.8125,285.9063 220.8281,286.0313 220.8281,286.4688 L220.8281,287.8906 C220.8281,288.3125 220.7969,288.5 220.6875,288.6563 C220.5156,288.875 220.25,289.0156 219.9844,289.0156 C219.7656,289.0156 219.5313,288.9063 219.3906,288.7656 C219.25,288.6406 219.2188,288.5156 219.1563,288.1094 C219.0625,287.7031 218.8906,287.4844 218.4063,287.2031 C217.9375,286.9531 217.3281,286.7969 216.75,286.7969 C215.0156,286.7969 213.7656,288.1094 213.7656,289.8906 L213.7656,290.9844 C213.7656,292.6875 215.0625,293.7813 217.1094,293.7813 C217.875,293.7813 218.5625,293.6563 218.9844,293.3906 C219.1719,293.2969 219.1719,293.2969 219.625,292.8125 C219.8125,292.625 220.0156,292.5469 220.2344,292.5469 C220.7031,292.5469 221.0938,292.9375 221.0938,293.3906 C221.0938,293.7813 220.7656,294.2344 220.1875,294.6406 C219.4375,295.1875 218.2813,295.4844 217.0625,295.4844 C214.1719,295.4844 212.0625,293.5938 212.0625,291.0156 L212.0625,289.8906 C212.0625,287.1719 214.0625,285.0938 216.6875,285.0938 C217.5625,285.0938 218.1563,285.2344 219.0938,285.6719 Z "/><text fill="#000000" font-family="sans-serif" font-size="12" lengthAdjust="spacingAndGlyphs" textLength="54" x="237.25" y="294.1543">Duration</text><line style="stroke: #A80036; stroke-width: 1.5;" x1="39.5" x2="456.5" y1="306" y2="306"/><ellipse cx="49.5" cy="317.9023" fill="none" rx="3" ry="3" style="stroke: #038048; stroke-width: 1.0;"/><text fill="#000000" font-family="sans-serif" font-size="11" lengthAdjust="spacingAndGlyphs" text-decoration="underline" textLength="88" x="58.5" y="320.2104">ZERO: Duration</text><ellipse cx="49.5" cy="330.707" fill="#84BE84" rx="3" ry="3" style="stroke: #038048; stroke-width: 1.0;"/><text fill="#000000" font-family="sans-serif" font-size="11" lengthAdjust="spacingAndGlyphs" text-decoration="underline" textLength="393" x="58.5" y="333.0151">between(startInclusive: Temporal, endExclusive: Temporal): Duration</text><ellipse cx="49.5" cy="343.5117" fill="#84BE84" rx="3" ry="3" style="stroke: #038048; stroke-width: 1.0;"/><text fill="#000000" font-family="sans-serif" font-size="11" lengthAdjust="spacingAndGlyphs" text-decoration="underline" textLength="207" x="58.5" y="345.8198">of(amount: long, unit: TemporalUnit)</text><ellipse cx="49.5" cy="356.3164" fill="#84BE84" rx="3" ry="3" style="stroke: #038048; stroke-width: 1.0;"/><text fill="#000000" font-family="sans-serif" font-size="11" lengthAdjust="spacingAndGlyphs" text-decoration="underline" textLength="239" x="58.5" y="358.6245">from(amount: TemporalAmount): Duration</text><line style="stroke: #A80036; stroke-width: 1.0; stroke-dasharray: 1.0,2.0;" x1="39.5" x2="456.5" y1="365.2188" y2="365.2188"/><ellipse cx="49.5" cy="377.1211" fill="#84BE84" rx="3" ry="3" style="stroke: #038048; stroke-width: 1.0;"/><text fill="#000000" font-family="sans-serif" font-size="11" lengthAdjust="spacingAndGlyphs" textLength="85" x="58.5" y="379.4292">abs(): Duration</text><ellipse cx="49.5" cy="389.9258" fill="#84BE84" rx="3" ry="3" style="stroke: #038048; stroke-width: 1.0;"/><text fill="#000000" font-family="sans-serif" font-size="11" lengthAdjust="spacingAndGlyphs" textLength="202" x="58.5" y="392.2339">minus(duration: Duration): Duration</text><ellipse cx="49.5" cy="402.7305" fill="#84BE84" rx="3" ry="3" style="stroke: #038048; stroke-width: 1.0;"/><text fill="#000000" font-family="sans-serif" font-size="11" lengthAdjust="spacingAndGlyphs" textLength="191" x="58.5" y="405.0386">plus(duration: Duration): Duration</text><ellipse cx="49.5" cy="415.5352" fill="#84BE84" rx="3" ry="3" style="stroke: #038048; stroke-width: 1.0;"/><text fill="#000000" font-family="sans-serif" font-size="11" lengthAdjust="spacingAndGlyphs" textLength="110" x="58.5" y="417.8433">negated(): Duration</text><!--class Period--><rect fill="#FEFECE" filter="url(#fqvtc6gru1zuy)" height="222.4609" id="Period" style="stroke: #A80036; stroke-width: 1.5;" width="461" x="418.5" y="484"/><ellipse cx="624.75" cy="500" fill="#ADD1B2" rx="11" ry="11" style="stroke: #A80036; stroke-width: 1.0;"/><path d="M627.0938,495.6719 L627.2656,495.75 C627.4844,495.4375 627.6875,495.3438 627.9844,495.3438 C628.2813,495.3438 628.5625,495.4844 628.7188,495.75 C628.8125,495.9063 628.8281,496.0313 628.8281,496.4688 L628.8281,497.8906 C628.8281,498.3125 628.7969,498.5 628.6875,498.6563 C628.5156,498.875 628.25,499.0156 627.9844,499.0156 C627.7656,499.0156 627.5313,498.9063 627.3906,498.7656 C627.25,498.6406 627.2188,498.5156 627.1563,498.1094 C627.0625,497.7031 626.8906,497.4844 626.4063,497.2031 C625.9375,496.9531 625.3281,496.7969 624.75,496.7969 C623.0156,496.7969 621.7656,498.1094 621.7656,499.8906 L621.7656,500.9844 C621.7656,502.6875 623.0625,503.7813 625.1094,503.7813 C625.875,503.7813 626.5625,503.6563 626.9844,503.3906 C627.1719,503.2969 627.1719,503.2969 627.625,502.8125 C627.8125,502.625 628.0156,502.5469 628.2344,502.5469 C628.7031,502.5469 629.0938,502.9375 629.0938,503.3906 C629.0938,503.7813 628.7656,504.2344 628.1875,504.6406 C627.4375,505.1875 626.2813,505.4844 625.0625,505.4844 C622.1719,505.4844 620.0625,503.5938 620.0625,501.0156 L620.0625,499.8906 C620.0625,497.1719 622.0625,495.0938 624.6875,495.0938 C625.5625,495.0938 626.1563,495.2344 627.0938,495.6719 Z "/><text fill="#000000" font-family="sans-serif" font-size="12" lengthAdjust="spacingAndGlyphs" textLength="40" x="645.25" y="504.1543">Period</text><line style="stroke: #A80036; stroke-width: 1.5;" x1="419.5" x2="878.5" y1="516" y2="516"/><ellipse cx="429.5" cy="527.9023" fill="none" rx="3" ry="3" style="stroke: #038048; stroke-width: 1.0;"/><text fill="#000000" font-family="sans-serif" font-size="11" lengthAdjust="spacingAndGlyphs" text-decoration="underline" textLength="88" x="438.5" y="530.2104">ZERO: Duration</text><ellipse cx="429.5" cy="540.707" fill="#84BE84" rx="3" ry="3" style="stroke: #038048; stroke-width: 1.0;"/><text fill="#000000" font-family="sans-serif" font-size="11" lengthAdjust="spacingAndGlyphs" text-decoration="underline" textLength="435" x="438.5" y="543.0151">between(startDateInclusive: LocalDate, endDateExclusive: LocalDate): Period</text><ellipse cx="429.5" cy="553.5117" fill="#84BE84" rx="3" ry="3" style="stroke: #038048; stroke-width: 1.0;"/><text fill="#000000" font-family="sans-serif" font-size="11" lengthAdjust="spacingAndGlyphs" text-decoration="underline" textLength="227" x="438.5" y="555.8198">from(amount: TemporalAmount): Period</text><ellipse cx="429.5" cy="566.3164" fill="#84BE84" rx="3" ry="3" style="stroke: #038048; stroke-width: 1.0;"/><text fill="#000000" font-family="sans-serif" font-size="11" lengthAdjust="spacingAndGlyphs" text-decoration="underline" textLength="247" x="438.5" y="568.6245">of(years: int, months: int, days: int): Period</text><line style="stroke: #A80036; stroke-width: 1.0; stroke-dasharray: 1.0,2.0;" x1="419.5" x2="878.5" y1="575.2188" y2="575.2188"/><ellipse cx="429.5" cy="587.1211" fill="#84BE84" rx="3" ry="3" style="stroke: #038048; stroke-width: 1.0;"/><text fill="#000000" font-family="sans-serif" font-size="11" lengthAdjust="spacingAndGlyphs" textLength="236" x="438.5" y="589.4292">minusDays(daysToSubtract: long): Period</text><ellipse cx="429.5" cy="599.9258" fill="#84BE84" rx="3" ry="3" style="stroke: #038048; stroke-width: 1.0;"/><text fill="#000000" font-family="sans-serif" font-size="11" lengthAdjust="spacingAndGlyphs" textLength="265" x="438.5" y="602.2339">minusMonths(monthsToSubtract: long): Period</text><ellipse cx="429.5" cy="612.7305" fill="#84BE84" rx="3" ry="3" style="stroke: #038048; stroke-width: 1.0;"/><text fill="#000000" font-family="sans-serif" font-size="11" lengthAdjust="spacingAndGlyphs" textLength="246" x="438.5" y="615.0386">minusYears(yearsToSubtract: long): Period</text><ellipse cx="429.5" cy="625.5352" fill="#84BE84" rx="3" ry="3" style="stroke: #038048; stroke-width: 1.0;"/><text fill="#000000" font-family="sans-serif" font-size="11" lengthAdjust="spacingAndGlyphs" textLength="198" x="438.5" y="627.8433">plusDays(daysToAdd: long): Period</text><ellipse cx="429.5" cy="638.3398" fill="#84BE84" rx="3" ry="3" style="stroke: #038048; stroke-width: 1.0;"/><text fill="#000000" font-family="sans-serif" font-size="11" lengthAdjust="spacingAndGlyphs" textLength="234" x="438.5" y="640.6479">plussMonths(monthsToAdd: long): Period</text><ellipse cx="429.5" cy="651.1445" fill="#84BE84" rx="3" ry="3" style="stroke: #038048; stroke-width: 1.0;"/><text fill="#000000" font-family="sans-serif" font-size="11" lengthAdjust="spacingAndGlyphs" textLength="208" x="438.5" y="653.4526">plusYears(yearsToAdd: long): Period</text><line style="stroke: #A80036; stroke-width: 1.0; stroke-dasharray: 1.0,2.0;" x1="419.5" x2="878.5" y1="660.0469" y2="660.0469"/><ellipse cx="429.5" cy="671.9492" fill="#84BE84" rx="3" ry="3" style="stroke: #038048; stroke-width: 1.0;"/><text fill="#000000" font-family="sans-serif" font-size="11" lengthAdjust="spacingAndGlyphs" textLength="152" x="438.5" y="674.2573">withDays(days: int): Period</text><ellipse cx="429.5" cy="684.7539" fill="#84BE84" rx="3" ry="3" style="stroke: #038048; stroke-width: 1.0;"/><text fill="#000000" font-family="sans-serif" font-size="11" lengthAdjust="spacingAndGlyphs" textLength="188" x="438.5" y="687.062">withsMonths(months: int): Period</text><ellipse cx="429.5" cy="697.5586" fill="#84BE84" rx="3" ry="3" style="stroke: #038048; stroke-width: 1.0;"/><text fill="#000000" font-family="sans-serif" font-size="11" lengthAdjust="spacingAndGlyphs" textLength="162" x="438.5" y="699.8667">withYears(years: int): Period</text><!--class TemporalUnit--><rect fill="#FEFECE" filter="url(#fqvtc6gru1zuy)" height="32" id="TemporalUnit" style="stroke: #A80036; stroke-width: 1.5;" width="115" x="288.5" y="142"/><ellipse cx="303.5" cy="158" fill="#B4A7E5" rx="11" ry="11" style="stroke: #A80036; stroke-width: 1.0;"/><path d="M304.4531,154.7813 L304.4531,161.2969 L306.1719,161.2969 C306.625,161.2969 306.7656,161.3281 306.9375,161.4531 C307.1719,161.625 307.2813,161.875 307.2813,162.1563 C307.2813,162.7188 306.9219,163 306.1719,163 L301.0313,163 C300.625,163 300.4219,162.9531 300.2656,162.8281 C300.0469,162.6719 299.9063,162.4063 299.9063,162.1563 C299.9063,161.8594 300.0625,161.5781 300.3125,161.4219 C300.4688,161.3125 300.5938,161.2969 301.0313,161.2969 L302.75,161.2969 L302.75,154.7813 L301.0313,154.7813 C300.6094,154.7813 300.4219,154.75 300.2656,154.6406 C300.0469,154.4688 299.9063,154.2188 299.9063,153.9375 C299.9063,153.6563 300.0625,153.3594 300.3125,153.2031 C300.4688,153.1094 300.5938,153.0938 301.0313,153.0938 L306.1719,153.0938 C306.625,153.0938 306.7656,153.125 306.9375,153.2344 C307.1719,153.4063 307.2813,153.6719 307.2813,153.9375 C307.2813,154.2344 307.1406,154.5156 306.875,154.6719 C306.75,154.75 306.5625,154.7813 306.1719,154.7813 Z "/><text fill="#000000" font-family="sans-serif" font-size="12" font-style="italic" lengthAdjust="spacingAndGlyphs" textLength="83" x="317.5" y="162.1543">TemporalUnit</text><!--class TemporalAmount--><rect fill="#FEFECE" filter="url(#fqvtc6gru1zuy)" height="78.4141" id="TemporalAmount" style="stroke: #A80036; stroke-width: 1.5;" width="290" x="439" y="119"/><ellipse cx="526.75" cy="135" fill="#B4A7E5" rx="11" ry="11" style="stroke: #A80036; stroke-width: 1.0;"/><path d="M527.7031,131.7813 L527.7031,138.2969 L529.4219,138.2969 C529.875,138.2969 530.0156,138.3281 530.1875,138.4531 C530.4219,138.625 530.5313,138.875 530.5313,139.1563 C530.5313,139.7188 530.1719,140 529.4219,140 L524.2813,140 C523.875,140 523.6719,139.9531 523.5156,139.8281 C523.2969,139.6719 523.1563,139.4063 523.1563,139.1563 C523.1563,138.8594 523.3125,138.5781 523.5625,138.4219 C523.7188,138.3125 523.8438,138.2969 524.2813,138.2969 L526,138.2969 L526,131.7813 L524.2813,131.7813 C523.8594,131.7813 523.6719,131.75 523.5156,131.6406 C523.2969,131.4688 523.1563,131.2188 523.1563,130.9375 C523.1563,130.6563 523.3125,130.3594 523.5625,130.2031 C523.7188,130.1094 523.8438,130.0938 524.2813,130.0938 L529.4219,130.0938 C529.875,130.0938 530.0156,130.125 530.1875,130.2344 C530.4219,130.4063 530.5313,130.6719 530.5313,130.9375 C530.5313,131.2344 530.3906,131.5156 530.125,131.6719 C530,131.75 529.8125,131.7813 529.4219,131.7813 Z "/><text fill="#000000" font-family="sans-serif" font-size="12" font-style="italic" lengthAdjust="spacingAndGlyphs" textLength="106" x="547.25" y="139.1543">TemporalAmount</text><line style="stroke: #A80036; stroke-width: 1.5;" x1="440" x2="728" y1="151" y2="151"/><ellipse cx="450" cy="162.9023" fill="#84BE84" rx="3" ry="3" style="stroke: #038048; stroke-width: 1.0;"/><text fill="#000000" font-family="sans-serif" font-size="11" font-style="italic" lengthAdjust="spacingAndGlyphs" textLength="218" x="459" y="165.2104">addTo(temporal: Temporal): Temporal</text><ellipse cx="450" cy="175.707" fill="#84BE84" rx="3" ry="3" style="stroke: #038048; stroke-width: 1.0;"/><text fill="#000000" font-family="sans-serif" font-size="11" font-style="italic" lengthAdjust="spacingAndGlyphs" textLength="167" x="459" y="178.0151">get(unit: TemporalUnit ): long</text><ellipse cx="450" cy="188.5117" fill="#84BE84" rx="3" ry="3" style="stroke: #038048; stroke-width: 1.0;"/><text fill="#000000" font-family="sans-serif" font-size="11" font-style="italic" lengthAdjust="spacingAndGlyphs" textLength="264" x="459" y="190.8198">substractFrom(temporal: Temporal): Temporal</text><!--class ChronoUnit--><rect fill="#FEFECE" filter="url(#fqvtc6gru1zuy)" height="112.0234" id="ChronoUnit" style="stroke: #A80036; stroke-width: 1.5;" width="102" x="151" y="102"/><ellipse cx="166" cy="118" fill="#EB937F" rx="11" ry="11" style="stroke: #A80036; stroke-width: 1.0;"/><path d="M164.2969,118.875 L164.2969,121.2969 L168.6563,121.2969 L168.6563,120.4219 C168.6563,119.9375 168.6875,119.7969 168.7969,119.6406 C168.9688,119.3906 169.2344,119.2813 169.5,119.2813 C169.7813,119.2813 170.0625,119.4375 170.2344,119.6875 C170.3125,119.8438 170.3438,119.9844 170.3438,120.4219 L170.3438,123 L162.3438,123 C161.9531,123 161.7188,122.9531 161.5781,122.8281 C161.3594,122.6719 161.2188,122.4219 161.2188,122.1563 C161.2188,121.8594 161.375,121.5938 161.625,121.4219 C161.7813,121.3125 161.9375,121.2969 162.3438,121.2969 L162.5938,121.2969 L162.5938,114.7813 L162.3438,114.7813 C161.9219,114.7813 161.7344,114.75 161.5781,114.6406 C161.3594,114.4688 161.2188,114.2188 161.2188,113.9375 C161.2188,113.6563 161.375,113.3594 161.625,113.2031 C161.7813,113.1094 161.9063,113.0938 162.3438,113.0938 L169.9688,113.0938 L169.9688,115.6406 C169.9688,116.1094 169.9375,116.25 169.8281,116.4219 C169.6563,116.6406 169.3906,116.7813 169.125,116.7813 C168.8438,116.7813 168.5625,116.625 168.3906,116.375 C168.3125,116.2188 168.2813,116.0469 168.2813,115.6406 L168.2813,114.7813 L164.2969,114.7813 L164.2969,117.1875 L165.75,117.1875 L165.75,117.0625 C165.75,116.6094 165.7813,116.4531 165.8906,116.2813 C166.0625,116.0625 166.3281,115.9219 166.5781,115.9219 C167.0313,115.9219 167.3438,116.2344 167.4063,116.7031 C167.4219,116.8594 167.4219,116.9063 167.4219,117.0625 L167.4219,118.9844 C167.4219,119.4375 167.3906,119.5938 167.2656,119.75 C167.1094,119.9688 166.8438,120.1094 166.5938,120.1094 C166.2969,120.1094 166.0156,119.9531 165.8594,119.7031 C165.7813,119.5469 165.75,119.3906 165.75,118.9844 L165.75,118.875 Z "/><text fill="#000000" font-family="sans-serif" font-size="12" lengthAdjust="spacingAndGlyphs" textLength="70" x="180" y="122.1543">ChronoUnit</text><line style="stroke: #A80036; stroke-width: 1.5;" x1="152" x2="252" y1="134" y2="134"/><ellipse cx="162" cy="145.9023" fill="none" rx="3" ry="3" style="stroke: #038048; stroke-width: 1.0;"/><text fill="#000000" font-family="sans-serif" font-size="11" lengthAdjust="spacingAndGlyphs" text-decoration="underline" textLength="49" x="171" y="148.2104">MONTHS</text><ellipse cx="162" cy="158.707" fill="none" rx="3" ry="3" style="stroke: #038048; stroke-width: 1.0;"/><text fill="#000000" font-family="sans-serif" font-size="11" lengthAdjust="spacingAndGlyphs" text-decoration="underline" textLength="30" x="171" y="161.0151">DAYS</text><ellipse cx="162" cy="171.5117" fill="none" rx="3" ry="3" style="stroke: #038048; stroke-width: 1.0;"/><text fill="#000000" font-family="sans-serif" font-size="11" lengthAdjust="spacingAndGlyphs" text-decoration="underline" textLength="40" x="171" y="173.8198">HOURS</text><ellipse cx="162" cy="184.3164" fill="none" rx="3" ry="3" style="stroke: #038048; stroke-width: 1.0;"/><text fill="#000000" font-family="sans-serif" font-size="11" lengthAdjust="spacingAndGlyphs" text-decoration="underline" textLength="50" x="171" y="186.6245">MINUTES</text><line style="stroke: #A80036; stroke-width: 1.0; stroke-dasharray: 1.0,2.0;" x1="152" x2="252" y1="193.2188" y2="193.2188"/><text fill="#000000" font-family="sans-serif" font-size="11" font-style="italic" lengthAdjust="spacingAndGlyphs" textLength="21" x="157" y="207.4292">etc.</text><!--class ChronoPeriod--><rect fill="#FEFECE" filter="url(#fqvtc6gru1zuy)" height="65.6094" id="ChronoPeriod" style="stroke: #A80036; stroke-width: 1.5;" width="363" x="492.5" y="316"/><ellipse cx="627.75" cy="332" fill="#B4A7E5" rx="11" ry="11" style="stroke: #A80036; stroke-width: 1.0;"/><path d="M628.7031,328.7813 L628.7031,335.2969 L630.4219,335.2969 C630.875,335.2969 631.0156,335.3281 631.1875,335.4531 C631.4219,335.625 631.5313,335.875 631.5313,336.1563 C631.5313,336.7188 631.1719,337 630.4219,337 L625.2813,337 C624.875,337 624.6719,336.9531 624.5156,336.8281 C624.2969,336.6719 624.1563,336.4063 624.1563,336.1563 C624.1563,335.8594 624.3125,335.5781 624.5625,335.4219 C624.7188,335.3125 624.8438,335.2969 625.2813,335.2969 L627,335.2969 L627,328.7813 L625.2813,328.7813 C624.8594,328.7813 624.6719,328.75 624.5156,328.6406 C624.2969,328.4688 624.1563,328.2188 624.1563,327.9375 C624.1563,327.6563 624.3125,327.3594 624.5625,327.2031 C624.7188,327.1094 624.8438,327.0938 625.2813,327.0938 L630.4219,327.0938 C630.875,327.0938 631.0156,327.125 631.1875,327.2344 C631.4219,327.4063 631.5313,327.6719 631.5313,327.9375 C631.5313,328.2344 631.3906,328.5156 631.125,328.6719 C631,328.75 630.8125,328.7813 630.4219,328.7813 Z "/><text fill="#000000" font-family="sans-serif" font-size="12" font-style="italic" lengthAdjust="spacingAndGlyphs" textLength="84" x="648.25" y="336.1543">ChronoPeriod</text><line style="stroke: #A80036; stroke-width: 1.5;" x1="493.5" x2="854.5" y1="348" y2="348"/><ellipse cx="503.5" cy="359.9023" fill="#84BE84" rx="3" ry="3" style="stroke: #038048; stroke-width: 1.0;"/><text fill="#000000" font-family="sans-serif" font-size="11" font-style="italic" lengthAdjust="spacingAndGlyphs" textLength="337" x="512.5" y="362.2104">minus(amountToSubtract: TemporalAmount): ChronoPeriod</text><ellipse cx="503.5" cy="372.707" fill="#84BE84" rx="3" ry="3" style="stroke: #038048; stroke-width: 1.0;"/><text fill="#000000" font-family="sans-serif" font-size="11" font-style="italic" lengthAdjust="spacingAndGlyphs" textLength="301" x="512.5" y="375.0151">plus(amountToAdd: TemporalAmount): ChronoPeriod</text><!--link ChronoUnit to TemporalUnit--><path d="M253.188,158 C258.224,158 263.261,158 268.298,158 " fill="none" id="ChronoUnit-TemporalUnit" style="stroke: #A80036; stroke-width: 1.0; stroke-dasharray: 7.0,7.0;"/><polygon fill="none" points="268.355,151,288.355,158,268.355,165,268.355,151" style="stroke: #A80036; stroke-width: 1.0;"/><!--link TemporalAmount to Duration--><path d="M498.742,206.957 C462.646,227.262 419.757,251.387 379.748,273.892 " fill="none" id="TemporalAmount-Duration" style="stroke: #A80036; stroke-width: 1.0; stroke-dasharray: 7.0,7.0;"/><polygon fill="none" points="495.546,200.724,516.41,197.02,502.41,212.926,495.546,200.724" style="stroke: #A80036; stroke-width: 1.0;"/><!--link TemporalUnit to TemporalAmount--><path d="M408.87,158 C418.869,158 428.868,158 438.867,158 " fill="none" id="TemporalUnit-TemporalAmount" style="stroke: #A80036; stroke-width: 1.0; stroke-dasharray: 7.0,7.0;"/><polygon fill="#A80036" points="403.641,158,412.641,162,408.641,158,412.641,154,403.641,158" style="stroke: #A80036; stroke-width: 1.0;"/><!--link ChronoPeriod to Period--><path d="M668.633,402.387 C666.187,426.251 663.195,455.457 660.29,483.805 " fill="none" id="ChronoPeriod-Period" style="stroke: #A80036; stroke-width: 1.0; stroke-dasharray: 7.0,7.0;"/><polygon fill="none" points="661.704,401.332,670.706,382.15,675.631,402.759,661.704,401.332" style="stroke: #A80036; stroke-width: 1.0;"/><!--link TemporalAmount to ChronoPeriod--><path d="M610.923,215.539 C626.522,248.295 645.595,288.35 658.658,315.781 " fill="none" id="TemporalAmount-ChronoPeriod" style="stroke: #A80036; stroke-width: 1.0; stroke-dasharray: 7.0,7.0;"/><polygon fill="none" points="604.492,218.314,602.213,197.247,617.132,212.295,604.492,218.314" style="stroke: #A80036; stroke-width: 1.0;"/><!--
@startuml
package java.time {
 package temporal {
  interface TemporalUnit
  interface TemporalAmount {
   +{abstract} addTo(temporal: Temporal): Temporal
   +{abstract} get(unit: TemporalUnit ): long
   +{abstract} substractFrom(temporal: Temporal): Temporal
  }
  enum ChronoUnit {
   +{static} MONTHS
   +{static} DAYS
   +{static} HOURS
   +{static} MINUTES
....
   <i>etc.</i>
  }
 }
 package chrono {
  interface ChronoPeriod {
   +{abstract} minus(amountToSubtract: TemporalAmount): ChronoPeriod
   +{abstract} plus(amountToAdd: TemporalAmount): ChronoPeriod
  }
 }
 class Duration {
  +{static} ZERO: Duration
  +{static} between(startInclusive: Temporal, endExclusive: Temporal): Duration
  +{static} of(amount: long, unit: TemporalUnit)
  +{static} from(amount: TemporalAmount): Duration
....
  + abs(): Duration
  + minus(duration: Duration): Duration
  + plus(duration: Duration): Duration
  + negated(): Duration
 }
 class Period {
  +{static} ZERO: Duration
  +{static} between(startDateInclusive: LocalDate, endDateExclusive: LocalDate): Period
  +{static} from(amount: TemporalAmount): Period
  +{static} of(years: int, months: int, days: int): Period
....
  + minusDays(daysToSubtract: long): Period
  + minusMonths(monthsToSubtract: long): Period
  + minusYears(yearsToSubtract: long): Period
  + plusDays(daysToAdd: long): Period
  + plussMonths(monthsToAdd: long): Period
  + plusYears(yearsToAdd: long): Period
....
  + withDays(days: int): Period
  + withsMonths(months: int): Period
  + withYears(years: int): Period
 }
}
ChronoUnit .right.|> TemporalUnit
Duration .up.|> TemporalAmount
TemporalAmount .left.> TemporalUnit
Period .up.|> ChronoPeriod
ChronoPeriod .up.|> TemporalAmount
hide empty members
@enduml

PlantUML version 1.2019.08(Sat Jul 13 19:25:14 UTC 2019)
(GPL source distribution)
Java Runtime: Java(TM) SE Runtime Environment
JVM: Java HotSpot(TM) 64-Bit Server VM
Java Version: 1.7.0_25-b15
Operating System: Linux
Default Encoding: UTF-8
Language: en
Country: US
--></g></svg>