<?xml version="1.0" encoding="UTF-8" standalone="no"?>
<svg xmlns="http://www.w3.org/2000/svg" xmlns:xlink="http://www.w3.org/1999/xlink" contentScriptType="application/ecmascript" contentStyleType="text/css" height="455px" preserveAspectRatio="none" style="width:924px;height:455px;" version="1.1" viewBox="0 0 924 455" width="924px" zoomAndPan="magnify"><defs><filter height="300%" id="f13e9372m5nwrz" width="300%" x="-1" y="-1"><feGaussianBlur result="blurOut" stdDeviation="2.0"/><feColorMatrix in="blurOut" result="blurOut2" type="matrix" values="0 0 0 0 0 0 0 0 0 0 0 0 0 0 0 0 0 0 .4 0"/><feOffset dx="4.0" dy="4.0" in="blurOut2" result="blurOut3"/><feBlend in="SourceGraphic" in2="blurOut3" mode="normal"/></filter></defs><g><!--cluster java.time--><polygon fill="#FFFFFF" filter="url(#f13e9372m5nwrz)" points="22,24,98,24,105,46.2969,902,46.2969,902,443,22,443,22,24" style="stroke: #000000; stroke-width: 1.5;"/><line style="stroke: #000000; stroke-width: 1.5;" x1="22" x2="105" y1="46.2969" y2="46.2969"/><text fill="#000000" font-family="sans-serif" font-size="14" font-weight="bold" lengthAdjust="spacingAndGlyphs" textLength="70" x="26" y="38.9951">java.time</text><!--cluster chrono--><polygon fill="#FFFFFF" filter="url(#f13e9372m5nwrz)" points="494,115.5,556,115.5,563,137.7969,812,137.7969,812,219.5,494,219.5,494,115.5" style="stroke: #000000; stroke-width: 1.5;"/><line style="stroke: #000000; stroke-width: 1.5;" x1="494" x2="563" y1="137.7969" y2="137.7969"/><text fill="#000000" font-family="sans-serif" font-size="14" font-weight="bold" lengthAdjust="spacingAndGlyphs" textLength="56" x="498" y="130.4951">chrono</text><!--cluster format--><polygon fill="#FFFFFF" filter="url(#f13e9372m5nwrz)" points="46,67,104,67,111,89.2969,448,89.2969,448,419,46,419,46,67" style="stroke: #000000; stroke-width: 1.5;"/><line style="stroke: #000000; stroke-width: 1.5;" x1="46" x2="111" y1="89.2969" y2="89.2969"/><text fill="#000000" font-family="sans-serif" font-size="14" font-weight="bold" lengthAdjust="spacingAndGlyphs" textLength="52" x="50" y="81.9951">format</text><!--class LocalDate--><rect fill="#FEFECE" filter="url(#f13e9372m5nwrz)" height="65.6094" id="LocalDate" style="stroke: #A80036; stroke-width: 1.5;" width="422" x="464" y="324.5"/><ellipse cx="639.75" cy="340.5" fill="#ADD1B2" rx="11" ry="11" style="stroke: #A80036; stroke-width: 1.0;"/><path d="M642.0938,336.1719 L642.2656,336.25 C642.4844,335.9375 642.6875,335.8438 642.9844,335.8438 C643.2813,335.8438 643.5625,335.9844 643.7188,336.25 C643.8125,336.4063 643.8281,336.5313 643.8281,336.9688 L643.8281,338.3906 C643.8281,338.8125 643.7969,339 643.6875,339.1563 C643.5156,339.375 643.25,339.5156 642.9844,339.5156 C642.7656,339.5156 642.5313,339.4063 642.3906,339.2656 C642.25,339.1406 642.2188,339.0156 642.1563,338.6094 C642.0625,338.2031 641.8906,337.9844 641.4063,337.7031 C640.9375,337.4531 640.3281,337.2969 639.75,337.2969 C638.0156,337.2969 636.7656,338.6094 636.7656,340.3906 L636.7656,341.4844 C636.7656,343.1875 638.0625,344.2813 640.1094,344.2813 C640.875,344.2813 641.5625,344.1563 641.9844,343.8906 C642.1719,343.7969 642.1719,343.7969 642.625,343.3125 C642.8125,343.125 643.0156,343.0469 643.2344,343.0469 C643.7031,343.0469 644.0938,343.4375 644.0938,343.8906 C644.0938,344.2813 643.7656,344.7344 643.1875,345.1406 C642.4375,345.6875 641.2813,345.9844 640.0625,345.9844 C637.1719,345.9844 635.0625,344.0938 635.0625,341.5156 L635.0625,340.3906 C635.0625,337.6719 637.0625,335.5938 639.6875,335.5938 C640.5625,335.5938 641.1563,335.7344 642.0938,336.1719 Z "/><text fill="#000000" font-family="sans-serif" font-size="12" lengthAdjust="spacingAndGlyphs" textLength="62" x="660.25" y="344.6543">LocalDate</text><line style="stroke: #A80036; stroke-width: 1.5;" x1="465" x2="885" y1="356.5" y2="356.5"/><ellipse cx="475" cy="368.4023" fill="#84BE84" rx="3" ry="3" style="stroke: #038048; stroke-width: 1.0;"/><text fill="#000000" font-family="sans-serif" font-size="11" lengthAdjust="spacingAndGlyphs" text-decoration="underline" textLength="216" x="484" y="370.7104">parse(text: CharSequence): LocalDate</text><ellipse cx="475" cy="381.207" fill="#84BE84" rx="3" ry="3" style="stroke: #038048; stroke-width: 1.0;"/><text fill="#000000" font-family="sans-serif" font-size="11" lengthAdjust="spacingAndGlyphs" text-decoration="underline" textLength="396" x="484" y="383.5151">parse(text: CharSequence, formatter: DateTimeFormatter): LocalDate</text><!--class ChronoLocalDate--><rect fill="#FEFECE" filter="url(#f13e9372m5nwrz)" height="52.8047" id="ChronoLocalDate" style="stroke: #A80036; stroke-width: 1.5;" width="286" x="510" y="150.5"/><ellipse cx="594.75" cy="166.5" fill="#B4A7E5" rx="11" ry="11" style="stroke: #A80036; stroke-width: 1.0;"/><path d="M595.7031,163.2813 L595.7031,169.7969 L597.4219,169.7969 C597.875,169.7969 598.0156,169.8281 598.1875,169.9531 C598.4219,170.125 598.5313,170.375 598.5313,170.6563 C598.5313,171.2188 598.1719,171.5 597.4219,171.5 L592.2813,171.5 C591.875,171.5 591.6719,171.4531 591.5156,171.3281 C591.2969,171.1719 591.1563,170.9063 591.1563,170.6563 C591.1563,170.3594 591.3125,170.0781 591.5625,169.9219 C591.7188,169.8125 591.8438,169.7969 592.2813,169.7969 L594,169.7969 L594,163.2813 L592.2813,163.2813 C591.8594,163.2813 591.6719,163.25 591.5156,163.1406 C591.2969,162.9688 591.1563,162.7188 591.1563,162.4375 C591.1563,162.1563 591.3125,161.8594 591.5625,161.7031 C591.7188,161.6094 591.8438,161.5938 592.2813,161.5938 L597.4219,161.5938 C597.875,161.5938 598.0156,161.625 598.1875,161.7344 C598.4219,161.9063 598.5313,162.1719 598.5313,162.4375 C598.5313,162.7344 598.3906,163.0156 598.125,163.1719 C598,163.25 597.8125,163.2813 597.4219,163.2813 Z "/><text fill="#000000" font-family="sans-serif" font-size="12" font-style="italic" lengthAdjust="spacingAndGlyphs" textLength="108" x="615.25" y="170.6543">ChronoLocalDate</text><line style="stroke: #A80036; stroke-width: 1.5;" x1="511" x2="795" y1="182.5" y2="182.5"/><ellipse cx="521" cy="194.4023" fill="#84BE84" rx="3" ry="3" style="stroke: #038048; stroke-width: 1.0;"/><text fill="#000000" font-family="sans-serif" font-size="11" lengthAdjust="spacingAndGlyphs" textLength="260" x="530" y="196.7104">format(formatter: DateTimeFormatter): String</text><!--class DateTimeFormatter--><rect fill="#FEFECE" filter="url(#f13e9372m5nwrz)" height="150.4375" id="DateTimeFormatter" style="stroke: #A80036; stroke-width: 1.5;" width="369" x="62.5" y="102"/><ellipse cx="182.25" cy="118" fill="#ADD1B2" rx="11" ry="11" style="stroke: #A80036; stroke-width: 1.0;"/><path d="M184.5938,113.6719 L184.7656,113.75 C184.9844,113.4375 185.1875,113.3438 185.4844,113.3438 C185.7813,113.3438 186.0625,113.4844 186.2188,113.75 C186.3125,113.9063 186.3281,114.0313 186.3281,114.4688 L186.3281,115.8906 C186.3281,116.3125 186.2969,116.5 186.1875,116.6563 C186.0156,116.875 185.75,117.0156 185.4844,117.0156 C185.2656,117.0156 185.0313,116.9063 184.8906,116.7656 C184.75,116.6406 184.7188,116.5156 184.6563,116.1094 C184.5625,115.7031 184.3906,115.4844 183.9063,115.2031 C183.4375,114.9531 182.8281,114.7969 182.25,114.7969 C180.5156,114.7969 179.2656,116.1094 179.2656,117.8906 L179.2656,118.9844 C179.2656,120.6875 180.5625,121.7813 182.6094,121.7813 C183.375,121.7813 184.0625,121.6563 184.4844,121.3906 C184.6719,121.2969 184.6719,121.2969 185.125,120.8125 C185.3125,120.625 185.5156,120.5469 185.7344,120.5469 C186.2031,120.5469 186.5938,120.9375 186.5938,121.3906 C186.5938,121.7813 186.2656,122.2344 185.6875,122.6406 C184.9375,123.1875 183.7813,123.4844 182.5625,123.4844 C179.6719,123.4844 177.5625,121.5938 177.5625,119.0156 L177.5625,117.8906 C177.5625,115.1719 179.5625,113.0938 182.1875,113.0938 C183.0625,113.0938 183.6563,113.2344 184.5938,113.6719 Z "/><text fill="#000000" font-family="sans-serif" font-size="12" lengthAdjust="spacingAndGlyphs" textLength="121" x="202.75" y="122.1543">DateTimeFormatter</text><line style="stroke: #A80036; stroke-width: 1.5;" x1="63.5" x2="430.5" y1="134" y2="134"/><ellipse cx="73.5" cy="145.9023" fill="none" rx="3" ry="3" style="stroke: #038048; stroke-width: 1.0;"/><text fill="#000000" font-family="sans-serif" font-size="11" lengthAdjust="spacingAndGlyphs" text-decoration="underline" textLength="213" x="82.5" y="148.2104">BASIC_ISO_DATE: DateTimeFormatter</text><ellipse cx="73.5" cy="158.707" fill="none" rx="3" ry="3" style="stroke: #038048; stroke-width: 1.0;"/><text fill="#000000" font-family="sans-serif" font-size="11" lengthAdjust="spacingAndGlyphs" text-decoration="underline" textLength="173" x="82.5" y="161.0151">ISO_DATE: DateTimeFormatter</text><ellipse cx="73.5" cy="171.5117" fill="none" rx="3" ry="3" style="stroke: #038048; stroke-width: 1.0;"/><text fill="#000000" font-family="sans-serif" font-size="11" lengthAdjust="spacingAndGlyphs" text-decoration="underline" textLength="212" x="82.5" y="173.8198">ISO_LOCAL_TIME: DateTimeFormatter</text><line style="stroke: #A80036; stroke-width: 1.5;" x1="63.5" x2="430.5" y1="180.4141" y2="180.4141"/><ellipse cx="73.5" cy="192.3164" fill="#84BE84" rx="3" ry="3" style="stroke: #038048; stroke-width: 1.0;"/><text fill="#000000" font-family="sans-serif" font-size="11" lengthAdjust="spacingAndGlyphs" text-decoration="underline" textLength="343" x="82.5" y="194.6245">ofLocalizedDate(dateStyle: FormatStyle): DateTimeFormatter</text><ellipse cx="73.5" cy="205.1211" fill="#84BE84" rx="3" ry="3" style="stroke: #038048; stroke-width: 1.0;"/><text fill="#000000" font-family="sans-serif" font-size="11" lengthAdjust="spacingAndGlyphs" text-decoration="underline" textLength="143" x="82.5" y="207.4292">ofPattern(pattern: String)</text><ellipse cx="73.5" cy="217.9258" fill="#84BE84" rx="3" ry="3" style="stroke: #038048; stroke-width: 1.0;"/><text fill="#000000" font-family="sans-serif" font-size="11" lengthAdjust="spacingAndGlyphs" text-decoration="underline" textLength="228" x="82.5" y="220.2339">ofPattern(pattern: String, locale: Locale)</text><ellipse cx="73.5" cy="230.7305" fill="#84BE84" rx="3" ry="3" style="stroke: #038048; stroke-width: 1.0;"/><text fill="#000000" font-family="sans-serif" font-size="11" lengthAdjust="spacingAndGlyphs" textLength="253" x="82.5" y="233.0386">format(temporal: TemporalAccessor): String</text><ellipse cx="73.5" cy="243.5352" fill="#84BE84" rx="3" ry="3" style="stroke: #038048; stroke-width: 1.0;"/><text fill="#000000" font-family="sans-serif" font-size="11" lengthAdjust="spacingAndGlyphs" textLength="267" x="82.5" y="245.8433">parse(text: CharSequence): TemporalAccessor</text><!--class FormatStyle--><rect fill="#FEFECE" filter="url(#f13e9372m5nwrz)" height="91.2188" id="FormatStyle" style="stroke: #A80036; stroke-width: 1.5;" width="106" x="194" y="312"/><ellipse cx="209" cy="328" fill="#EB937F" rx="11" ry="11" style="stroke: #A80036; stroke-width: 1.0;"/><path d="M207.2969,328.875 L207.2969,331.2969 L211.6563,331.2969 L211.6563,330.4219 C211.6563,329.9375 211.6875,329.7969 211.7969,329.6406 C211.9688,329.3906 212.2344,329.2813 212.5,329.2813 C212.7813,329.2813 213.0625,329.4375 213.2344,329.6875 C213.3125,329.8438 213.3438,329.9844 213.3438,330.4219 L213.3438,333 L205.3438,333 C204.9531,333 204.7188,332.9531 204.5781,332.8281 C204.3594,332.6719 204.2188,332.4219 204.2188,332.1563 C204.2188,331.8594 204.375,331.5938 204.625,331.4219 C204.7813,331.3125 204.9375,331.2969 205.3438,331.2969 L205.5938,331.2969 L205.5938,324.7813 L205.3438,324.7813 C204.9219,324.7813 204.7344,324.75 204.5781,324.6406 C204.3594,324.4688 204.2188,324.2188 204.2188,323.9375 C204.2188,323.6563 204.375,323.3594 204.625,323.2031 C204.7813,323.1094 204.9063,323.0938 205.3438,323.0938 L212.9688,323.0938 L212.9688,325.6406 C212.9688,326.1094 212.9375,326.25 212.8281,326.4219 C212.6563,326.6406 212.3906,326.7813 212.125,326.7813 C211.8438,326.7813 211.5625,326.625 211.3906,326.375 C211.3125,326.2188 211.2813,326.0469 211.2813,325.6406 L211.2813,324.7813 L207.2969,324.7813 L207.2969,327.1875 L208.75,327.1875 L208.75,327.0625 C208.75,326.6094 208.7813,326.4531 208.8906,326.2813 C209.0625,326.0625 209.3281,325.9219 209.5781,325.9219 C210.0313,325.9219 210.3438,326.2344 210.4063,326.7031 C210.4219,326.8594 210.4219,326.9063 210.4219,327.0625 L210.4219,328.9844 C210.4219,329.4375 210.3906,329.5938 210.2656,329.75 C210.1094,329.9688 209.8438,330.1094 209.5938,330.1094 C209.2969,330.1094 209.0156,329.9531 208.8594,329.7031 C208.7813,329.5469 208.75,329.3906 208.75,328.9844 L208.75,328.875 Z "/><text fill="#000000" font-family="sans-serif" font-size="12" lengthAdjust="spacingAndGlyphs" textLength="74" x="223" y="332.1543">FormatStyle</text><line style="stroke: #A80036; stroke-width: 1.5;" x1="195" x2="299" y1="344" y2="344"/><ellipse cx="205" cy="355.9023" fill="none" rx="3" ry="3" style="stroke: #038048; stroke-width: 1.0;"/><text fill="#000000" font-family="sans-serif" font-size="11" lengthAdjust="spacingAndGlyphs" text-decoration="underline" textLength="26" x="214" y="358.2104">FULL</text><ellipse cx="205" cy="368.707" fill="none" rx="3" ry="3" style="stroke: #038048; stroke-width: 1.0;"/><text fill="#000000" font-family="sans-serif" font-size="11" lengthAdjust="spacingAndGlyphs" text-decoration="underline" textLength="32" x="214" y="371.0151">LONG</text><ellipse cx="205" cy="381.5117" fill="none" rx="3" ry="3" style="stroke: #038048; stroke-width: 1.0;"/><text fill="#000000" font-family="sans-serif" font-size="11" lengthAdjust="spacingAndGlyphs" text-decoration="underline" textLength="44" x="214" y="383.8198">MEDIUM</text><ellipse cx="205" cy="394.3164" fill="none" rx="3" ry="3" style="stroke: #038048; stroke-width: 1.0;"/><text fill="#000000" font-family="sans-serif" font-size="11" lengthAdjust="spacingAndGlyphs" text-decoration="underline" textLength="39" x="214" y="396.6245">SHORT</text><!--link ChronoLocalDate to LocalDate--><path d="M658.616,223.566 C662.499,255.068 667.569,296.208 671.035,324.327 " fill="none" id="ChronoLocalDate-LocalDate" style="stroke: #A80036; stroke-width: 1.0; stroke-dasharray: 7.0,7.0;"/><polygon fill="none" points="651.651,224.281,656.152,203.575,665.546,222.568,651.651,224.281" style="stroke: #A80036; stroke-width: 1.0;"/><!--link ChronoLocalDate to DateTimeFormatter--><path d="M509.973,177 C485.634,177 461.295,177 436.955,177 " fill="none" id="ChronoLocalDate-DateTimeFormatter" style="stroke: #A80036; stroke-width: 1.0; stroke-dasharray: 7.0,7.0;"/><polygon fill="#A80036" points="431.762,177,440.762,181,436.762,177,440.762,173,431.762,177" style="stroke: #A80036; stroke-width: 1.0;"/><!--link DateTimeFormatter to LocalDate--><path d="M429.103,253.947 C488.31,278.64 550.849,304.722 598.041,324.404 " fill="none" id="DateTimeFormatter-LocalDate" style="stroke: #A80036; stroke-width: 1.0; stroke-dasharray: 7.0,7.0;"/><polygon fill="#A80036" points="424.483,252.02,431.25,259.1759,429.0978,253.9445,434.3292,251.7923,424.483,252.02" style="stroke: #A80036; stroke-width: 1.0;"/><!--link DateTimeFormatter to FormatStyle--><path d="M247,252.149 C247,270.552 247,289.837 247,306.752 " fill="none" id="DateTimeFormatter-FormatStyle" style="stroke: #A80036; stroke-width: 1.0; stroke-dasharray: 7.0,7.0;"/><polygon fill="#A80036" points="247,311.921,251,302.921,247,306.921,243,302.921,247,311.921" style="stroke: #A80036; stroke-width: 1.0;"/><!--
@startuml
package java.time {
 package chrono {
  interface ChronoLocalDate {
   + format(formatter: DateTimeFormatter): String
  }
 }
 package format {
  class DateTimeFormatter {
   +{static} BASIC_ISO_DATE: DateTimeFormatter
   +{static} ISO_DATE: DateTimeFormatter
   +{static} ISO_LOCAL_TIME: DateTimeFormatter
   +{static} ofLocalizedDate(dateStyle: FormatStyle): DateTimeFormatter
   +{static} ofPattern(pattern: String)
   +{static} ofPattern(pattern: String, locale: Locale)
   + format(temporal: TemporalAccessor): String
   + parse(text: CharSequence): TemporalAccessor
  }
  enum FormatStyle {
   +{static} FULL
   +{static} LONG
   +{static} MEDIUM
   +{static} SHORT
  }
 }
 class LocalDate {
  +{static} parse(text: CharSequence): LocalDate
  +{static} parse(text: CharSequence, formatter: DateTimeFormatter): LocalDate
 }
}
LocalDate .up.|> ChronoLocalDate
ChronoLocalDate .right.> DateTimeFormatter
LocalDate .up.> DateTimeFormatter
DateTimeFormatter ..> FormatStyle
hide empty members
@enduml

PlantUML version 1.2019.08(Sat Jul 13 19:25:14 UTC 2019)
(GPL source distribution)
Java Runtime: Java(TM) SE Runtime Environment
JVM: Java HotSpot(TM) 64-Bit Server VM
Java Version: 1.7.0_25-b15
Operating System: Linux
Default Encoding: UTF-8
Language: en
Country: US
--></g></svg>