<?xml version="1.0" encoding="UTF-8" standalone="no"?>
<svg xmlns="http://www.w3.org/2000/svg" xmlns:xlink="http://www.w3.org/1999/xlink" contentScriptType="application/ecmascript" contentStyleType="text/css" height="486px" preserveAspectRatio="none" style="width:1010px;height:486px;" version="1.1" viewBox="0 0 1010 486" width="1010px" zoomAndPan="magnify"><defs><filter height="300%" id="f17tz52bvi1lii" width="300%" x="-1" y="-1"><feGaussianBlur result="blurOut" stdDeviation="2.0"/><feColorMatrix in="blurOut" result="blurOut2" type="matrix" values="0 0 0 0 0 0 0 0 0 0 0 0 0 0 0 0 0 0 .4 0"/><feOffset dx="4.0" dy="4.0" in="blurOut2" result="blurOut3"/><feBlend in="SourceGraphic" in2="blurOut3" mode="normal"/></filter></defs><g><!--cluster java.time--><polygon fill="#FFFFFF" filter="url(#f17tz52bvi1lii)" points="22,24,98,24,105,46.2969,988,46.2969,988,474,22,474,22,24" style="stroke: #000000; stroke-width: 1.5;"/><line style="stroke: #000000; stroke-width: 1.5;" x1="22" x2="105" y1="46.2969" y2="46.2969"/><text fill="#000000" font-family="sans-serif" font-size="14" font-weight="bold" lengthAdjust="spacingAndGlyphs" textLength="70" x="26" y="38.9951">java.time</text><!--cluster temporal--><polygon fill="#FFFFFF" filter="url(#f17tz52bvi1lii)" points="46,67,122,67,129,89.2969,964,89.2969,964,264,46,264,46,67" style="stroke: #000000; stroke-width: 1.5;"/><line style="stroke: #000000; stroke-width: 1.5;" x1="46" x2="129" y1="89.2969" y2="89.2969"/><text fill="#000000" font-family="sans-serif" font-size="14" font-weight="bold" lengthAdjust="spacingAndGlyphs" textLength="70" x="50" y="81.9951">temporal</text><!--class Instant--><rect fill="#FEFECE" filter="url(#f17tz52bvi1lii)" height="150.4375" id="Instant" style="stroke: #A80036; stroke-width: 1.5;" width="276" x="418" y="308"/><ellipse cx="529.75" cy="324" fill="#ADD1B2" rx="11" ry="11" style="stroke: #A80036; stroke-width: 1.0;"/><path d="M532.0938,319.6719 L532.2656,319.75 C532.4844,319.4375 532.6875,319.3438 532.9844,319.3438 C533.2813,319.3438 533.5625,319.4844 533.7188,319.75 C533.8125,319.9063 533.8281,320.0313 533.8281,320.4688 L533.8281,321.8906 C533.8281,322.3125 533.7969,322.5 533.6875,322.6563 C533.5156,322.875 533.25,323.0156 532.9844,323.0156 C532.7656,323.0156 532.5313,322.9063 532.3906,322.7656 C532.25,322.6406 532.2188,322.5156 532.1563,322.1094 C532.0625,321.7031 531.8906,321.4844 531.4063,321.2031 C530.9375,320.9531 530.3281,320.7969 529.75,320.7969 C528.0156,320.7969 526.7656,322.1094 526.7656,323.8906 L526.7656,324.9844 C526.7656,326.6875 528.0625,327.7813 530.1094,327.7813 C530.875,327.7813 531.5625,327.6563 531.9844,327.3906 C532.1719,327.2969 532.1719,327.2969 532.625,326.8125 C532.8125,326.625 533.0156,326.5469 533.2344,326.5469 C533.7031,326.5469 534.0938,326.9375 534.0938,327.3906 C534.0938,327.7813 533.7656,328.2344 533.1875,328.6406 C532.4375,329.1875 531.2813,329.4844 530.0625,329.4844 C527.1719,329.4844 525.0625,327.5938 525.0625,325.0156 L525.0625,323.8906 C525.0625,321.1719 527.0625,319.0938 529.6875,319.0938 C530.5625,319.0938 531.1563,319.2344 532.0938,319.6719 Z "/><text fill="#000000" font-family="sans-serif" font-size="12" lengthAdjust="spacingAndGlyphs" textLength="44" x="550.25" y="328.1543">Instant</text><line style="stroke: #A80036; stroke-width: 1.5;" x1="419" x2="693" y1="340" y2="340"/><ellipse cx="429" cy="351.9023" fill="none" rx="3" ry="3" style="stroke: #038048; stroke-width: 1.0;"/><text fill="#000000" font-family="sans-serif" font-size="11" lengthAdjust="spacingAndGlyphs" text-decoration="underline" textLength="39" x="438" y="354.2104">EPOCH</text><ellipse cx="429" cy="364.707" fill="none" rx="3" ry="3" style="stroke: #038048; stroke-width: 1.0;"/><text fill="#000000" font-family="sans-serif" font-size="11" lengthAdjust="spacingAndGlyphs" text-decoration="underline" textLength="23" x="438" y="367.0151">MAX</text><ellipse cx="429" cy="377.5117" fill="none" rx="3" ry="3" style="stroke: #038048; stroke-width: 1.0;"/><text fill="#000000" font-family="sans-serif" font-size="11" lengthAdjust="spacingAndGlyphs" text-decoration="underline" textLength="20" x="438" y="379.8198">MIN</text><line style="stroke: #A80036; stroke-width: 1.5;" x1="419" x2="693" y1="386.4141" y2="386.4141"/><ellipse cx="429" cy="398.3164" fill="#84BE84" rx="3" ry="3" style="stroke: #038048; stroke-width: 1.0;"/><text fill="#000000" font-family="sans-serif" font-size="11" lengthAdjust="spacingAndGlyphs" text-decoration="underline" textLength="31" x="438" y="400.6245">now()</text><ellipse cx="429" cy="411.1211" fill="#84BE84" rx="3" ry="3" style="stroke: #038048; stroke-width: 1.0;"/><text fill="#000000" font-family="sans-serif" font-size="11" lengthAdjust="spacingAndGlyphs" text-decoration="underline" textLength="247" x="438" y="413.4292">from(temporal: TemporalAccessor): Instant</text><ellipse cx="429" cy="423.9258" fill="#84BE84" rx="3" ry="3" style="stroke: #038048; stroke-width: 1.0;"/><text fill="#000000" font-family="sans-serif" font-size="11" lengthAdjust="spacingAndGlyphs" text-decoration="underline" textLength="250" x="438" y="426.2339">ofEpochSecond(epochSecond: long): Instant</text><ellipse cx="429" cy="436.7305" fill="#84BE84" rx="3" ry="3" style="stroke: #038048; stroke-width: 1.0;"/><text fill="#000000" font-family="sans-serif" font-size="11" lengthAdjust="spacingAndGlyphs" textLength="161" x="438" y="439.0386">isAfter(otherInstant: Instant)</text><ellipse cx="429" cy="449.5352" fill="#84BE84" rx="3" ry="3" style="stroke: #038048; stroke-width: 1.0;"/><text fill="#000000" font-family="sans-serif" font-size="11" lengthAdjust="spacingAndGlyphs" textLength="172" x="438" y="451.8433">isBefore(otherInstant: Instant)</text><!--class Temporal--><rect fill="#FEFECE" filter="url(#f17tz52bvi1lii)" height="145.6328" id="Temporal" style="stroke: #A80036; stroke-width: 1.5;" width="366" x="62" y="102"/><ellipse cx="211.75" cy="118" fill="#B4A7E5" rx="11" ry="11" style="stroke: #A80036; stroke-width: 1.0;"/><path d="M212.7031,114.7813 L212.7031,121.2969 L214.4219,121.2969 C214.875,121.2969 215.0156,121.3281 215.1875,121.4531 C215.4219,121.625 215.5313,121.875 215.5313,122.1563 C215.5313,122.7188 215.1719,123 214.4219,123 L209.2813,123 C208.875,123 208.6719,122.9531 208.5156,122.8281 C208.2969,122.6719 208.1563,122.4063 208.1563,122.1563 C208.1563,121.8594 208.3125,121.5781 208.5625,121.4219 C208.7188,121.3125 208.8438,121.2969 209.2813,121.2969 L211,121.2969 L211,114.7813 L209.2813,114.7813 C208.8594,114.7813 208.6719,114.75 208.5156,114.6406 C208.2969,114.4688 208.1563,114.2188 208.1563,113.9375 C208.1563,113.6563 208.3125,113.3594 208.5625,113.2031 C208.7188,113.1094 208.8438,113.0938 209.2813,113.0938 L214.4219,113.0938 C214.875,113.0938 215.0156,113.125 215.1875,113.2344 C215.4219,113.4063 215.5313,113.6719 215.5313,113.9375 C215.5313,114.2344 215.3906,114.5156 215.125,114.6719 C215,114.75 214.8125,114.7813 214.4219,114.7813 Z "/><text fill="#000000" font-family="sans-serif" font-size="12" font-style="italic" lengthAdjust="spacingAndGlyphs" textLength="58" x="232.25" y="122.1543">Temporal</text><line style="stroke: #A80036; stroke-width: 1.5;" x1="63" x2="427" y1="134" y2="134"/><ellipse cx="73" cy="145.9023" fill="#84BE84" rx="3" ry="3" style="stroke: #038048; stroke-width: 1.0;"/><text fill="#000000" font-family="sans-serif" font-size="11" lengthAdjust="spacingAndGlyphs" textLength="340" x="82" y="148.2104">minus(amountToSubtract: long, unit: TemporalUnit): Instant</text><ellipse cx="73" cy="158.707" fill="#84BE84" rx="3" ry="3" style="stroke: #038048; stroke-width: 1.0;"/><text fill="#000000" font-family="sans-serif" font-size="11" lengthAdjust="spacingAndGlyphs" textLength="300" x="82" y="161.0151">minus(amountToSubtract: TemporalAmount): Instant</text><ellipse cx="73" cy="171.5117" fill="#84BE84" rx="3" ry="3" style="stroke: #038048; stroke-width: 1.0;"/><text fill="#000000" font-family="sans-serif" font-size="11" font-style="italic" lengthAdjust="spacingAndGlyphs" textLength="301" x="82" y="173.8198">plus(amountToAdd: long, unit: TemporalUnit): Instant</text><ellipse cx="73" cy="184.3164" fill="#84BE84" rx="3" ry="3" style="stroke: #038048; stroke-width: 1.0;"/><text fill="#000000" font-family="sans-serif" font-size="11" lengthAdjust="spacingAndGlyphs" textLength="262" x="82" y="186.6245">plus(amountToAdd: TemporalAmount): Instant</text><line style="stroke: #A80036; stroke-width: 1.0; stroke-dasharray: 1.0,2.0;" x1="63" x2="427" y1="193.2188" y2="193.2188"/><ellipse cx="73" cy="205.1211" fill="#84BE84" rx="3" ry="3" style="stroke: #038048; stroke-width: 1.0;"/><text fill="#000000" font-family="sans-serif" font-size="11" font-style="italic" lengthAdjust="spacingAndGlyphs" textLength="313" x="82" y="207.4292">until(endExclusive: Temporal, unit: TemporalUnit): long</text><line style="stroke: #A80036; stroke-width: 1.0; stroke-dasharray: 1.0,2.0;" x1="63" x2="427" y1="214.0234" y2="214.0234"/><ellipse cx="73" cy="225.9258" fill="#84BE84" rx="3" ry="3" style="stroke: #038048; stroke-width: 1.0;"/><text fill="#000000" font-family="sans-serif" font-size="11" lengthAdjust="spacingAndGlyphs" textLength="234" x="82" y="228.2339">with(adjuster: TemporalAdjuster): Instant</text><ellipse cx="73" cy="238.7305" fill="#84BE84" rx="3" ry="3" style="stroke: #038048; stroke-width: 1.0;"/><text fill="#000000" font-family="sans-serif" font-size="11" font-style="italic" lengthAdjust="spacingAndGlyphs" textLength="284" x="82" y="241.0386">with(field: TemporalField, newValue: long): Instant</text><!--class TemporalAccessor--><rect fill="#FEFECE" filter="url(#f17tz52bvi1lii)" height="52.8047" id="TemporalAccessor" style="stroke: #A80036; stroke-width: 1.5;" width="186" x="463" y="148.5"/><ellipse cx="496.45" cy="164.5" fill="#B4A7E5" rx="11" ry="11" style="stroke: #A80036; stroke-width: 1.0;"/><path d="M497.4031,161.2813 L497.4031,167.7969 L499.1219,167.7969 C499.575,167.7969 499.7156,167.8281 499.8875,167.9531 C500.1219,168.125 500.2313,168.375 500.2313,168.6563 C500.2313,169.2188 499.8719,169.5 499.1219,169.5 L493.9813,169.5 C493.575,169.5 493.3719,169.4531 493.2156,169.3281 C492.9969,169.1719 492.8563,168.9063 492.8563,168.6563 C492.8563,168.3594 493.0125,168.0781 493.2625,167.9219 C493.4188,167.8125 493.5438,167.7969 493.9813,167.7969 L495.7,167.7969 L495.7,161.2813 L493.9813,161.2813 C493.5594,161.2813 493.3719,161.25 493.2156,161.1406 C492.9969,160.9688 492.8563,160.7188 492.8563,160.4375 C492.8563,160.1563 493.0125,159.8594 493.2625,159.7031 C493.4188,159.6094 493.5438,159.5938 493.9813,159.5938 L499.1219,159.5938 C499.575,159.5938 499.7156,159.625 499.8875,159.7344 C500.1219,159.9063 500.2313,160.1719 500.2313,160.4375 C500.2313,160.7344 500.0906,161.0156 499.825,161.1719 C499.7,161.25 499.5125,161.2813 499.1219,161.2813 Z "/><text fill="#000000" font-family="sans-serif" font-size="12" font-style="italic" lengthAdjust="spacingAndGlyphs" textLength="113" x="514.55" y="168.6543">TemporalAccessor</text><line style="stroke: #A80036; stroke-width: 1.5;" x1="464" x2="648" y1="180.5" y2="180.5"/><ellipse cx="474" cy="192.4023" fill="#84BE84" rx="3" ry="3" style="stroke: #038048; stroke-width: 1.0;"/><text fill="#000000" font-family="sans-serif" font-size="11" lengthAdjust="spacingAndGlyphs" textLength="160" x="483" y="194.7104">get(field: TemporalField): int</text><!--class TemporalAdjuster--><rect fill="#FEFECE" filter="url(#f17tz52bvi1lii)" height="52.8047" id="TemporalAdjuster" style="stroke: #A80036; stroke-width: 1.5;" width="264" x="684" y="148.5"/><ellipse cx="757.25" cy="164.5" fill="#B4A7E5" rx="11" ry="11" style="stroke: #A80036; stroke-width: 1.0;"/><path d="M758.2031,161.2813 L758.2031,167.7969 L759.9219,167.7969 C760.375,167.7969 760.5156,167.8281 760.6875,167.9531 C760.9219,168.125 761.0313,168.375 761.0313,168.6563 C761.0313,169.2188 760.6719,169.5 759.9219,169.5 L754.7813,169.5 C754.375,169.5 754.1719,169.4531 754.0156,169.3281 C753.7969,169.1719 753.6563,168.9063 753.6563,168.6563 C753.6563,168.3594 753.8125,168.0781 754.0625,167.9219 C754.2188,167.8125 754.3438,167.7969 754.7813,167.7969 L756.5,167.7969 L756.5,161.2813 L754.7813,161.2813 C754.3594,161.2813 754.1719,161.25 754.0156,161.1406 C753.7969,160.9688 753.6563,160.7188 753.6563,160.4375 C753.6563,160.1563 753.8125,159.8594 754.0625,159.7031 C754.2188,159.6094 754.3438,159.5938 754.7813,159.5938 L759.9219,159.5938 C760.375,159.5938 760.5156,159.625 760.6875,159.7344 C760.9219,159.9063 761.0313,160.1719 761.0313,160.4375 C761.0313,160.7344 760.8906,161.0156 760.625,161.1719 C760.5,161.25 760.3125,161.2813 759.9219,161.2813 Z "/><text fill="#000000" font-family="sans-serif" font-size="12" font-style="italic" lengthAdjust="spacingAndGlyphs" textLength="109" x="777.75" y="168.6543">TemporalAdjuster</text><line style="stroke: #A80036; stroke-width: 1.5;" x1="685" x2="947" y1="180.5" y2="180.5"/><ellipse cx="695" cy="192.4023" fill="#84BE84" rx="3" ry="3" style="stroke: #038048; stroke-width: 1.0;"/><text fill="#000000" font-family="sans-serif" font-size="11" font-style="italic" lengthAdjust="spacingAndGlyphs" textLength="238" x="704" y="194.7104">adjustInto(temporal: Temporal): Temporal</text><!--link Temporal to Instant--><path d="M370.453,259.097 C394.827,275.242 420.225,292.065 444.127,307.898 " fill="none" id="Temporal-Instant" style="stroke: #A80036; stroke-width: 1.0; stroke-dasharray: 7.0,7.0;"/><polygon fill="none" points="366.581,264.929,353.773,248.049,374.312,253.257,366.581,264.929" style="stroke: #A80036; stroke-width: 1.0;"/><!--link TemporalAccessor to Instant--><path d="M556,221.85 C556,247.047 556,278.921 556,307.587 " fill="none" id="TemporalAccessor-Instant" style="stroke: #A80036; stroke-width: 1.0; stroke-dasharray: 7.0,7.0;"/><polygon fill="none" points="549,221.674,556,201.674,563,221.673,549,221.674" style="stroke: #A80036; stroke-width: 1.0;"/><!--link TemporalAdjuster to Instant--><path d="M767.917,214.096 C734.798,240.337 689.708,276.062 649.633,307.814 " fill="none" id="TemporalAdjuster-Instant" style="stroke: #A80036; stroke-width: 1.0; stroke-dasharray: 7.0,7.0;"/><polygon fill="none" points="763.573,208.607,783.597,201.674,772.268,219.58,763.573,208.607" style="stroke: #A80036; stroke-width: 1.0;"/><!--
@startuml
package java.time {
 package temporal {
  interface Temporal {
   + minus(amountToSubtract: long, unit: TemporalUnit): Instant
   + minus(amountToSubtract: TemporalAmount): Instant
   +{abstract} plus(amountToAdd: long, unit: TemporalUnit): Instant
   + plus(amountToAdd: TemporalAmount): Instant
....
   +{abstract} until(endExclusive: Temporal, unit: TemporalUnit): long
....
   + with(adjuster: TemporalAdjuster): Instant
   +{abstract} with(field: TemporalField, newValue: long): Instant
  }
  interface TemporalAccessor {
   + get(field: TemporalField): int
  }

  interface TemporalAdjuster {
   +{abstract} adjustInto(temporal: Temporal): Temporal
  }
 }
 class Instant {
  +{static} EPOCH
  +{static} MAX
  +{static} MIN
  +{static} now()
  +{static} from(temporal: TemporalAccessor): Instant
  +{static} ofEpochSecond(epochSecond: long): Instant
  + isAfter(otherInstant: Instant)
  + isBefore(otherInstant: Instant)
 }
}
Instant .up.|> Temporal
Instant .up.|> TemporalAccessor
Instant .up.|> TemporalAdjuster
hide empty members
@enduml

PlantUML version 1.2019.08(Sat Jul 13 19:25:14 UTC 2019)
(GPL source distribution)
Java Runtime: Java(TM) SE Runtime Environment
JVM: Java HotSpot(TM) 64-Bit Server VM
Java Version: 1.7.0_25-b15
Operating System: Linux
Default Encoding: UTF-8
Language: en
Country: US
--></g></svg>