<?xml version="1.0" encoding="UTF-8" standalone="no"?>
<svg xmlns="http://www.w3.org/2000/svg" xmlns:xlink="http://www.w3.org/1999/xlink" contentScriptType="application/ecmascript" contentStyleType="text/css" height="444px" preserveAspectRatio="none" style="width:887px;height:444px;" version="1.1" viewBox="0 0 887 444" width="887px" zoomAndPan="magnify"><defs><filter height="300%" id="f152uh3elhz4pf" width="300%" x="-1" y="-1"><feGaussianBlur result="blurOut" stdDeviation="2.0"/><feColorMatrix in="blurOut" result="blurOut2" type="matrix" values="0 0 0 0 0 0 0 0 0 0 0 0 0 0 0 0 0 0 .4 0"/><feOffset dx="4.0" dy="4.0" in="blurOut2" result="blurOut3"/><feBlend in="SourceGraphic" in2="blurOut3" mode="normal"/></filter></defs><g><!--cluster java.time--><polygon fill="#FFFFFF" filter="url(#f152uh3elhz4pf)" points="22,24,98,24,105,46.2969,865,46.2969,865,432,22,432,22,24" style="stroke: #000000; stroke-width: 1.5;"/><line style="stroke: #000000; stroke-width: 1.5;" x1="22" x2="105" y1="46.2969" y2="46.2969"/><text fill="#000000" font-family="sans-serif" font-size="14" font-weight="bold" lengthAdjust="spacingAndGlyphs" textLength="70" x="26" y="38.9951">java.time</text><!--cluster temporal--><polygon fill="#FFFFFF" filter="url(#f152uh3elhz4pf)" points="362,67,438,67,445,89.2969,841,89.2969,841,150,362,150,362,67" style="stroke: #000000; stroke-width: 1.5;"/><line style="stroke: #000000; stroke-width: 1.5;" x1="362" x2="445" y1="89.2969" y2="89.2969"/><text fill="#000000" font-family="sans-serif" font-size="14" font-weight="bold" lengthAdjust="spacingAndGlyphs" textLength="70" x="366" y="81.9951">temporal</text><!--cluster chrono--><polygon fill="#FFFFFF" filter="url(#f152uh3elhz4pf)" points="479,187,541,187,548,209.2969,841,209.2969,841,404,479,404,479,187" style="stroke: #000000; stroke-width: 1.5;"/><line style="stroke: #000000; stroke-width: 1.5;" x1="479" x2="548" y1="209.2969" y2="209.2969"/><text fill="#000000" font-family="sans-serif" font-size="14" font-weight="bold" lengthAdjust="spacingAndGlyphs" textLength="56" x="483" y="201.9951">chrono</text><!--class LocalDate--><rect fill="#FEFECE" filter="url(#f152uh3elhz4pf)" height="222.4609" id="LocalDate" style="stroke: #A80036; stroke-width: 1.5;" width="422" x="38" y="194"/><ellipse cx="213.75" cy="210" fill="#ADD1B2" rx="11" ry="11" style="stroke: #A80036; stroke-width: 1.0;"/><path d="M216.0938,205.6719 L216.2656,205.75 C216.4844,205.4375 216.6875,205.3438 216.9844,205.3438 C217.2813,205.3438 217.5625,205.4844 217.7188,205.75 C217.8125,205.9063 217.8281,206.0313 217.8281,206.4688 L217.8281,207.8906 C217.8281,208.3125 217.7969,208.5 217.6875,208.6563 C217.5156,208.875 217.25,209.0156 216.9844,209.0156 C216.7656,209.0156 216.5313,208.9063 216.3906,208.7656 C216.25,208.6406 216.2188,208.5156 216.1563,208.1094 C216.0625,207.7031 215.8906,207.4844 215.4063,207.2031 C214.9375,206.9531 214.3281,206.7969 213.75,206.7969 C212.0156,206.7969 210.7656,208.1094 210.7656,209.8906 L210.7656,210.9844 C210.7656,212.6875 212.0625,213.7813 214.1094,213.7813 C214.875,213.7813 215.5625,213.6563 215.9844,213.3906 C216.1719,213.2969 216.1719,213.2969 216.625,212.8125 C216.8125,212.625 217.0156,212.5469 217.2344,212.5469 C217.7031,212.5469 218.0938,212.9375 218.0938,213.3906 C218.0938,213.7813 217.7656,214.2344 217.1875,214.6406 C216.4375,215.1875 215.2813,215.4844 214.0625,215.4844 C211.1719,215.4844 209.0625,213.5938 209.0625,211.0156 L209.0625,209.8906 C209.0625,207.1719 211.0625,205.0938 213.6875,205.0938 C214.5625,205.0938 215.1563,205.2344 216.0938,205.6719 Z "/><text fill="#000000" font-family="sans-serif" font-size="12" lengthAdjust="spacingAndGlyphs" textLength="62" x="234.25" y="214.1543">LocalDate</text><line style="stroke: #A80036; stroke-width: 1.5;" x1="39" x2="459" y1="226" y2="226"/><ellipse cx="49" cy="237.9023" fill="none" rx="3" ry="3" style="stroke: #038048; stroke-width: 1.0;"/><text fill="#000000" font-family="sans-serif" font-size="11" lengthAdjust="spacingAndGlyphs" text-decoration="underline" textLength="86" x="58" y="240.2104">MAX: LocalDate</text><ellipse cx="49" cy="250.707" fill="none" rx="3" ry="3" style="stroke: #038048; stroke-width: 1.0;"/><text fill="#000000" font-family="sans-serif" font-size="11" lengthAdjust="spacingAndGlyphs" text-decoration="underline" textLength="83" x="58" y="253.0151">MIN: LocalDate</text><ellipse cx="49" cy="263.5117" fill="#84BE84" rx="3" ry="3" style="stroke: #038048; stroke-width: 1.0;"/><text fill="#000000" font-family="sans-serif" font-size="11" lengthAdjust="spacingAndGlyphs" text-decoration="underline" textLength="263" x="58" y="265.8198">from(temporal: TemporalAccessor): LocalDate</text><ellipse cx="49" cy="276.3164" fill="#84BE84" rx="3" ry="3" style="stroke: #038048; stroke-width: 1.0;"/><text fill="#000000" font-family="sans-serif" font-size="11" lengthAdjust="spacingAndGlyphs" text-decoration="underline" textLength="94" x="58" y="278.6245">now(): LocalDate</text><ellipse cx="49" cy="289.1211" fill="#84BE84" rx="3" ry="3" style="stroke: #038048; stroke-width: 1.0;"/><text fill="#000000" font-family="sans-serif" font-size="11" lengthAdjust="spacingAndGlyphs" text-decoration="underline" textLength="229" x="58" y="291.4292">of(year: int, month: int, dayOfMonth: int)</text><line style="stroke: #A80036; stroke-width: 1.0; stroke-dasharray: 1.0,2.0;" x1="39" x2="459" y1="298.0234" y2="298.0234"/><ellipse cx="49" cy="309.9258" fill="#84BE84" rx="3" ry="3" style="stroke: #038048; stroke-width: 1.0;"/><text fill="#000000" font-family="sans-serif" font-size="11" lengthAdjust="spacingAndGlyphs" text-decoration="underline" textLength="216" x="58" y="312.2339">parse(text: CharSequence): LocalDate</text><ellipse cx="49" cy="322.7305" fill="#84BE84" rx="3" ry="3" style="stroke: #038048; stroke-width: 1.0;"/><text fill="#000000" font-family="sans-serif" font-size="11" lengthAdjust="spacingAndGlyphs" text-decoration="underline" textLength="396" x="58" y="325.0386">parse(text: CharSequence, formatter: DateTimeFormatter): LocalDate</text><line style="stroke: #A80036; stroke-width: 1.0; stroke-dasharray: 1.0,2.0;" x1="39" x2="459" y1="331.6328" y2="331.6328"/><ellipse cx="49" cy="343.5352" fill="#84BE84" rx="3" ry="3" style="stroke: #038048; stroke-width: 1.0;"/><text fill="#000000" font-family="sans-serif" font-size="11" lengthAdjust="spacingAndGlyphs" textLength="116" x="58" y="345.8433">getDayOfMonth(): int</text><ellipse cx="49" cy="356.3398" fill="#84BE84" rx="3" ry="3" style="stroke: #038048; stroke-width: 1.0;"/><text fill="#000000" font-family="sans-serif" font-size="11" lengthAdjust="spacingAndGlyphs" textLength="160" x="58" y="358.6479">getDayOfWeek(): DayOfWeek</text><ellipse cx="49" cy="369.1445" fill="#84BE84" rx="3" ry="3" style="stroke: #038048; stroke-width: 1.0;"/><text fill="#000000" font-family="sans-serif" font-size="11" lengthAdjust="spacingAndGlyphs" textLength="108" x="58" y="371.4526">getDayOfYear(): int</text><ellipse cx="49" cy="381.9492" fill="#84BE84" rx="3" ry="3" style="stroke: #038048; stroke-width: 1.0;"/><text fill="#000000" font-family="sans-serif" font-size="11" lengthAdjust="spacingAndGlyphs" textLength="102" x="58" y="384.2573">getMonth(): Month</text><ellipse cx="49" cy="394.7539" fill="#84BE84" rx="3" ry="3" style="stroke: #038048; stroke-width: 1.0;"/><text fill="#000000" font-family="sans-serif" font-size="11" lengthAdjust="spacingAndGlyphs" textLength="113" x="58" y="397.062">getMonthValue(): int</text><ellipse cx="49" cy="407.5586" fill="#84BE84" rx="3" ry="3" style="stroke: #038048; stroke-width: 1.0;"/><text fill="#000000" font-family="sans-serif" font-size="11" lengthAdjust="spacingAndGlyphs" textLength="74" x="58" y="409.8667">getYear(): int</text><!--class Temporal--><rect fill="#FEFECE" filter="url(#f152uh3elhz4pf)" height="32" id="Temporal" style="stroke: #A80036; stroke-width: 1.5;" width="90" x="378" y="102"/><ellipse cx="393" cy="118" fill="#B4A7E5" rx="11" ry="11" style="stroke: #A80036; stroke-width: 1.0;"/><path d="M393.9531,114.7813 L393.9531,121.2969 L395.6719,121.2969 C396.125,121.2969 396.2656,121.3281 396.4375,121.4531 C396.6719,121.625 396.7813,121.875 396.7813,122.1563 C396.7813,122.7188 396.4219,123 395.6719,123 L390.5313,123 C390.125,123 389.9219,122.9531 389.7656,122.8281 C389.5469,122.6719 389.4063,122.4063 389.4063,122.1563 C389.4063,121.8594 389.5625,121.5781 389.8125,121.4219 C389.9688,121.3125 390.0938,121.2969 390.5313,121.2969 L392.25,121.2969 L392.25,114.7813 L390.5313,114.7813 C390.1094,114.7813 389.9219,114.75 389.7656,114.6406 C389.5469,114.4688 389.4063,114.2188 389.4063,113.9375 C389.4063,113.6563 389.5625,113.3594 389.8125,113.2031 C389.9688,113.1094 390.0938,113.0938 390.5313,113.0938 L395.6719,113.0938 C396.125,113.0938 396.2656,113.125 396.4375,113.2344 C396.6719,113.4063 396.7813,113.6719 396.7813,113.9375 C396.7813,114.2344 396.6406,114.5156 396.375,114.6719 C396.25,114.75 396.0625,114.7813 395.6719,114.7813 Z "/><text fill="#000000" font-family="sans-serif" font-size="12" font-style="italic" lengthAdjust="spacingAndGlyphs" textLength="58" x="407" y="122.1543">Temporal</text><!--class TemporalAccessor--><rect fill="#FEFECE" filter="url(#f152uh3elhz4pf)" height="32" id="TemporalAccessor" style="stroke: #A80036; stroke-width: 1.5;" width="145" x="503.5" y="102"/><ellipse cx="518.5" cy="118" fill="#B4A7E5" rx="11" ry="11" style="stroke: #A80036; stroke-width: 1.0;"/><path d="M519.4531,114.7813 L519.4531,121.2969 L521.1719,121.2969 C521.625,121.2969 521.7656,121.3281 521.9375,121.4531 C522.1719,121.625 522.2813,121.875 522.2813,122.1563 C522.2813,122.7188 521.9219,123 521.1719,123 L516.0313,123 C515.625,123 515.4219,122.9531 515.2656,122.8281 C515.0469,122.6719 514.9063,122.4063 514.9063,122.1563 C514.9063,121.8594 515.0625,121.5781 515.3125,121.4219 C515.4688,121.3125 515.5938,121.2969 516.0313,121.2969 L517.75,121.2969 L517.75,114.7813 L516.0313,114.7813 C515.6094,114.7813 515.4219,114.75 515.2656,114.6406 C515.0469,114.4688 514.9063,114.2188 514.9063,113.9375 C514.9063,113.6563 515.0625,113.3594 515.3125,113.2031 C515.4688,113.1094 515.5938,113.0938 516.0313,113.0938 L521.1719,113.0938 C521.625,113.0938 521.7656,113.125 521.9375,113.2344 C522.1719,113.4063 522.2813,113.6719 522.2813,113.9375 C522.2813,114.2344 522.1406,114.5156 521.875,114.6719 C521.75,114.75 521.5625,114.7813 521.1719,114.7813 Z "/><text fill="#000000" font-family="sans-serif" font-size="12" font-style="italic" lengthAdjust="spacingAndGlyphs" textLength="113" x="532.5" y="122.1543">TemporalAccessor</text><!--class TemporalAdjuster--><rect fill="#FEFECE" filter="url(#f152uh3elhz4pf)" height="32" id="TemporalAdjuster" style="stroke: #A80036; stroke-width: 1.5;" width="141" x="683.5" y="102"/><ellipse cx="698.5" cy="118" fill="#B4A7E5" rx="11" ry="11" style="stroke: #A80036; stroke-width: 1.0;"/><path d="M699.4531,114.7813 L699.4531,121.2969 L701.1719,121.2969 C701.625,121.2969 701.7656,121.3281 701.9375,121.4531 C702.1719,121.625 702.2813,121.875 702.2813,122.1563 C702.2813,122.7188 701.9219,123 701.1719,123 L696.0313,123 C695.625,123 695.4219,122.9531 695.2656,122.8281 C695.0469,122.6719 694.9063,122.4063 694.9063,122.1563 C694.9063,121.8594 695.0625,121.5781 695.3125,121.4219 C695.4688,121.3125 695.5938,121.2969 696.0313,121.2969 L697.75,121.2969 L697.75,114.7813 L696.0313,114.7813 C695.6094,114.7813 695.4219,114.75 695.2656,114.6406 C695.0469,114.4688 694.9063,114.2188 694.9063,113.9375 C694.9063,113.6563 695.0625,113.3594 695.3125,113.2031 C695.4688,113.1094 695.5938,113.0938 696.0313,113.0938 L701.1719,113.0938 C701.625,113.0938 701.7656,113.125 701.9375,113.2344 C702.1719,113.4063 702.2813,113.6719 702.2813,113.9375 C702.2813,114.2344 702.1406,114.5156 701.875,114.6719 C701.75,114.75 701.5625,114.7813 701.1719,114.7813 Z "/><text fill="#000000" font-family="sans-serif" font-size="12" font-style="italic" lengthAdjust="spacingAndGlyphs" textLength="109" x="712.5" y="122.1543">TemporalAdjuster</text><!--class ChronoLocalDate--><rect fill="#FEFECE" filter="url(#f152uh3elhz4pf)" height="166.4375" id="ChronoLocalDate" style="stroke: #A80036; stroke-width: 1.5;" width="330" x="495" y="222"/><ellipse cx="601.75" cy="238" fill="#B4A7E5" rx="11" ry="11" style="stroke: #A80036; stroke-width: 1.0;"/><path d="M602.7031,234.7813 L602.7031,241.2969 L604.4219,241.2969 C604.875,241.2969 605.0156,241.3281 605.1875,241.4531 C605.4219,241.625 605.5313,241.875 605.5313,242.1563 C605.5313,242.7188 605.1719,243 604.4219,243 L599.2813,243 C598.875,243 598.6719,242.9531 598.5156,242.8281 C598.2969,242.6719 598.1563,242.4063 598.1563,242.1563 C598.1563,241.8594 598.3125,241.5781 598.5625,241.4219 C598.7188,241.3125 598.8438,241.2969 599.2813,241.2969 L601,241.2969 L601,234.7813 L599.2813,234.7813 C598.8594,234.7813 598.6719,234.75 598.5156,234.6406 C598.2969,234.4688 598.1563,234.2188 598.1563,233.9375 C598.1563,233.6563 598.3125,233.3594 598.5625,233.2031 C598.7188,233.1094 598.8438,233.0938 599.2813,233.0938 L604.4219,233.0938 C604.875,233.0938 605.0156,233.125 605.1875,233.2344 C605.4219,233.4063 605.5313,233.6719 605.5313,233.9375 C605.5313,234.2344 605.3906,234.5156 605.125,234.6719 C605,234.75 604.8125,234.7813 604.4219,234.7813 Z "/><text fill="#000000" font-family="sans-serif" font-size="12" font-style="italic" lengthAdjust="spacingAndGlyphs" textLength="108" x="622.25" y="242.1543">ChronoLocalDate</text><line style="stroke: #A80036; stroke-width: 1.5;" x1="496" x2="824" y1="254" y2="254"/><ellipse cx="506" cy="265.9023" fill="#84BE84" rx="3" ry="3" style="stroke: #038048; stroke-width: 1.0;"/><text fill="#000000" font-family="sans-serif" font-size="11" lengthAdjust="spacingAndGlyphs" text-decoration="underline" textLength="304" x="515" y="268.2104">from(temporal: TemporalAccessor): ChronoLocalDate</text><line style="stroke: #A80036; stroke-width: 1.0; stroke-dasharray: 1.0,2.0;" x1="496" x2="824" y1="274.8047" y2="274.8047"/><ellipse cx="506" cy="286.707" fill="#84BE84" rx="3" ry="3" style="stroke: #038048; stroke-width: 1.0;"/><text fill="#000000" font-family="sans-serif" font-size="11" lengthAdjust="spacingAndGlyphs" textLength="232" x="515" y="289.0151">isAfter(other: ChronoLocalDate): boolean</text><ellipse cx="506" cy="299.5117" fill="#84BE84" rx="3" ry="3" style="stroke: #038048; stroke-width: 1.0;"/><text fill="#000000" font-family="sans-serif" font-size="11" lengthAdjust="spacingAndGlyphs" textLength="243" x="515" y="301.8198">isBefore(other: ChronoLocalDate): boolean</text><ellipse cx="506" cy="312.3164" fill="#84BE84" rx="3" ry="3" style="stroke: #038048; stroke-width: 1.0;"/><text fill="#000000" font-family="sans-serif" font-size="11" lengthAdjust="spacingAndGlyphs" textLength="236" x="515" y="314.6245">isEqual(other: ChronoLocalDate): boolean</text><line style="stroke: #A80036; stroke-width: 1.0; stroke-dasharray: 1.0,2.0;" x1="496" x2="824" y1="321.2188" y2="321.2188"/><ellipse cx="506" cy="333.1211" fill="#84BE84" rx="3" ry="3" style="stroke: #038048; stroke-width: 1.0;"/><text fill="#000000" font-family="sans-serif" font-size="11" lengthAdjust="spacingAndGlyphs" textLength="124" x="515" y="335.4292">isLeapYear(): boolean</text><ellipse cx="506" cy="345.9258" fill="#84BE84" rx="3" ry="3" style="stroke: #038048; stroke-width: 1.0;"/><text fill="#000000" font-family="sans-serif" font-size="11" font-style="italic" lengthAdjust="spacingAndGlyphs" textLength="112" x="515" y="348.2339">lengthOfMonth(): int</text><ellipse cx="506" cy="358.7305" fill="#84BE84" rx="3" ry="3" style="stroke: #038048; stroke-width: 1.0;"/><text fill="#000000" font-family="sans-serif" font-size="11" lengthAdjust="spacingAndGlyphs" textLength="104" x="515" y="361.0386">lengthOfYear(): int</text><line style="stroke: #A80036; stroke-width: 1.0; stroke-dasharray: 1.0,2.0;" x1="496" x2="824" y1="367.6328" y2="367.6328"/><ellipse cx="506" cy="379.5352" fill="#84BE84" rx="3" ry="3" style="stroke: #038048; stroke-width: 1.0;"/><text fill="#000000" font-family="sans-serif" font-size="11" lengthAdjust="spacingAndGlyphs" textLength="260" x="515" y="381.8433">format(formatter: DateTimeFormatter): String</text><!--link LocalDate to ChronoLocalDate--><path d="M460.119,305 C465.005,305 469.891,305 474.777,305 " fill="none" id="LocalDate-ChronoLocalDate" style="stroke: #A80036; stroke-width: 1.0; stroke-dasharray: 7.0,7.0;"/><polygon fill="none" points="474.864,298,494.864,305,474.864,312,474.864,298" style="stroke: #A80036; stroke-width: 1.0;"/><!--link Temporal to ChronoLocalDate--><path d="M458.325,146.574 C483.967,166.59 520.09,194.788 554.694,221.799 " fill="none" id="Temporal-ChronoLocalDate" style="stroke: #A80036; stroke-width: 1.0; stroke-dasharray: 7.0,7.0;"/><polygon fill="none" points="453.853,151.964,442.395,134.139,462.468,140.928,453.853,151.964" style="stroke: #A80036; stroke-width: 1.0;"/><!--link TemporalAccessor to ChronoLocalDate--><path d="M591.22,152.52 C600.02,171.902 611.512,197.211 622.575,221.577 " fill="none" id="TemporalAccessor-ChronoLocalDate" style="stroke: #A80036; stroke-width: 1.0; stroke-dasharray: 7.0,7.0;"/><polygon fill="none" points="584.769,155.244,582.874,134.139,597.517,149.456,584.769,155.244" style="stroke: #A80036; stroke-width: 1.0;"/><!--link TemporalAdjuster to ChronoLocalDate--><path d="M737.125,152.211 C727.257,171.633 714.326,197.082 701.88,221.577 " fill="none" id="TemporalAdjuster-ChronoLocalDate" style="stroke: #A80036; stroke-width: 1.0; stroke-dasharray: 7.0,7.0;"/><polygon fill="none" points="731.007,148.799,746.308,134.139,743.488,155.141,731.007,148.799" style="stroke: #A80036; stroke-width: 1.0;"/><!--
@startuml
package java.time {
 package temporal {
  interface Temporal
  interface TemporalAccessor
  interface TemporalAdjuster
 }
 package chrono {
  interface ChronoLocalDate {
   +{static} from(temporal: TemporalAccessor): ChronoLocalDate
....
   + isAfter(other: ChronoLocalDate): boolean
   + isBefore(other: ChronoLocalDate): boolean
   + isEqual(other: ChronoLocalDate): boolean
....
   + isLeapYear(): boolean
   + {abstract} lengthOfMonth(): int
   + lengthOfYear(): int
....
   + format(formatter: DateTimeFormatter): String
  }
 }
 class LocalDate {
  +{static} MAX: LocalDate
  +{static} MIN: LocalDate
  +{static} from(temporal: TemporalAccessor): LocalDate
  +{static} now(): LocalDate
  +{static} of(year: int, month: int, dayOfMonth: int)
....
  +{static} parse(text: CharSequence): LocalDate
  +{static} parse(text: CharSequence, formatter: DateTimeFormatter): LocalDate
....
  + getDayOfMonth(): int
  + getDayOfWeek(): DayOfWeek
  + getDayOfYear(): int
  + getMonth(): Month
  + getMonthValue(): int
  + getYear(): int
 }
}
LocalDate .right.|> ChronoLocalDate
ChronoLocalDate .up.|> Temporal
ChronoLocalDate .up.|> TemporalAccessor
ChronoLocalDate .up.|> TemporalAdjuster
hide empty members
@enduml

PlantUML version 1.2019.08(Sat Jul 13 19:25:14 UTC 2019)
(GPL source distribution)
Java Runtime: Java(TM) SE Runtime Environment
JVM: Java HotSpot(TM) 64-Bit Server VM
Java Version: 1.7.0_25-b15
Operating System: Linux
Default Encoding: UTF-8
Language: en
Country: US
--></g></svg>