<?xml version="1.0" encoding="UTF-8" standalone="no"?>
<svg xmlns="http://www.w3.org/2000/svg" xmlns:xlink="http://www.w3.org/1999/xlink" contentScriptType="application/ecmascript" contentStyleType="text/css" height="254px" preserveAspectRatio="none" style="width:779px;height:254px;" version="1.1" viewBox="0 0 779 254" width="779px" zoomAndPan="magnify"><defs><filter height="300%" id="fxxynol6r3ufc" width="300%" x="-1" y="-1"><feGaussianBlur result="blurOut" stdDeviation="2.0"/><feColorMatrix in="blurOut" result="blurOut2" type="matrix" values="0 0 0 0 0 0 0 0 0 0 0 0 0 0 0 0 0 0 .4 0"/><feOffset dx="4.0" dy="4.0" in="blurOut2" result="blurOut3"/><feBlend in="SourceGraphic" in2="blurOut3" mode="normal"/></filter></defs><g><!--cluster java.time--><polygon fill="#FFFFFF" filter="url(#fxxynol6r3ufc)" points="22,24,98,24,105,46.2969,757,46.2969,757,242,22,242,22,24" style="stroke: #000000; stroke-width: 1.5;"/><line style="stroke: #000000; stroke-width: 1.5;" x1="22" x2="105" y1="46.2969" y2="46.2969"/><text fill="#000000" font-family="sans-serif" font-size="14" font-weight="bold" lengthAdjust="spacingAndGlyphs" textLength="70" x="26" y="38.9951">java.time</text><!--cluster chrono--><polygon fill="#FFFFFF" filter="url(#fxxynol6r3ufc)" points="274,67,336,67,343,89.2969,446,89.2969,446,150,274,150,274,67" style="stroke: #000000; stroke-width: 1.5;"/><line style="stroke: #000000; stroke-width: 1.5;" x1="274" x2="343" y1="89.2969" y2="89.2969"/><text fill="#000000" font-family="sans-serif" font-size="14" font-weight="bold" lengthAdjust="spacingAndGlyphs" textLength="56" x="278" y="81.9951">chrono</text><!--class LocalDate--><rect fill="#FEFECE" filter="url(#fxxynol6r3ufc)" height="32" id="LocalDate" style="stroke: #A80036; stroke-width: 1.5;" width="94" x="38" y="194"/><ellipse cx="53" cy="210" fill="#ADD1B2" rx="11" ry="11" style="stroke: #A80036; stroke-width: 1.0;"/><path d="M55.3438,205.6719 L55.5156,205.75 C55.7344,205.4375 55.9375,205.3438 56.2344,205.3438 C56.5313,205.3438 56.8125,205.4844 56.9688,205.75 C57.0625,205.9063 57.0781,206.0313 57.0781,206.4688 L57.0781,207.8906 C57.0781,208.3125 57.0469,208.5 56.9375,208.6563 C56.7656,208.875 56.5,209.0156 56.2344,209.0156 C56.0156,209.0156 55.7813,208.9063 55.6406,208.7656 C55.5,208.6406 55.4688,208.5156 55.4063,208.1094 C55.3125,207.7031 55.1406,207.4844 54.6563,207.2031 C54.1875,206.9531 53.5781,206.7969 53,206.7969 C51.2656,206.7969 50.0156,208.1094 50.0156,209.8906 L50.0156,210.9844 C50.0156,212.6875 51.3125,213.7813 53.3594,213.7813 C54.125,213.7813 54.8125,213.6563 55.2344,213.3906 C55.4219,213.2969 55.4219,213.2969 55.875,212.8125 C56.0625,212.625 56.2656,212.5469 56.4844,212.5469 C56.9531,212.5469 57.3438,212.9375 57.3438,213.3906 C57.3438,213.7813 57.0156,214.2344 56.4375,214.6406 C55.6875,215.1875 54.5313,215.4844 53.3125,215.4844 C50.4219,215.4844 48.3125,213.5938 48.3125,211.0156 L48.3125,209.8906 C48.3125,207.1719 50.3125,205.0938 52.9375,205.0938 C53.8125,205.0938 54.4063,205.2344 55.3438,205.6719 Z "/><text fill="#000000" font-family="sans-serif" font-size="12" lengthAdjust="spacingAndGlyphs" textLength="62" x="67" y="214.1543">LocalDate</text><!--class HijrahDate--><rect fill="#FEFECE" filter="url(#fxxynol6r3ufc)" height="32" id="HijrahDate" style="stroke: #A80036; stroke-width: 1.5;" width="98" x="167" y="194"/><ellipse cx="182" cy="210" fill="#ADD1B2" rx="11" ry="11" style="stroke: #A80036; stroke-width: 1.0;"/><path d="M184.3438,205.6719 L184.5156,205.75 C184.7344,205.4375 184.9375,205.3438 185.2344,205.3438 C185.5313,205.3438 185.8125,205.4844 185.9688,205.75 C186.0625,205.9063 186.0781,206.0313 186.0781,206.4688 L186.0781,207.8906 C186.0781,208.3125 186.0469,208.5 185.9375,208.6563 C185.7656,208.875 185.5,209.0156 185.2344,209.0156 C185.0156,209.0156 184.7813,208.9063 184.6406,208.7656 C184.5,208.6406 184.4688,208.5156 184.4063,208.1094 C184.3125,207.7031 184.1406,207.4844 183.6563,207.2031 C183.1875,206.9531 182.5781,206.7969 182,206.7969 C180.2656,206.7969 179.0156,208.1094 179.0156,209.8906 L179.0156,210.9844 C179.0156,212.6875 180.3125,213.7813 182.3594,213.7813 C183.125,213.7813 183.8125,213.6563 184.2344,213.3906 C184.4219,213.2969 184.4219,213.2969 184.875,212.8125 C185.0625,212.625 185.2656,212.5469 185.4844,212.5469 C185.9531,212.5469 186.3438,212.9375 186.3438,213.3906 C186.3438,213.7813 186.0156,214.2344 185.4375,214.6406 C184.6875,215.1875 183.5313,215.4844 182.3125,215.4844 C179.4219,215.4844 177.3125,213.5938 177.3125,211.0156 L177.3125,209.8906 C177.3125,207.1719 179.3125,205.0938 181.9375,205.0938 C182.8125,205.0938 183.4063,205.2344 184.3438,205.6719 Z "/><text fill="#000000" font-family="sans-serif" font-size="12" lengthAdjust="spacingAndGlyphs" textLength="66" x="196" y="214.1543">HijrahDate</text><!--class JapaneseDate--><rect fill="#FEFECE" filter="url(#fxxynol6r3ufc)" height="32" id="JapaneseDate" style="stroke: #A80036; stroke-width: 1.5;" width="120" x="300" y="194"/><ellipse cx="315" cy="210" fill="#ADD1B2" rx="11" ry="11" style="stroke: #A80036; stroke-width: 1.0;"/><path d="M317.3438,205.6719 L317.5156,205.75 C317.7344,205.4375 317.9375,205.3438 318.2344,205.3438 C318.5313,205.3438 318.8125,205.4844 318.9688,205.75 C319.0625,205.9063 319.0781,206.0313 319.0781,206.4688 L319.0781,207.8906 C319.0781,208.3125 319.0469,208.5 318.9375,208.6563 C318.7656,208.875 318.5,209.0156 318.2344,209.0156 C318.0156,209.0156 317.7813,208.9063 317.6406,208.7656 C317.5,208.6406 317.4688,208.5156 317.4063,208.1094 C317.3125,207.7031 317.1406,207.4844 316.6563,207.2031 C316.1875,206.9531 315.5781,206.7969 315,206.7969 C313.2656,206.7969 312.0156,208.1094 312.0156,209.8906 L312.0156,210.9844 C312.0156,212.6875 313.3125,213.7813 315.3594,213.7813 C316.125,213.7813 316.8125,213.6563 317.2344,213.3906 C317.4219,213.2969 317.4219,213.2969 317.875,212.8125 C318.0625,212.625 318.2656,212.5469 318.4844,212.5469 C318.9531,212.5469 319.3438,212.9375 319.3438,213.3906 C319.3438,213.7813 319.0156,214.2344 318.4375,214.6406 C317.6875,215.1875 316.5313,215.4844 315.3125,215.4844 C312.4219,215.4844 310.3125,213.5938 310.3125,211.0156 L310.3125,209.8906 C310.3125,207.1719 312.3125,205.0938 314.9375,205.0938 C315.8125,205.0938 316.4063,205.2344 317.3438,205.6719 Z "/><text fill="#000000" font-family="sans-serif" font-size="12" lengthAdjust="spacingAndGlyphs" textLength="88" x="329" y="214.1543">JapaneseDate</text><!--class MinguoDate--><rect fill="#FEFECE" filter="url(#fxxynol6r3ufc)" height="32" id="MinguoDate" style="stroke: #A80036; stroke-width: 1.5;" width="107" x="455.5" y="194"/><ellipse cx="470.5" cy="210" fill="#ADD1B2" rx="11" ry="11" style="stroke: #A80036; stroke-width: 1.0;"/><path d="M472.8438,205.6719 L473.0156,205.75 C473.2344,205.4375 473.4375,205.3438 473.7344,205.3438 C474.0313,205.3438 474.3125,205.4844 474.4688,205.75 C474.5625,205.9063 474.5781,206.0313 474.5781,206.4688 L474.5781,207.8906 C474.5781,208.3125 474.5469,208.5 474.4375,208.6563 C474.2656,208.875 474,209.0156 473.7344,209.0156 C473.5156,209.0156 473.2813,208.9063 473.1406,208.7656 C473,208.6406 472.9688,208.5156 472.9063,208.1094 C472.8125,207.7031 472.6406,207.4844 472.1563,207.2031 C471.6875,206.9531 471.0781,206.7969 470.5,206.7969 C468.7656,206.7969 467.5156,208.1094 467.5156,209.8906 L467.5156,210.9844 C467.5156,212.6875 468.8125,213.7813 470.8594,213.7813 C471.625,213.7813 472.3125,213.6563 472.7344,213.3906 C472.9219,213.2969 472.9219,213.2969 473.375,212.8125 C473.5625,212.625 473.7656,212.5469 473.9844,212.5469 C474.4531,212.5469 474.8438,212.9375 474.8438,213.3906 C474.8438,213.7813 474.5156,214.2344 473.9375,214.6406 C473.1875,215.1875 472.0313,215.4844 470.8125,215.4844 C467.9219,215.4844 465.8125,213.5938 465.8125,211.0156 L465.8125,209.8906 C465.8125,207.1719 467.8125,205.0938 470.4375,205.0938 C471.3125,205.0938 471.9063,205.2344 472.8438,205.6719 Z "/><text fill="#000000" font-family="sans-serif" font-size="12" lengthAdjust="spacingAndGlyphs" textLength="75" x="484.5" y="214.1543">MinguoDate</text><!--class ThaiBuddhistDate--><rect fill="#FEFECE" filter="url(#fxxynol6r3ufc)" height="32" id="ThaiBuddhistDate" style="stroke: #A80036; stroke-width: 1.5;" width="143" x="597.5" y="194"/><ellipse cx="612.5" cy="210" fill="#ADD1B2" rx="11" ry="11" style="stroke: #A80036; stroke-width: 1.0;"/><path d="M614.8438,205.6719 L615.0156,205.75 C615.2344,205.4375 615.4375,205.3438 615.7344,205.3438 C616.0313,205.3438 616.3125,205.4844 616.4688,205.75 C616.5625,205.9063 616.5781,206.0313 616.5781,206.4688 L616.5781,207.8906 C616.5781,208.3125 616.5469,208.5 616.4375,208.6563 C616.2656,208.875 616,209.0156 615.7344,209.0156 C615.5156,209.0156 615.2813,208.9063 615.1406,208.7656 C615,208.6406 614.9688,208.5156 614.9063,208.1094 C614.8125,207.7031 614.6406,207.4844 614.1563,207.2031 C613.6875,206.9531 613.0781,206.7969 612.5,206.7969 C610.7656,206.7969 609.5156,208.1094 609.5156,209.8906 L609.5156,210.9844 C609.5156,212.6875 610.8125,213.7813 612.8594,213.7813 C613.625,213.7813 614.3125,213.6563 614.7344,213.3906 C614.9219,213.2969 614.9219,213.2969 615.375,212.8125 C615.5625,212.625 615.7656,212.5469 615.9844,212.5469 C616.4531,212.5469 616.8438,212.9375 616.8438,213.3906 C616.8438,213.7813 616.5156,214.2344 615.9375,214.6406 C615.1875,215.1875 614.0313,215.4844 612.8125,215.4844 C609.9219,215.4844 607.8125,213.5938 607.8125,211.0156 L607.8125,209.8906 C607.8125,207.1719 609.8125,205.0938 612.4375,205.0938 C613.3125,205.0938 613.9063,205.2344 614.8438,205.6719 Z "/><text fill="#000000" font-family="sans-serif" font-size="12" lengthAdjust="spacingAndGlyphs" textLength="111" x="626.5" y="214.1543">ThaiBuddhistDate</text><!--class ChronoLocalDate--><rect fill="#FEFECE" filter="url(#fxxynol6r3ufc)" height="32" id="ChronoLocalDate" style="stroke: #A80036; stroke-width: 1.5;" width="140" x="290" y="102"/><ellipse cx="305" cy="118" fill="#B4A7E5" rx="11" ry="11" style="stroke: #A80036; stroke-width: 1.0;"/><path d="M305.9531,114.7813 L305.9531,121.2969 L307.6719,121.2969 C308.125,121.2969 308.2656,121.3281 308.4375,121.4531 C308.6719,121.625 308.7813,121.875 308.7813,122.1563 C308.7813,122.7188 308.4219,123 307.6719,123 L302.5313,123 C302.125,123 301.9219,122.9531 301.7656,122.8281 C301.5469,122.6719 301.4063,122.4063 301.4063,122.1563 C301.4063,121.8594 301.5625,121.5781 301.8125,121.4219 C301.9688,121.3125 302.0938,121.2969 302.5313,121.2969 L304.25,121.2969 L304.25,114.7813 L302.5313,114.7813 C302.1094,114.7813 301.9219,114.75 301.7656,114.6406 C301.5469,114.4688 301.4063,114.2188 301.4063,113.9375 C301.4063,113.6563 301.5625,113.3594 301.8125,113.2031 C301.9688,113.1094 302.0938,113.0938 302.5313,113.0938 L307.6719,113.0938 C308.125,113.0938 308.2656,113.125 308.4375,113.2344 C308.6719,113.4063 308.7813,113.6719 308.7813,113.9375 C308.7813,114.2344 308.6406,114.5156 308.375,114.6719 C308.25,114.75 308.0625,114.7813 307.6719,114.7813 Z "/><text fill="#000000" font-family="sans-serif" font-size="12" font-style="italic" lengthAdjust="spacingAndGlyphs" textLength="108" x="319" y="122.1543">ChronoLocalDate</text><!--link ChronoLocalDate to LocalDate--><path d="M294.634,140.393 C244.289,156.869 175.947,179.2355 131.179,193.8869 " fill="none" id="ChronoLocalDate-LocalDate" style="stroke: #A80036; stroke-width: 1.0; stroke-dasharray: 7.0,7.0;"/><polygon fill="none" points="292.786,133.632,313.971,134.064,297.141,146.938,292.786,133.632" style="stroke: #A80036; stroke-width: 1.0;"/><!--link ChronoLocalDate to HijrahDate--><path d="M318.736,144.79 C293.313,160.6795 261.596,180.5024 240.181,193.8869 " fill="none" id="ChronoLocalDate-HijrahDate" style="stroke: #A80036; stroke-width: 1.0; stroke-dasharray: 7.0,7.0;"/><polygon fill="none" points="315.228,138.728,335.898,134.064,322.648,150.6,315.228,138.728" style="stroke: #A80036; stroke-width: 1.0;"/><!--link ChronoLocalDate to JapaneseDate--><path d="M360,154.615 C360,168.3102 360,183.2196 360,193.9582 " fill="none" id="ChronoLocalDate-JapaneseDate" style="stroke: #A80036; stroke-width: 1.0; stroke-dasharray: 7.0,7.0;"/><polygon fill="none" points="353,154.267,360,134.267,367,154.267,353,154.267" style="stroke: #A80036; stroke-width: 1.0;"/><!--link ChronoLocalDate to MinguoDate--><path d="M402.315,144.559 C428.684,160.4869 461.713,180.4375 483.979,193.8869 " fill="none" id="ChronoLocalDate-MinguoDate" style="stroke: #A80036; stroke-width: 1.0; stroke-dasharray: 7.0,7.0;"/><polygon fill="none" points="398.439,150.396,384.939,134.064,405.678,138.413,398.439,150.396" style="stroke: #A80036; stroke-width: 1.0;"/><!--link ChronoLocalDate to ThaiBuddhistDate--><path d="M431.232,139.747 C488.093,156.309 566.412,179.1201 617.369,193.962 " fill="none" id="ChronoLocalDate-ThaiBuddhistDate" style="stroke: #A80036; stroke-width: 1.0; stroke-dasharray: 7.0,7.0;"/><polygon fill="none" points="428.964,146.378,411.72,134.064,432.879,132.936,428.964,146.378" style="stroke: #A80036; stroke-width: 1.0;"/><!--
@startuml
package java.time {
 package chrono {
  interface ChronoLocalDate
 }
 class LocalDate
 class HijrahDate
 class JapaneseDate
 class MinguoDate
 class ThaiBuddhistDate
}
LocalDate .up.|> ChronoLocalDate
HijrahDate .up.|> ChronoLocalDate
JapaneseDate .up.|> ChronoLocalDate
MinguoDate .up.|> ChronoLocalDate
ThaiBuddhistDate .up.|> ChronoLocalDate
hide empty members
@enduml

PlantUML version 1.2019.08(Sat Jul 13 19:25:14 UTC 2019)
(GPL source distribution)
Java Runtime: Java(TM) SE Runtime Environment
JVM: Java HotSpot(TM) 64-Bit Server VM
Java Version: 1.7.0_25-b15
Operating System: Linux
Default Encoding: UTF-8
Language: en
Country: US
--></g></svg>