<?xml version="1.0" encoding="UTF-8" standalone="no"?>
<svg xmlns="http://www.w3.org/2000/svg" xmlns:xlink="http://www.w3.org/1999/xlink" contentScriptType="application/ecmascript" contentStyleType="text/css" height="514px" preserveAspectRatio="none" style="width:853px;height:514px;" version="1.1" viewBox="0 0 853 514" width="853px" zoomAndPan="magnify"><defs><filter height="300%" id="fidhqlorlwuv2" width="300%" x="-1" y="-1"><feGaussianBlur result="blurOut" stdDeviation="2.0"/><feColorMatrix in="blurOut" result="blurOut2" type="matrix" values="0 0 0 0 0 0 0 0 0 0 0 0 0 0 0 0 0 0 .4 0"/><feOffset dx="4.0" dy="4.0" in="blurOut2" result="blurOut3"/><feBlend in="SourceGraphic" in2="blurOut3" mode="normal"/></filter></defs><g><!--cluster java.time--><polygon fill="#FFFFFF" filter="url(#fidhqlorlwuv2)" points="22,24,98,24,105,46.2969,831,46.2969,831,502,22,502,22,24" style="stroke: #000000; stroke-width: 1.5;"/><line style="stroke: #000000; stroke-width: 1.5;" x1="22" x2="105" y1="46.2969" y2="46.2969"/><text fill="#000000" font-family="sans-serif" font-size="14" font-weight="bold" lengthAdjust="spacingAndGlyphs" textLength="70" x="26" y="38.9951">java.time</text><!--cluster temporal--><polygon fill="#FFFFFF" filter="url(#fidhqlorlwuv2)" points="46,67,122,67,129,89.2969,807,89.2969,807,312,46,312,46,67" style="stroke: #000000; stroke-width: 1.5;"/><line style="stroke: #000000; stroke-width: 1.5;" x1="46" x2="129" y1="89.2969" y2="89.2969"/><text fill="#000000" font-family="sans-serif" font-size="14" font-weight="bold" lengthAdjust="spacingAndGlyphs" textLength="70" x="50" y="81.9951">temporal</text><!--class DayOfWeek--><rect fill="#FEFECE" filter="url(#fidhqlorlwuv2)" height="129.6328" id="DayOfWeek" style="stroke: #A80036; stroke-width: 1.5;" width="102" x="491" y="356"/><ellipse cx="506" cy="372" fill="#EB937F" rx="11" ry="11" style="stroke: #A80036; stroke-width: 1.0;"/><path d="M504.2969,372.875 L504.2969,375.2969 L508.6563,375.2969 L508.6563,374.4219 C508.6563,373.9375 508.6875,373.7969 508.7969,373.6406 C508.9688,373.3906 509.2344,373.2813 509.5,373.2813 C509.7813,373.2813 510.0625,373.4375 510.2344,373.6875 C510.3125,373.8438 510.3438,373.9844 510.3438,374.4219 L510.3438,377 L502.3438,377 C501.9531,377 501.7188,376.9531 501.5781,376.8281 C501.3594,376.6719 501.2188,376.4219 501.2188,376.1563 C501.2188,375.8594 501.375,375.5938 501.625,375.4219 C501.7813,375.3125 501.9375,375.2969 502.3438,375.2969 L502.5938,375.2969 L502.5938,368.7813 L502.3438,368.7813 C501.9219,368.7813 501.7344,368.75 501.5781,368.6406 C501.3594,368.4688 501.2188,368.2188 501.2188,367.9375 C501.2188,367.6563 501.375,367.3594 501.625,367.2031 C501.7813,367.1094 501.9063,367.0938 502.3438,367.0938 L509.9688,367.0938 L509.9688,369.6406 C509.9688,370.1094 509.9375,370.25 509.8281,370.4219 C509.6563,370.6406 509.3906,370.7813 509.125,370.7813 C508.8438,370.7813 508.5625,370.625 508.3906,370.375 C508.3125,370.2188 508.2813,370.0469 508.2813,369.6406 L508.2813,368.7813 L504.2969,368.7813 L504.2969,371.1875 L505.75,371.1875 L505.75,371.0625 C505.75,370.6094 505.7813,370.4531 505.8906,370.2813 C506.0625,370.0625 506.3281,369.9219 506.5781,369.9219 C507.0313,369.9219 507.3438,370.2344 507.4063,370.7031 C507.4219,370.8594 507.4219,370.9063 507.4219,371.0625 L507.4219,372.9844 C507.4219,373.4375 507.3906,373.5938 507.2656,373.75 C507.1094,373.9688 506.8438,374.1094 506.5938,374.1094 C506.2969,374.1094 506.0156,373.9531 505.8594,373.7031 C505.7813,373.5469 505.75,373.3906 505.75,372.9844 L505.75,372.875 Z "/><text fill="#000000" font-family="sans-serif" font-size="12" lengthAdjust="spacingAndGlyphs" textLength="70" x="520" y="376.1543">DayOfWeek</text><line style="stroke: #A80036; stroke-width: 1.5;" x1="492" x2="592" y1="388" y2="388"/><ellipse cx="502" cy="399.9023" fill="none" rx="3" ry="3" style="stroke: #038048; stroke-width: 1.0;"/><text fill="#000000" font-family="sans-serif" font-size="11" lengthAdjust="spacingAndGlyphs" text-decoration="underline" textLength="48" x="511" y="402.2104">MONDAY</text><ellipse cx="502" cy="412.707" fill="none" rx="3" ry="3" style="stroke: #038048; stroke-width: 1.0;"/><text fill="#000000" font-family="sans-serif" font-size="11" lengthAdjust="spacingAndGlyphs" text-decoration="underline" textLength="52" x="511" y="415.0151">TUESDAY</text><ellipse cx="502" cy="425.5117" fill="none" rx="3" ry="3" style="stroke: #038048; stroke-width: 1.0;"/><text fill="#000000" font-family="sans-serif" font-size="11" lengthAdjust="spacingAndGlyphs" text-decoration="underline" textLength="69" x="511" y="427.8198">WEDNESDAY</text><ellipse cx="502" cy="438.3164" fill="none" rx="3" ry="3" style="stroke: #038048; stroke-width: 1.0;"/><text fill="#000000" font-family="sans-serif" font-size="11" lengthAdjust="spacingAndGlyphs" text-decoration="underline" textLength="60" x="511" y="440.6245">THURSDAY</text><ellipse cx="502" cy="451.1211" fill="none" rx="3" ry="3" style="stroke: #038048; stroke-width: 1.0;"/><text fill="#000000" font-family="sans-serif" font-size="11" lengthAdjust="spacingAndGlyphs" text-decoration="underline" textLength="38" x="511" y="453.4292">FRIDAY</text><ellipse cx="502" cy="463.9258" fill="none" rx="3" ry="3" style="stroke: #038048; stroke-width: 1.0;"/><text fill="#000000" font-family="sans-serif" font-size="11" lengthAdjust="spacingAndGlyphs" text-decoration="underline" textLength="59" x="511" y="466.2339">SATURDAY</text><ellipse cx="502" cy="476.7305" fill="none" rx="3" ry="3" style="stroke: #038048; stroke-width: 1.0;"/><text fill="#000000" font-family="sans-serif" font-size="11" lengthAdjust="spacingAndGlyphs" text-decoration="underline" textLength="46" x="511" y="479.0386">SUNDAY</text><!--class TemporalAccessor--><rect fill="#FEFECE" filter="url(#fidhqlorlwuv2)" height="32" id="TemporalAccessor" style="stroke: #A80036; stroke-width: 1.5;" width="145" x="469.5" y="183"/><ellipse cx="484.5" cy="199" fill="#B4A7E5" rx="11" ry="11" style="stroke: #A80036; stroke-width: 1.0;"/><path d="M485.4531,195.7813 L485.4531,202.2969 L487.1719,202.2969 C487.625,202.2969 487.7656,202.3281 487.9375,202.4531 C488.1719,202.625 488.2813,202.875 488.2813,203.1563 C488.2813,203.7188 487.9219,204 487.1719,204 L482.0313,204 C481.625,204 481.4219,203.9531 481.2656,203.8281 C481.0469,203.6719 480.9063,203.4063 480.9063,203.1563 C480.9063,202.8594 481.0625,202.5781 481.3125,202.4219 C481.4688,202.3125 481.5938,202.2969 482.0313,202.2969 L483.75,202.2969 L483.75,195.7813 L482.0313,195.7813 C481.6094,195.7813 481.4219,195.75 481.2656,195.6406 C481.0469,195.4688 480.9063,195.2188 480.9063,194.9375 C480.9063,194.6563 481.0625,194.3594 481.3125,194.2031 C481.4688,194.1094 481.5938,194.0938 482.0313,194.0938 L487.1719,194.0938 C487.625,194.0938 487.7656,194.125 487.9375,194.2344 C488.1719,194.4063 488.2813,194.6719 488.2813,194.9375 C488.2813,195.2344 488.1406,195.5156 487.875,195.6719 C487.75,195.75 487.5625,195.7813 487.1719,195.7813 Z "/><text fill="#000000" font-family="sans-serif" font-size="12" font-style="italic" lengthAdjust="spacingAndGlyphs" textLength="113" x="498.5" y="203.1543">TemporalAccessor</text><!--class TemporalAdjuster--><rect fill="#FEFECE" filter="url(#fidhqlorlwuv2)" height="32" id="TemporalAdjuster" style="stroke: #A80036; stroke-width: 1.5;" width="141" x="649.5" y="183"/><ellipse cx="664.5" cy="199" fill="#B4A7E5" rx="11" ry="11" style="stroke: #A80036; stroke-width: 1.0;"/><path d="M665.4531,195.7813 L665.4531,202.2969 L667.1719,202.2969 C667.625,202.2969 667.7656,202.3281 667.9375,202.4531 C668.1719,202.625 668.2813,202.875 668.2813,203.1563 C668.2813,203.7188 667.9219,204 667.1719,204 L662.0313,204 C661.625,204 661.4219,203.9531 661.2656,203.8281 C661.0469,203.6719 660.9063,203.4063 660.9063,203.1563 C660.9063,202.8594 661.0625,202.5781 661.3125,202.4219 C661.4688,202.3125 661.5938,202.2969 662.0313,202.2969 L663.75,202.2969 L663.75,195.7813 L662.0313,195.7813 C661.6094,195.7813 661.4219,195.75 661.2656,195.6406 C661.0469,195.4688 660.9063,195.2188 660.9063,194.9375 C660.9063,194.6563 661.0625,194.3594 661.3125,194.2031 C661.4688,194.1094 661.5938,194.0938 662.0313,194.0938 L667.1719,194.0938 C667.625,194.0938 667.7656,194.125 667.9375,194.2344 C668.1719,194.4063 668.2813,194.6719 668.2813,194.9375 C668.2813,195.2344 668.1406,195.5156 667.875,195.6719 C667.75,195.75 667.5625,195.7813 667.1719,195.7813 Z "/><text fill="#000000" font-family="sans-serif" font-size="12" font-style="italic" lengthAdjust="spacingAndGlyphs" textLength="109" x="678.5" y="203.1543">TemporalAdjuster</text><!--class TemporalAdjusters--><rect fill="#FEFECE" filter="url(#fidhqlorlwuv2)" height="193.6563" id="TemporalAdjusters" style="stroke: #A80036; stroke-width: 1.5;" width="372" x="62" y="102"/><ellipse cx="185.25" cy="118" fill="#ADD1B2" rx="11" ry="11" style="stroke: #A80036; stroke-width: 1.0;"/><path d="M187.5938,113.6719 L187.7656,113.75 C187.9844,113.4375 188.1875,113.3438 188.4844,113.3438 C188.7813,113.3438 189.0625,113.4844 189.2188,113.75 C189.3125,113.9063 189.3281,114.0313 189.3281,114.4688 L189.3281,115.8906 C189.3281,116.3125 189.2969,116.5 189.1875,116.6563 C189.0156,116.875 188.75,117.0156 188.4844,117.0156 C188.2656,117.0156 188.0313,116.9063 187.8906,116.7656 C187.75,116.6406 187.7188,116.5156 187.6563,116.1094 C187.5625,115.7031 187.3906,115.4844 186.9063,115.2031 C186.4375,114.9531 185.8281,114.7969 185.25,114.7969 C183.5156,114.7969 182.2656,116.1094 182.2656,117.8906 L182.2656,118.9844 C182.2656,120.6875 183.5625,121.7813 185.6094,121.7813 C186.375,121.7813 187.0625,121.6563 187.4844,121.3906 C187.6719,121.2969 187.6719,121.2969 188.125,120.8125 C188.3125,120.625 188.5156,120.5469 188.7344,120.5469 C189.2031,120.5469 189.5938,120.9375 189.5938,121.3906 C189.5938,121.7813 189.2656,122.2344 188.6875,122.6406 C187.9375,123.1875 186.7813,123.4844 185.5625,123.4844 C182.6719,123.4844 180.5625,121.5938 180.5625,119.0156 L180.5625,117.8906 C180.5625,115.1719 182.5625,113.0938 185.1875,113.0938 C186.0625,113.0938 186.6563,113.2344 187.5938,113.6719 Z "/><text fill="#000000" font-family="sans-serif" font-size="12" lengthAdjust="spacingAndGlyphs" textLength="117" x="205.75" y="122.1543">TemporalAdjusters</text><line style="stroke: #A80036; stroke-width: 1.5;" x1="63" x2="433" y1="134" y2="134"/><ellipse cx="73" cy="145.9023" fill="#84BE84" rx="3" ry="3" style="stroke: #038048; stroke-width: 1.0;"/><text fill="#000000" font-family="sans-serif" font-size="11" lengthAdjust="spacingAndGlyphs" text-decoration="underline" textLength="208" x="82" y="148.2104">firstDayOfMonth(): TemporalAdjuster</text><ellipse cx="73" cy="158.707" fill="#84BE84" rx="3" ry="3" style="stroke: #038048; stroke-width: 1.0;"/><text fill="#000000" font-family="sans-serif" font-size="11" lengthAdjust="spacingAndGlyphs" text-decoration="underline" textLength="233" x="82" y="161.0151">firstDayOfNextMonth(): TemporalAdjuster</text><ellipse cx="73" cy="171.5117" fill="#84BE84" rx="3" ry="3" style="stroke: #038048; stroke-width: 1.0;"/><text fill="#000000" font-family="sans-serif" font-size="11" lengthAdjust="spacingAndGlyphs" text-decoration="underline" textLength="200" x="82" y="173.8198">firstDayOfYear(): TemporalAdjuster</text><ellipse cx="73" cy="184.3164" fill="#84BE84" rx="3" ry="3" style="stroke: #038048; stroke-width: 1.0;"/><text fill="#000000" font-family="sans-serif" font-size="11" lengthAdjust="spacingAndGlyphs" text-decoration="underline" textLength="225" x="82" y="186.6245">firstDayOfNextYear(): TemporalAdjuster</text><ellipse cx="73" cy="197.1211" fill="#84BE84" rx="3" ry="3" style="stroke: #038048; stroke-width: 1.0;"/><text fill="#000000" font-family="sans-serif" font-size="11" lengthAdjust="spacingAndGlyphs" text-decoration="underline" textLength="206" x="82" y="199.4292">lastDayOfMonth(): TemporalAdjuster</text><ellipse cx="73" cy="209.9258" fill="#84BE84" rx="3" ry="3" style="stroke: #038048; stroke-width: 1.0;"/><text fill="#000000" font-family="sans-serif" font-size="11" lengthAdjust="spacingAndGlyphs" text-decoration="underline" textLength="198" x="82" y="212.2339">lastDayOfYear(): TemporalAdjuster</text><ellipse cx="73" cy="222.7305" fill="#84BE84" rx="3" ry="3" style="stroke: #038048; stroke-width: 1.0;"/><text fill="#000000" font-family="sans-serif" font-size="11" lengthAdjust="spacingAndGlyphs" text-decoration="underline" textLength="317" x="82" y="225.0386">firstInMonth(dayOfWeek: DayOfWeek): TemporalAdjuster</text><ellipse cx="73" cy="235.5352" fill="#84BE84" rx="3" ry="3" style="stroke: #038048; stroke-width: 1.0;"/><text fill="#000000" font-family="sans-serif" font-size="11" lengthAdjust="spacingAndGlyphs" text-decoration="underline" textLength="315" x="82" y="237.8433">lastInMonth(dayOfWeek: DayOfWeek): TemporalAdjuster</text><ellipse cx="73" cy="248.3398" fill="#84BE84" rx="3" ry="3" style="stroke: #038048; stroke-width: 1.0;"/><text fill="#000000" font-family="sans-serif" font-size="11" lengthAdjust="spacingAndGlyphs" text-decoration="underline" textLength="274" x="82" y="250.6479">next(dayOfWeek: DayOfWeek): TemporalAdjuster</text><ellipse cx="73" cy="261.1445" fill="#84BE84" rx="3" ry="3" style="stroke: #038048; stroke-width: 1.0;"/><text fill="#000000" font-family="sans-serif" font-size="11" lengthAdjust="spacingAndGlyphs" text-decoration="underline" textLength="321" x="82" y="263.4526">nextOrSame(dayOfWeek: DayOfWeek): TemporalAdjuster</text><ellipse cx="73" cy="273.9492" fill="#84BE84" rx="3" ry="3" style="stroke: #038048; stroke-width: 1.0;"/><text fill="#000000" font-family="sans-serif" font-size="11" lengthAdjust="spacingAndGlyphs" text-decoration="underline" textLength="299" x="82" y="276.2573">previous(dayOfWeek: DayOfWeek): TemporalAdjuster</text><ellipse cx="73" cy="286.7539" fill="#84BE84" rx="3" ry="3" style="stroke: #038048; stroke-width: 1.0;"/><text fill="#000000" font-family="sans-serif" font-size="11" lengthAdjust="spacingAndGlyphs" text-decoration="underline" textLength="346" x="82" y="289.062">previousOrSame(dayOfWeek: DayOfWeek): TemporalAdjuster</text><!--link TemporalAccessor to DayOfWeek--><path d="M542,235.457 C542,267.84 542,316.5 542,355.725 " fill="none" id="TemporalAccessor-DayOfWeek" style="stroke: #A80036; stroke-width: 1.0; stroke-dasharray: 7.0,7.0;"/><polygon fill="none" points="535,235.122,542,215.121,549,235.121,535,235.122" style="stroke: #A80036; stroke-width: 1.0;"/><!--link TemporalAdjuster to DayOfWeek--><path d="M698.056,231.71 C680.739,256.284 655.641,290.931 632,320 C619.842,334.95 606.173,350.649 593.23,365.063 " fill="none" id="TemporalAdjuster-DayOfWeek" style="stroke: #A80036; stroke-width: 1.0; stroke-dasharray: 7.0,7.0;"/><polygon fill="none" points="692.438,227.529,709.629,215.14,703.916,235.545,692.438,227.529" style="stroke: #A80036; stroke-width: 1.0;"/><!--link TemporalAdjusters to DayOfWeek--><path d="M376.525,296.175 C415.12,325.056 455.442,355.228 486.619,378.558 " fill="none" id="TemporalAdjusters-DayOfWeek" style="stroke: #A80036; stroke-width: 1.0; stroke-dasharray: 7.0,7.0;"/><polygon fill="#A80036" points="490.762,381.659,485.9532,373.0639,486.7589,378.6631,481.1597,379.4689,490.762,381.659" style="stroke: #A80036; stroke-width: 1.0;"/><!--
@startuml
package java.time {
 package temporal {
  interface TemporalAccessor
  interface TemporalAdjuster
  class TemporalAdjusters {
   +{static} firstDayOfMonth(): TemporalAdjuster
   +{static} firstDayOfNextMonth(): TemporalAdjuster
   +{static} firstDayOfYear(): TemporalAdjuster
   +{static} firstDayOfNextYear(): TemporalAdjuster
   +{static} lastDayOfMonth(): TemporalAdjuster
   +{static} lastDayOfYear(): TemporalAdjuster
   +{static} firstInMonth(dayOfWeek: DayOfWeek): TemporalAdjuster
   +{static} lastInMonth(dayOfWeek: DayOfWeek): TemporalAdjuster
   +{static} next(dayOfWeek: DayOfWeek): TemporalAdjuster
   +{static} nextOrSame(dayOfWeek: DayOfWeek): TemporalAdjuster
   +{static} previous(dayOfWeek: DayOfWeek): TemporalAdjuster
   +{static} previousOrSame(dayOfWeek: DayOfWeek): TemporalAdjuster
  }
 }
 enum DayOfWeek {
  +{static} MONDAY
  +{static} TUESDAY
  +{static} WEDNESDAY
  +{static} THURSDAY
  +{static} FRIDAY
  +{static} SATURDAY
  +{static} SUNDAY
 } 
}
DayOfWeek .up.|> TemporalAccessor
DayOfWeek .up.|> TemporalAdjuster
TemporalAdjusters ..> DayOfWeek
hide empty members
@enduml

PlantUML version 1.2019.08(Sat Jul 13 19:25:14 UTC 2019)
(GPL source distribution)
Java Runtime: Java(TM) SE Runtime Environment
JVM: Java HotSpot(TM) 64-Bit Server VM
Java Version: 1.7.0_25-b15
Operating System: Linux
Default Encoding: UTF-8
Language: en
Country: US
--></g></svg>