<?xml version="1.0" encoding="UTF-8" standalone="no"?><svg xmlns="http://www.w3.org/2000/svg" xmlns:xlink="http://www.w3.org/1999/xlink" contentScriptType="application/ecmascript" contentStyleType="text/css" height="164px" preserveAspectRatio="none" style="width:234px;height:164px;" version="1.1" viewBox="0 0 234 164" width="234px" zoomAndPan="magnify"><defs><filter height="300%" id="fjegf9wqvurvl" width="300%" x="-1" y="-1"><feGaussianBlur result="blurOut" stdDeviation="2.0"/><feColorMatrix in="blurOut" result="blurOut2" type="matrix" values="0 0 0 0 0 0 0 0 0 0 0 0 0 0 0 0 0 0 .4 0"/><feOffset dx="4.0" dy="4.0" in="blurOut2" result="blurOut3"/><feBlend in="SourceGraphic" in2="blurOut3" mode="normal"/></filter></defs><g><!--class Appendable--><rect fill="#FEFECE" filter="url(#fjegf9wqvurvl)" height="52.8047" id="Appendable" style="stroke: #A80036; stroke-width: 1.5;" width="217" x="6" y="8"/><ellipse cx="72.75" cy="24" fill="#B4A7E5" rx="11" ry="11" style="stroke: #A80036; stroke-width: 1.0;"/><path d="M73.7031,20.7813 L73.7031,27.2969 L75.4219,27.2969 C75.875,27.2969 76.0156,27.3281 76.1875,27.4531 C76.4219,27.625 76.5313,27.875 76.5313,28.1563 C76.5313,28.7188 76.1719,29 75.4219,29 L70.2813,29 C69.875,29 69.6719,28.9531 69.5156,28.8281 C69.2969,28.6719 69.1563,28.4063 69.1563,28.1563 C69.1563,27.8594 69.3125,27.5781 69.5625,27.4219 C69.7188,27.3125 69.8438,27.2969 70.2813,27.2969 L72,27.2969 L72,20.7813 L70.2813,20.7813 C69.8594,20.7813 69.6719,20.75 69.5156,20.6406 C69.2969,20.4688 69.1563,20.2188 69.1563,19.9375 C69.1563,19.6563 69.3125,19.3594 69.5625,19.2031 C69.7188,19.1094 69.8438,19.0938 70.2813,19.0938 L75.4219,19.0938 C75.875,19.0938 76.0156,19.125 76.1875,19.2344 C76.4219,19.4063 76.5313,19.6719 76.5313,19.9375 C76.5313,20.2344 76.3906,20.5156 76.125,20.6719 C76,20.75 75.8125,20.7813 75.4219,20.7813 Z "/><text fill="#000000" font-family="sans-serif" font-size="12" font-style="italic" lengthAdjust="spacingAndGlyphs" textLength="75" x="93.25" y="28.1543">Appendable</text><line style="stroke: #A80036; stroke-width: 1.5;" x1="7" x2="222" y1="40" y2="40"/><ellipse cx="17" cy="51.9023" fill="#84BE84" rx="3" ry="3" style="stroke: #038048; stroke-width: 1.0;"/><text fill="#000000" font-family="sans-serif" font-size="11" font-style="italic" lengthAdjust="spacingAndGlyphs" textLength="191" x="26" y="54.2104">append(appendable: Appendable)</text><!--class MyType--><rect fill="#FEFECE" filter="url(#fjegf9wqvurvl)" height="32" id="MyType" style="stroke: #A80036; stroke-width: 1.5;" width="77" x="22" y="121"/><ellipse cx="37" cy="137" fill="#ADD1B2" rx="11" ry="11" style="stroke: #A80036; stroke-width: 1.0;"/><path d="M39.3438,132.6719 L39.5156,132.75 C39.7344,132.4375 39.9375,132.3438 40.2344,132.3438 C40.5313,132.3438 40.8125,132.4844 40.9688,132.75 C41.0625,132.9063 41.0781,133.0313 41.0781,133.4688 L41.0781,134.8906 C41.0781,135.3125 41.0469,135.5 40.9375,135.6563 C40.7656,135.875 40.5,136.0156 40.2344,136.0156 C40.0156,136.0156 39.7813,135.9063 39.6406,135.7656 C39.5,135.6406 39.4688,135.5156 39.4063,135.1094 C39.3125,134.7031 39.1406,134.4844 38.6563,134.2031 C38.1875,133.9531 37.5781,133.7969 37,133.7969 C35.2656,133.7969 34.0156,135.1094 34.0156,136.8906 L34.0156,137.9844 C34.0156,139.6875 35.3125,140.7813 37.3594,140.7813 C38.125,140.7813 38.8125,140.6563 39.2344,140.3906 C39.4219,140.2969 39.4219,140.2969 39.875,139.8125 C40.0625,139.625 40.2656,139.5469 40.4844,139.5469 C40.9531,139.5469 41.3438,139.9375 41.3438,140.3906 C41.3438,140.7813 41.0156,141.2344 40.4375,141.6406 C39.6875,142.1875 38.5313,142.4844 37.3125,142.4844 C34.4219,142.4844 32.3125,140.5938 32.3125,138.0156 L32.3125,136.8906 C32.3125,134.1719 34.3125,132.0938 36.9375,132.0938 C37.8125,132.0938 38.4063,132.2344 39.3438,132.6719 Z "/><text fill="#000000" font-family="sans-serif" font-size="12" lengthAdjust="spacingAndGlyphs" textLength="45" x="51" y="141.1543">MyType</text><!--class MyList--><rect fill="#FEFECE" filter="url(#fjegf9wqvurvl)" height="32" id="MyList" style="stroke: #A80036; stroke-width: 1.5;" width="69" x="134" y="121"/><ellipse cx="149" cy="137" fill="#ADD1B2" rx="11" ry="11" style="stroke: #A80036; stroke-width: 1.0;"/><path d="M151.3438,132.6719 L151.5156,132.75 C151.7344,132.4375 151.9375,132.3438 152.2344,132.3438 C152.5313,132.3438 152.8125,132.4844 152.9688,132.75 C153.0625,132.9063 153.0781,133.0313 153.0781,133.4688 L153.0781,134.8906 C153.0781,135.3125 153.0469,135.5 152.9375,135.6563 C152.7656,135.875 152.5,136.0156 152.2344,136.0156 C152.0156,136.0156 151.7813,135.9063 151.6406,135.7656 C151.5,135.6406 151.4688,135.5156 151.4063,135.1094 C151.3125,134.7031 151.1406,134.4844 150.6563,134.2031 C150.1875,133.9531 149.5781,133.7969 149,133.7969 C147.2656,133.7969 146.0156,135.1094 146.0156,136.8906 L146.0156,137.9844 C146.0156,139.6875 147.3125,140.7813 149.3594,140.7813 C150.125,140.7813 150.8125,140.6563 151.2344,140.3906 C151.4219,140.2969 151.4219,140.2969 151.875,139.8125 C152.0625,139.625 152.2656,139.5469 152.4844,139.5469 C152.9531,139.5469 153.3438,139.9375 153.3438,140.3906 C153.3438,140.7813 153.0156,141.2344 152.4375,141.6406 C151.6875,142.1875 150.5313,142.4844 149.3125,142.4844 C146.4219,142.4844 144.3125,140.5938 144.3125,138.0156 L144.3125,136.8906 C144.3125,134.1719 146.3125,132.0938 148.9375,132.0938 C149.8125,132.0938 150.4063,132.2344 151.3438,132.6719 Z "/><text fill="#000000" font-family="sans-serif" font-size="12" lengthAdjust="spacingAndGlyphs" textLength="37" x="163" y="141.1543">MyList</text><!--link Appendable to MyType--><path d="M91.0601,79.1242 C83.0745,93.9864 74.666,109.6355 68.695,120.7482 " fill="none" id="Appendable-MyType" style="stroke: #A80036; stroke-width: 1.0; stroke-dasharray: 7.0,7.0;"/><polygon fill="none" points="85.1012,75.4251,100.7338,61.1204,97.4337,82.0515,85.1012,75.4251" style="stroke: #A80036; stroke-width: 1.0;"/><!--link Appendable to MyList--><path d="M137.94,79.1242 C145.926,93.9864 154.334,109.6355 160.305,120.7482 " fill="none" id="Appendable-MyList" style="stroke: #A80036; stroke-width: 1.0; stroke-dasharray: 7.0,7.0;"/><polygon fill="none" points="131.566,82.0515,128.266,61.1204,143.899,75.4251,131.566,82.0515" style="stroke: #A80036; stroke-width: 1.0;"/><!--
@startuml
interface Appendable {
 + {abstract} append(appendable: Appendable)
}
MyType .up.|> Appendable
MyList .up.|> Appendable
hide empty attributes
hide empty methods
@enduml

PlantUML version 1.2018.02beta8(Unknown compile time)
(GPL source distribution)
Java Runtime: Java(TM) SE Runtime Environment
JVM: Java HotSpot(TM) 64-Bit Server VM
Java Version: 1.7.0_25-b15
Operating System: Linux
Default Encoding: UTF-8
Language: en
Country: US
--></g></svg>