<?xml version="1.0" encoding="UTF-8" standalone="no"?><svg xmlns="http://www.w3.org/2000/svg" xmlns:xlink="http://www.w3.org/1999/xlink" contentScriptType="application/ecmascript" contentStyleType="text/css" height="156px" preserveAspectRatio="none" style="width:321px;height:156px;" version="1.1" viewBox="0 0 321 156" width="321px" zoomAndPan="magnify"><defs><filter height="300%" id="f1lci6xi50wym4" width="300%" x="-1" y="-1"><feGaussianBlur result="blurOut" stdDeviation="2.0"/><feColorMatrix in="blurOut" result="blurOut2" type="matrix" values="0 0 0 0 0 0 0 0 0 0 0 0 0 0 0 0 0 0 .4 0"/><feOffset dx="4.0" dy="4.0" in="blurOut2" result="blurOut3"/><feBlend in="SourceGraphic" in2="blurOut3" mode="normal"/></filter></defs><g><!--class Triple--><rect fill="#FEFECE" filter="url(#f1lci6xi50wym4)" height="137.6328" id="Triple" style="stroke: #A80036; stroke-width: 1.5;" width="304" x="6" y="8"/><ellipse cx="136.75" cy="24" fill="#ADD1B2" rx="11" ry="11" style="stroke: #A80036; stroke-width: 1.0;"/><path d="M139.0938,19.6719 L139.2656,19.75 C139.4844,19.4375 139.6875,19.3438 139.9844,19.3438 C140.2813,19.3438 140.5625,19.4844 140.7188,19.75 C140.8125,19.9063 140.8281,20.0313 140.8281,20.4688 L140.8281,21.8906 C140.8281,22.3125 140.7969,22.5 140.6875,22.6563 C140.5156,22.875 140.25,23.0156 139.9844,23.0156 C139.7656,23.0156 139.5313,22.9063 139.3906,22.7656 C139.25,22.6406 139.2188,22.5156 139.1563,22.1094 C139.0625,21.7031 138.8906,21.4844 138.4063,21.2031 C137.9375,20.9531 137.3281,20.7969 136.75,20.7969 C135.0156,20.7969 133.7656,22.1094 133.7656,23.8906 L133.7656,24.9844 C133.7656,26.6875 135.0625,27.7813 137.1094,27.7813 C137.875,27.7813 138.5625,27.6563 138.9844,27.3906 C139.1719,27.2969 139.1719,27.2969 139.625,26.8125 C139.8125,26.625 140.0156,26.5469 140.2344,26.5469 C140.7031,26.5469 141.0938,26.9375 141.0938,27.3906 C141.0938,27.7813 140.7656,28.2344 140.1875,28.6406 C139.4375,29.1875 138.2813,29.4844 137.0625,29.4844 C134.1719,29.4844 132.0625,27.5938 132.0625,25.0156 L132.0625,23.8906 C132.0625,21.1719 134.0625,19.0938 136.6875,19.0938 C137.5625,19.0938 138.1563,19.2344 139.0938,19.6719 Z "/><text fill="#000000" font-family="sans-serif" font-size="12" lengthAdjust="spacingAndGlyphs" textLength="34" x="157.25" y="28.1543">Triple</text><line style="stroke: #A80036; stroke-width: 1.5;" x1="7" x2="309" y1="40" y2="40"/><rect fill="none" height="6" style="stroke: #C82930; stroke-width: 1.0;" width="6" x="14" y="48.9023"/><text fill="#000000" font-family="sans-serif" font-size="11" lengthAdjust="spacingAndGlyphs" textLength="67" x="26" y="54.2104">first: Object</text><rect fill="none" height="6" style="stroke: #C82930; stroke-width: 1.0;" width="6" x="14" y="61.707"/><text fill="#000000" font-family="sans-serif" font-size="11" lengthAdjust="spacingAndGlyphs" textLength="85" x="26" y="67.0151">second: Object</text><rect fill="none" height="6" style="stroke: #C82930; stroke-width: 1.0;" width="6" x="14" y="74.5117"/><text fill="#000000" font-family="sans-serif" font-size="11" lengthAdjust="spacingAndGlyphs" textLength="70" x="26" y="79.8198">third: Object</text><line style="stroke: #A80036; stroke-width: 1.5;" x1="7" x2="309" y1="86.4141" y2="86.4141"/><ellipse cx="17" cy="98.3164" fill="#84BE84" rx="3" ry="3" style="stroke: #038048; stroke-width: 1.0;"/><text fill="#000000" font-family="sans-serif" font-size="11" lengthAdjust="spacingAndGlyphs" textLength="278" x="26" y="100.6245">Triple(first: Object, second: Object, third: Object)</text><ellipse cx="17" cy="111.1211" fill="#84BE84" rx="3" ry="3" style="stroke: #038048; stroke-width: 1.0;"/><text fill="#000000" font-family="sans-serif" font-size="11" lengthAdjust="spacingAndGlyphs" textLength="75" x="26" y="113.4292">first(): Object</text><ellipse cx="17" cy="123.9258" fill="#84BE84" rx="3" ry="3" style="stroke: #038048; stroke-width: 1.0;"/><text fill="#000000" font-family="sans-serif" font-size="11" lengthAdjust="spacingAndGlyphs" textLength="93" x="26" y="126.2339">second(): Object</text><ellipse cx="17" cy="136.7305" fill="#84BE84" rx="3" ry="3" style="stroke: #038048; stroke-width: 1.0;"/><text fill="#000000" font-family="sans-serif" font-size="11" lengthAdjust="spacingAndGlyphs" textLength="78" x="26" y="139.0386">third(): Object</text><!--
@startuml
class Triple {
 - first: Object
 - second: Object
 - third: Object
 + Triple(first: Object, second: Object, third: Object)
 + first(): Object
 + second(): Object
 + third(): Object
}
@enduml

PlantUML version 1.2018.02beta8(Unknown compile time)
(GPL source distribution)
Java Runtime: Java(TM) SE Runtime Environment
JVM: Java HotSpot(TM) 64-Bit Server VM
Java Version: 1.7.0_25-b15
Operating System: Linux
Default Encoding: UTF-8
Language: en
Country: US
--></g></svg>